<svg viewBox="0 0 289 186" fill="none" xmlns="http://www.w3.org/2000/svg">
    <path d="M236.2 174.9C234.7 174.9 182.3 175.8 180.6 175.8C178.9 175.8 178 174.7 178 172.8V157.3H177.3C171 169.7 162.7 178.5 140.9 178.5C113.2 178.5 93.9 155.9 93.9 118.4C93.9 79.9 116.5 58.1 142.2 58.1C161.8 58.1 172.3 64.1 177.8 78.3H178.6V40.1C178.6 37.3 178.4 34.2 177.9 32.7C177 29 175.1 28.8 171.6 28.6C169.4 28.6 160.9 28.4 159 28.4C157.5 28.4 156.6 28 156.6 26V10.3C156.6 8.29998 157.3 7.29998 158.8 7.29998C160.3 7.29998 212.3 6.59998 214.1 6.59998C215.8 6.59998 216.7 7.49998 216.7 9.39998V139.5C216.7 142.3 216.7 145.2 217.1 146.7C218 150.4 219.9 150.6 223.4 150.8C225.6 150.8 234.1 151.2 236 151.2C237.5 151.2 238.4 151.6 238.4 153.6V172C238.3 174 237.7 174.9 236.2 174.9ZM156.6 79.4C143.8 79.4 135.2 89.4 135.2 118.3C135.2 145.5 142.3 157.8 156.6 157.8C172.6 157.8 177.1 140.8 177.1 118.3C177 97.5 175.7 79.4 156.6 79.4Z" fill="#FFEADB"/>
    <path d="M102.5 59.7C92.8 59.7 84.6 53.2 84.6 42.6C84.6 32.3 94.3 27.7 96.9 26.6V26.2C95 24.7 92.8 22.9 86.4 22.9C74 22.9 64.8 28.3 64.8 47.2V61.5H87C88.5 61.5 89.2 62.6 89.2 64.5V79.7C89.2 81.7 88.5 82.5 87 82.5H64.9V139.1C64.9 141.9 65.1 144.8 65.6 146.3C66.5 150 68.4 150.4 71.9 150.7C74.1 150.7 82.1 150.9 84.1 150.9C85.6 150.9 86.5 151.3 86.5 153.3V171.7C86.5 173.7 85.8 174.5 84.3 174.5H7.79999C6.29999 174.5 5.59999 173.6 5.59999 171.7V153.3C5.59999 151.3 6.49999 150.9 7.99999 150.9C9.99999 150.9 16.7 150.7 18.9 150.7C22.4 150.5 24.3 150 25.2 146.3C25.6 144.8 25.9 141.9 25.9 139.1V82.5H7.59999C6.09999 82.5 5.39999 81.6 5.39999 79.7V64.5C5.39999 62.5 6.09999 61.5 7.59999 61.5H25.9V52.8C25.8 29 45.5 6.40002 79.7 6.40002C109.6 6.40002 122 25.4 122 37.3C122 52.2 113.1 59.7 102.5 59.7Z" fill="#FFEADB"/>
    <path d="M281.5 161C281.5 150.6 273.8 143.8 264.3 143.8C254.8 143.8 247.1 150.6 247.1 161C247.1 171.4 254.8 178.2 264.3 178.2C273.8 178.2 281.5 171.4 281.5 161Z" fill="#FFEADB"/>
    </svg>
