<?xml version="1.0" encoding="utf-8"?>
<!-- Generator: Adobe Illustrator 22.1.0, SVG Export Plug-In . SVG Version: 6.00 Build 0)  -->
<svg version="1.1" id="Layer_1" xmlns="http://www.w3.org/2000/svg"  x="0px" y="0px"
	 viewBox="0 0 146 91" style="enable-background:new 0 0 146 91;" xml:space="preserve">
<style type="text/css">
	.st0{fill:#49A4A2;}
</style>
<g>
	<g>
		<path class="st0" d="M122.1,76.6c-1.1,0-5.5-0.3-6.7-0.3c-1.8-0.1-2.8-0.3-3.4-2.2c-0.2-0.8-0.2-2.3-0.2-3.8V1.8
			c0-1.1-0.5-1.5-1.4-1.5S82,0.7,81.2,0.7c-0.7,0-1.1,0.5-1.1,1.6v8.2c0,1,0.5,1.2,1.3,1.2c1,0,5.4,0.1,6.6,0.2
			c1.8,0.1,2.8,0.2,3.4,2.2c0.2,0.8,0.4,2.4,0.4,3.9v20h-0.5c-2.9-7.4-8.4-10.6-18.8-10.6C59,27.4,47,38.9,47,59.2
			c0,19.7,10.2,31.6,24.8,31.6c11.5,0,15.9-4.6,19.1-11.1h0.4v8.2c0,1,0.5,1.6,1.4,1.6s28.6-0.5,29.4-0.5s1.1-0.5,1.1-1.5v-9.7
			C123.2,76.7,122.8,76.6,122.1,76.6z M80.2,79.9c-7.5,0-11.3-6.4-11.3-20.8c0-15.2,4.6-20.5,11.3-20.5c10.1,0,10.8,9.5,10.8,20.5
			C91,71,88.6,79.9,80.2,79.9z"/>
	</g>
	<path d="M42.3,19.2c0,5.6,4.4,9.1,9.4,9.1c5.5,0,10.2-3.9,10.2-11.8c0-6.3-6.5-16.3-22.3-16.3c-18,0-28.4,12-28.4,24.5v4.5H1.7
		c-0.8,0-1.2,0.6-1.2,1.6v8c0,1.1,0.4,1.5,1.2,1.5h9.6v29.8c0,1.5-0.2,2.9-0.4,3.7c-0.5,2-1.5,2.3-3.4,2.4c-1.1,0-4.6,0.1-5.7,0.1
		c-0.8,0-1.3,0.3-1.3,1.3v9.7c0,1,0.4,1.5,1.2,1.5H42c0.8,0,1.2-0.5,1.2-1.5v-9.7c0-1-0.5-1.3-1.3-1.3c-1.1,0-5.4-0.1-6.4-0.1
		c-1.8-0.1-2.9-0.4-3.4-2.4c-0.2-0.8-0.4-2.3-0.4-3.7V40.3h11.7c0.8,0,1.2-0.5,1.2-1.5v-8c0-1-0.4-1.6-1.2-1.6H31.9v-7.5
		c0-10,4.8-12.8,11.4-12.8c3.3,0,4.4,0.9,5.4,1.7v0.2C47.4,11.4,42.3,13.7,42.3,19.2z"/>
	<path d="M137,72.6c-5.1,0-9.1,3.5-9.1,9.1c0,5.4,4,9.1,9.1,9.1c5,0,9-3.6,9-9.1C146,76.1,142,72.6,137,72.6z"/>
</g>
</svg>
