<!-- Generated by IcoMoon.io -->
<svg version="1.1" xmlns="http://www.w3.org/2000/svg" width="512" height="512" viewBox="0 0 512 512">
<title></title>
<g id="icomoon-ignore">
</g>
<path d="M448 192c-17.6 0-32 14.4-32 32v128c0 17.6 14.4 32 32 32s32-14.4 32-32v-128c0-17.6-14.4-32-32-32zM64 192c-17.6 0-32 14.4-32 32v128c0 17.6 14.4 32 32 32s32-14.4 32-32v-128c0-17.6-14.401-32-32-32zM112 368c0 26.51 21.49 48 48 48v0 64c0 17.6 14.4 32 32 32s32-14.4 32-32v-64h64v64c0 17.6 14.4 32 32 32s32-14.4 32-32v-64c26.51 0 48-21.49 48-48v-176h-288v176z"></path>
<path d="M399.108 160.001c-4.858-43.942-29.502-81.896-64.81-104.823l16.012-32.023c3.952-7.903 0.748-17.514-7.155-21.466s-17.515-0.748-21.466 7.156l-16.071 32.143-4.175-1.658c-14.284-4.751-29.561-7.33-45.443-7.33-15.881 0-31.158 2.579-45.444 7.328l-4.174 1.658-16.071-32.141c-3.952-7.904-13.564-11.106-21.466-7.156-7.904 3.952-11.107 13.563-7.156 21.466l16.011 32.023c-35.308 22.926-59.952 60.881-64.811 104.822v16h287.111v-15.999h-0.892zM208 128c-8.837 0-16-7.164-16-16 0-8.824 7.144-15.979 15.965-15.998 0.016 0 0.031 0.001 0.047 0.001 0.009 0 0.018-0.001 0.026-0.001 8.819 0.021 15.962 7.175 15.962 15.998 0 8.836-7.163 16-16 16zM304 128c-8.837 0-16-7.164-16-16 0-8.823 7.143-15.977 15.962-15.998 0.008 0 0.017 0.001 0.025 0.001 0.016 0 0.032-0.001 0.048-0.001 8.82 0.019 15.965 7.174 15.965 15.998 0 8.836-7.163 16-16 16z"></path>
</svg>
