<svg width="21" height="20" viewBox="0 0 21 20" fill="none" xmlns="http://www.w3.org/2000/svg">
    <path d="M5.87503 1.66669C5.38766 1.66531 4.90482 1.76029 4.45429 1.94617C4.00375 2.13204 3.5944 2.40514 3.24978 2.74976C2.90516 3.09439 2.63206 3.50374 2.44618 3.95427C2.26031 4.40481 2.16533 4.88764 2.1667 5.37501V14.625C2.16533 15.1124 2.26031 15.5952 2.44618 16.0457C2.63206 16.4963 2.90516 16.9056 3.24978 17.2502C3.5944 17.5949 4.00375 17.868 4.45429 18.0538C4.90482 18.2397 5.38766 18.3347 5.87503 18.3333H15.125C15.6124 18.3347 16.0952 18.2397 16.5458 18.0538C16.9963 17.868 17.4056 17.5949 17.7503 17.2502C18.0949 16.9056 18.368 16.4963 18.5539 16.0457C18.7397 15.5952 18.8347 15.1124 18.8333 14.625V5.37501C18.8347 4.88764 18.7397 4.40481 18.5539 3.95427C18.368 3.50374 18.0949 3.09439 17.7503 2.74976C17.4056 2.40514 16.9963 2.13204 16.5458 1.94617C16.0952 1.76029 15.6124 1.66531 15.125 1.66669H5.87503ZM10.4047 3.44845C12.0271 3.44845 13.4943 4.07554 14.6125 5.24689C15.462 6.12866 15.9391 7.06407 16.1833 8.29636C16.2672 8.70626 16.2672 9.82344 16.188 10.2844C15.9287 11.75 15.1257 13.0638 13.9396 13.963C13.5167 14.2833 12.4828 14.8396 12.3172 14.8396C12.2547 14.8396 12.25 14.7771 12.2771 14.5193C12.3287 14.1068 12.3771 14.0229 12.6104 13.925C12.9818 13.7708 13.6167 13.3172 14.0047 12.9297C14.6831 12.2515 15.1649 11.4021 15.399 10.4719C15.5453 9.89896 15.5261 8.62657 15.3662 8.03855C14.8615 6.16616 13.3313 4.71304 11.4599 4.32189C10.9177 4.21095 9.92711 4.21095 9.37659 4.32189C7.48284 4.71304 5.91461 6.24012 5.43753 8.16095C5.30993 8.68386 5.30993 9.95678 5.43753 10.4776C5.75472 11.75 6.57711 12.9156 7.65367 13.6104C7.86565 13.7516 8.12034 13.8953 8.22659 13.9391C8.4594 14.0391 8.51148 14.124 8.55419 14.5328C8.58127 14.7854 8.57554 14.8557 8.51669 14.8557C8.47867 14.8557 8.19377 14.7333 7.89221 14.5896L7.86513 14.5682C6.14794 13.7245 5.04899 12.2953 4.64795 10.3932C4.55055 9.90209 4.53128 8.73334 4.6292 8.28282C4.87868 7.07293 5.35628 6.12918 6.15055 5.29376C7.29586 4.08595 8.76877 3.44845 10.4068 3.44845H10.4047ZM10.5 5.4021C10.7575 5.40148 11.0144 5.4259 11.2672 5.47501C13.2021 5.90626 14.5714 7.84116 14.3052 9.76094C14.1995 10.5365 13.9339 11.1719 13.462 11.763C13.2287 12.0615 12.6615 12.5609 12.5615 12.5609C12.5448 12.5609 12.5287 12.3708 12.5287 12.1427V11.7219L12.8162 11.3776C13.9063 10.0729 13.8281 8.25001 12.6396 7.05678C12.1787 6.59012 11.6438 6.31564 10.9547 6.19168C10.5104 6.10782 10.4177 6.10782 9.95106 6.18595C9.24065 6.30001 8.69221 6.57345 8.20367 7.05678C7.01044 8.23959 6.93128 10.0729 8.02242 11.3776L8.30992 11.7219V12.1453C8.30992 12.3786 8.29065 12.5656 8.26617 12.5656C8.24742 12.5656 8.0844 12.4547 7.91044 12.3161L7.88596 12.3078C7.30836 11.8469 6.79846 11.0302 6.58649 10.2271C6.4594 9.74167 6.4594 8.8224 6.59222 8.33907C6.94221 7.03439 7.90523 6.02241 9.23752 5.54793C9.52242 5.44741 10.0235 5.39324 10.4959 5.40158L10.5 5.4021ZM10.4078 7.47709C10.625 7.47709 10.8391 7.52084 10.9969 7.60209C11.3328 7.77866 11.613 8.1172 11.7182 8.47553C12.0412 9.57136 10.8802 10.5318 9.82711 10.0406H9.81929C9.32294 9.8099 9.05679 9.37605 9.05106 8.81147C9.05106 8.30157 9.33284 7.85938 9.82398 7.59897C9.97867 7.51772 10.1932 7.47657 10.4099 7.47657L10.4078 7.47709ZM10.4021 10.7625C11.0891 10.7599 11.5849 11.0036 11.7693 11.4349C11.9073 11.7578 11.8563 12.775 11.6172 14.4219C11.4573 15.5719 11.3677 15.862 11.1459 16.0578C10.8391 16.3286 10.4078 16.4052 9.99533 16.2583H9.99325C9.4969 16.0792 9.39065 15.8375 9.1844 14.4214C8.94898 12.775 8.8969 11.7573 9.03596 11.4344C9.21721 11.0057 9.71096 10.7651 10.4026 10.762L10.4021 10.7625Z" fill="#191919"/>
</svg>
