<?xml version="1.0" encoding="utf-8"?>
<!-- Generator: Adobe Illustrator 16.2.1, SVG Export Plug-In . SVG Version: 6.00 Build 0)  -->
<!DOCTYPE svg PUBLIC "-//W3C//DTD SVG 1.1//EN" "http://www.w3.org/Graphics/SVG/1.1/DTD/svg11.dtd">
<svg version="1.1" id="Laag_1" xmlns="http://www.w3.org/2000/svg" xmlns:xlink="http://www.w3.org/1999/xlink" x="0px" y="0px"
	 width="24px" height="24px" viewBox="0 0 24 24" style="enable-background:new 0 0 24 24;" xml:space="preserve">
<style type="text/css">
<![CDATA[
	.st0{fill:#F05031;}
	.st1{fill:#FFFFFF;}
]]>
</style>
<g>
	<ellipse class="st1" cx="12.7" cy="12.3" rx="6.2" ry="6.6"/>
	<path class="st0" d="M2.4,12.3c0-5.5,4.5-10,10-10c5.5,0,10,4.5,10,10s-4.5,10-10,10C6.9,22.3,2.4,17.8,2.4,12.3z M13.3,7.4
		c-0.3-0.3-0.7-0.3-0.9,0c-0.3,0.3-0.3,0.7,0,0.9l3.3,3.4H7.3c-0.4,0-0.6,0.3-0.6,0.6S6.9,13,7.3,13h8.5l-3.4,3.4
		c-0.3,0.3-0.3,0.7,0,0.9c0.1,0.1,0.3,0.2,0.5,0.2c0.2,0,0.3-0.1,0.5-0.2l4.5-4.4c0.1-0.1,0.2-0.3,0.2-0.5s0-0.4-0.2-0.5L13.3,7.4z"
		/>
</g>
</svg>
