<svg width="32" height="32" viewBox="0 0 32 32" fill="none" xmlns="http://www.w3.org/2000/svg">
    <path fill-rule="evenodd" clip-rule="evenodd" d="M25.3333 5.33341H19.76C19.2 3.78675 17.7333 2.66675 16 2.66675C14.2667 2.66675 12.8 3.78675 12.24 5.33341H6.66667C5.2 5.33341 4 6.53341 4 8.00008V26.6667C4 28.1334 5.2 29.3334 6.66667 29.3334H25.3333C26.8 29.3334 28 28.1334 28 26.6667V8.00008C28 6.53341 26.8 5.33341 25.3333 5.33341ZM16 5.33341C16.7333 5.33341 17.3333 5.93341 17.3333 6.66675C17.3333 7.40008 16.7333 8.00008 16 8.00008C15.2667 8.00008 14.6667 7.40008 14.6667 6.66675C14.6667 5.93341 15.2667 5.33341 16 5.33341ZM16 10.6667C18.2133 10.6667 20 12.4534 20 14.6667C20 16.8801 18.2133 18.6667 16 18.6667C13.7867 18.6667 12 16.8801 12 14.6667C12 12.4534 13.7867 10.6667 16 10.6667ZM24 26.6667H8V24.8001C8 22.1334 13.3333 20.6667 16 20.6667C18.6667 20.6667 24 22.1334 24 24.8001V26.6667Z" fill="#73655F"/>
</svg>
