<?xml version="1.0" encoding="UTF-8" standalone="no"?>
<svg
   xmlns:dc="http://purl.org/dc/elements/1.1/"
   xmlns:cc="http://creativecommons.org/ns#"
   xmlns:rdf="http://www.w3.org/1999/02/22-rdf-syntax-ns#"
   xmlns:svg="http://www.w3.org/2000/svg"
   xmlns="http://www.w3.org/2000/svg"
   xmlns:sodipodi="http://sodipodi.sourceforge.net/DTD/sodipodi-0.dtd"
   xmlns:inkscape="http://www.inkscape.org/namespaces/inkscape"
   version="1.1"
   id="Laag_1"
   x="0px"
   y="0px"
   width="512px"
   height="512px"
   viewBox="-238.5 -240 512 512"
   enable-background="new -238.5 -240 512 512"
   xml:space="preserve"
   inkscape:version="0.91 r13725"
   sodipodi:docname="bell.svg"><metadata
     id="metadata9"><rdf:RDF><cc:Work
         rdf:about=""><dc:format>image/svg+xml</dc:format><dc:type
           rdf:resource="http://purl.org/dc/dcmitype/StillImage" /></cc:Work></rdf:RDF></metadata><defs
     id="defs7" /><sodipodi:namedview
     pagecolor="#ffffff"
     bordercolor="#666666"
     borderopacity="1"
     objecttolerance="10"
     gridtolerance="10"
     guidetolerance="10"
     inkscape:pageopacity="0"
     inkscape:pageshadow="2"
     inkscape:window-width="1920"
     inkscape:window-height="1027"
     id="namedview5"
     showgrid="false"
     inkscape:zoom="0.4609375"
     inkscape:cx="256"
     inkscape:cy="256"
     inkscape:window-x="-8"
     inkscape:window-y="-8"
     inkscape:window-maximized="1"
     inkscape:current-layer="Laag_1" /><path
     d="m 17.5,-210.752 c -14,0 -25.36,11.392 -25.36,25.392 0,0.912 0.224,1.824 0.224,2.688 -51.36,10.848 -96.368,54.224 -106.096,116.4 l -27.36,149.088 c -33.072,19.04 -56.88,76.496 -64.016,113.904 l 176.624,0 c 0,25.44 20.592,46.032 45.984,46.032 25.424,0 46.016,-20.608 46.016,-46.032 l 176.592,0 C 233.02,159.28 209.212,101.84 176.076,82.816 L 148.732,-66.272 c -9.744,-62.176 -54.784,-105.568 -106.144,-116.4 0.096,-0.864 0.304,-1.776 0.304,-2.688 0.032,-14 -11.392,-25.392 -25.392,-25.392 l 0,0 0,0 z"
     id="path3"
     inkscape:connector-curvature="0" /></svg>