<?xml version="1.0" encoding="UTF-8" standalone="no"?>
<!-- Generator: Adobe Illustrator 16.2.1, SVG Export Plug-In . SVG Version: 6.00 Build 0)  -->

<svg
   xmlns:dc="http://purl.org/dc/elements/1.1/"
   xmlns:cc="http://creativecommons.org/ns#"
   xmlns:rdf="http://www.w3.org/1999/02/22-rdf-syntax-ns#"
   xmlns:svg="http://www.w3.org/2000/svg"
   xmlns="http://www.w3.org/2000/svg"
   xmlns:sodipodi="http://sodipodi.sourceforge.net/DTD/sodipodi-0.dtd"
   xmlns:inkscape="http://www.inkscape.org/namespaces/inkscape"
   version="1.1"
   id="Laag_1"
   x="0px"
   y="0px"
   width="512px"
   height="512px"
   viewBox="-238.5 -240 512 512"
   enable-background="new -238.5 -240 512 512"
   xml:space="preserve"
   inkscape:version="0.91 r13725"
   sodipodi:docname="bell-outline.svg"><metadata
     id="metadata9"><rdf:RDF><cc:Work
         rdf:about=""><dc:format>image/svg+xml</dc:format><dc:type
           rdf:resource="http://purl.org/dc/dcmitype/StillImage" /></cc:Work></rdf:RDF></metadata><defs
     id="defs7" /><sodipodi:namedview
     pagecolor="#ffffff"
     bordercolor="#666666"
     borderopacity="1"
     objecttolerance="10"
     gridtolerance="10"
     guidetolerance="10"
     inkscape:pageopacity="0"
     inkscape:pageshadow="2"
     inkscape:window-width="1920"
     inkscape:window-height="1027"
     id="namedview5"
     showgrid="false"
     inkscape:zoom="0.4609375"
     inkscape:cx="256"
     inkscape:cy="256"
     inkscape:window-x="-8"
     inkscape:window-y="-8"
     inkscape:window-maximized="1"
     inkscape:current-layer="Laag_1" /><path
     d="m 37.9115,-160.865 c 46.096,9.744 80.912,48.224 88.816,98.656 l 27.376,149.104 1.808,10.128 8.944,5.104 c 18.528,10.656 36.064,41.776 46.272,72.352 l -387.488,0 c 10.304,-30.56 27.824,-61.728 46.256,-72.352 l 8.912,-5.104 1.872,-10.128 27.472,-149.728 c 7.792,-49.824 42.56,-88.304 88.64,-98.032 0.016,0 28.768,-3.6 41.12,0 l 0,0 z m -20.528,-49.888 c -14,0 -25.392,11.392 -25.392,25.392 0,0.912 0.272,1.824 0.272,2.688 -51.36,10.816 -96.384,54.224 -106.096,116.4 l -27.376,149.088 c -33.072,19.04 -56.88,76.496 -64,113.904 l 176.576,0 c 0,25.44 20.608,46.032 46.032,46.032 25.376,0 46.032,-20.608 46.032,-46.032 l 176.56,0 c -7.056,-37.44 -30.928,-94.88 -64.048,-113.904 l -27.36,-149.088 c -9.744,-62.176 -54.736,-105.568 -106.144,-116.4 0.128,-0.864 0.304,-1.776 0.304,-2.688 0.048,-14 -11.392,-25.392 -25.36,-25.392 l 0,0 z"
     id="path3"
     inkscape:connector-curvature="0" /></svg>