<?xml version="1.0" encoding="utf-8"?>
<!-- Generator: Adobe Illustrator 22.1.0, SVG Export Plug-In . SVG Version: 6.00 Build 0)  -->
<svg version="1.1" id="Layer_1" xmlns="http://www.w3.org/2000/svg" xmlns:xlink="http://www.w3.org/1999/xlink" x="0px" y="0px"
	 viewBox="0 0 82 83" fill="#f05031" style="enable-background:new 0 0 82 83;" xml:space="preserve">
<g>
	<path d="M-0.5,41.6c0-22.8,18.5-41.4,41.4-41.4c22.8,0,41.4,18.5,41.4,41.4C82.2,64.5,63.7,83,40.9,83C18.1,83-0.5,64.5-0.5,41.6z
		 M44.7,21.6c-1.1-1.1-2.7-1.1-3.8,0c-1.1,1.1-1.1,2.7,0,3.8l13.8,13.9H19.5c-1.5,0-2.6,1.2-2.6,2.6s1.2,2.7,2.6,2.7h35.2L40.9,58.6
		c-1.1,1.1-1.1,2.8,0,3.8c0.5,0.6,1.2,0.8,1.9,0.8c0.7,0,1.3-0.2,1.9-0.8L63.1,44c0.6-0.6,0.7-1.3,0.7-2c0-0.7-0.2-1.5-0.7-2.1
		L44.7,21.6z"/>
</g>
</svg>
