<?xml version="1.0" encoding="UTF-8" standalone="no"?>
<!-- Generated by IcoMoon.io -->

<svg
   xmlns:dc="http://purl.org/dc/elements/1.1/"
   xmlns:cc="http://creativecommons.org/ns#"
   xmlns:rdf="http://www.w3.org/1999/02/22-rdf-syntax-ns#"
   xmlns:svg="http://www.w3.org/2000/svg"
   xmlns="http://www.w3.org/2000/svg"
   xmlns:sodipodi="http://sodipodi.sourceforge.net/DTD/sodipodi-0.dtd"
   xmlns:inkscape="http://www.inkscape.org/namespaces/inkscape"
   version="1.1"
   width="512"
   height="512"
   viewBox="0 0 512 512"
   id="svg2"
   inkscape:version="0.91 r13725"
   sodipodi:docname="camera.svg">
  <metadata
     id="metadata11">
    <rdf:RDF>
      <cc:Work
         rdf:about="">
        <dc:format>image/svg+xml</dc:format>
        <dc:type
           rdf:resource="http://purl.org/dc/dcmitype/StillImage" />
        <dc:title></dc:title>
      </cc:Work>
    </rdf:RDF>
  </metadata>
  <defs
     id="defs9" />
  <sodipodi:namedview
     pagecolor="#ffffff"
     bordercolor="#666666"
     borderopacity="1"
     objecttolerance="10"
     gridtolerance="10"
     guidetolerance="10"
     inkscape:pageopacity="0"
     inkscape:pageshadow="2"
     inkscape:window-width="1920"
     inkscape:window-height="1027"
     id="namedview7"
     showgrid="false"
     inkscape:zoom="0.921875"
     inkscape:cx="581.04961"
     inkscape:cy="360.10272"
     inkscape:window-x="-8"
     inkscape:window-y="-8"
     inkscape:window-maximized="1"
     inkscape:current-layer="svg2" />
  <g
     id="icomoon-ignore"
     transform="translate(0,-512)" />
  <path
     d="m 255.99977,214.33314 q 30.98958,0 52.99492,22.00534 22.00533,22.00533 22.00533,52.99491 0,30.98958 -22.00533,52.99492 -22.00534,22.00533 -52.99492,22.00533 -30.98958,0 -52.99491,-22.00533 -22.00534,-22.00534 -22.00534,-52.99492 0,-30.98958 22.00534,-52.99491 22.00533,-22.00534 52.99491,-22.00534 z M 439.33321,105.99995 q 27.60397,0 47.13561,19.53119 19.53164,19.53118 19.53118,47.1356 l 0,233.3333 q 0,27.60397 -19.53118,47.13561 -19.53118,19.53164 -47.13561,19.53118 l -366.666422,0 q -27.603968,0 -47.135606,-19.53118 Q 5.9995443,433.60447 6,406.00004 l 0,-233.3333 q 0,-27.60397 19.531182,-47.1356 19.531183,-19.53164 47.135606,-19.53119 l 58.333322,0 13.28132,-35.416527 q 4.94785,-12.760415 18.09882,-22.005336 13.15098,-9.244921 26.95319,-9.244921 l 133.33312,0 q 13.80221,0 26.95319,9.244921 13.15097,9.244921 18.09882,22.005336 l 13.28132,35.416527 58.33332,0 z M 255.99977,405.99959 q 48.17695,0 82.4218,-34.24486 34.24485,-34.24485 34.24485,-82.4218 0,-48.17694 -34.24485,-82.42179 -34.24485,-34.24486 -82.4218,-34.24486 -48.17694,0 -82.4218,34.24486 -34.24485,34.24485 -34.24485,82.42179 0,48.17695 34.24485,82.4218 34.24486,34.24486 82.4218,34.24486 z"
     id="path5"
     inkscape:connector-curvature="0" />
</svg>
