<svg width="28" height="28" viewBox="0 0 28 28" fill="none" xmlns="http://www.w3.org/2000/svg">
   <path fill-rule="evenodd" clip-rule="evenodd" d="M2.3335 13.9999C2.3335 7.55992 7.5485 2.33325 13.9885 2.33325C20.4402 2.33325 25.6668 7.55992 25.6668 13.9999C25.6668 20.4399 20.4402 25.6666 13.9885 25.6666C7.5485 25.6666 2.3335 20.4399 2.3335 13.9999ZM4.66683 13.9999C4.66683 19.1566 8.8435 23.3333 14.0002 23.3333C19.1568 23.3333 23.3335 19.1566 23.3335 13.9999C23.3335 8.84325 19.1568 4.66659 14.0002 4.66659C8.8435 4.66659 4.66683 8.84325 4.66683 13.9999ZM12.8335 8.16658H14.5835V14.2916L19.8335 17.4066L18.9585 18.8416L12.8335 15.1666V8.16658Z" fill="#73655F"/>
</svg>
