<?xml version="1.0" encoding="UTF-8" standalone="no"?>
<!-- Generated by IcoMoon.io -->

<svg
   xmlns:dc="http://purl.org/dc/elements/1.1/"
   xmlns:cc="http://creativecommons.org/ns#"
   xmlns:rdf="http://www.w3.org/1999/02/22-rdf-syntax-ns#"
   xmlns:svg="http://www.w3.org/2000/svg"
   xmlns="http://www.w3.org/2000/svg"
   xmlns:sodipodi="http://sodipodi.sourceforge.net/DTD/sodipodi-0.dtd"
   xmlns:inkscape="http://www.inkscape.org/namespaces/inkscape"
   version="1.1"
   width="512"
   height="512"
   viewBox="0 0 512 512"
   id="svg2"
   inkscape:version="0.91 r13725"
   sodipodi:docname="time-normal.svg">
  <metadata
     id="metadata12">
    <rdf:RDF>
      <cc:Work
         rdf:about="">
        <dc:format>image/svg+xml</dc:format>
        <dc:type
           rdf:resource="http://purl.org/dc/dcmitype/StillImage" />
        <dc:title></dc:title>
      </cc:Work>
    </rdf:RDF>
  </metadata>
  <defs
     id="defs10" />
  <sodipodi:namedview
     pagecolor="#ffffff"
     bordercolor="#666666"
     borderopacity="1"
     objecttolerance="10"
     gridtolerance="10"
     guidetolerance="10"
     inkscape:pageopacity="0"
     inkscape:pageshadow="2"
     inkscape:window-width="1920"
     inkscape:window-height="1027"
     id="namedview8"
     showgrid="false"
     inkscape:zoom="1.3037281"
     inkscape:cx="256.90235"
     inkscape:cy="218.64675"
     inkscape:window-x="-8"
     inkscape:window-y="-8"
     inkscape:window-maximized="1"
     inkscape:current-layer="svg2" />
  <g
     id="g3340"
     transform="matrix(15.2,0,0,15.2,-8.3432,-7283.1924)">
    <path
       inkscape:connector-curvature="0"
       id="path4"
       d="m 17.391,483.061 c 7.133,0 12.938,5.805 12.938,12.941 0,7.133 -5.805,12.938 -12.938,12.938 -7.136,0 -12.938,-5.805 -12.938,-12.938 0,-7.136 5.802,-12.941 12.938,-12.941 z m 0,-2.783 c -8.685,0 -15.72,7.039 -15.72,15.723 0,8.684 7.036,15.72 15.72,15.72 8.682,0 15.72,-7.036 15.72,-15.72 0,-8.684 -7.039,-15.723 -15.72,-15.723 l 0,0 z" />
    <path
       inkscape:connector-curvature="0"
       id="path6"
       d="m 18.771,497.393 -9.32,0 0,-2.783 6.557,0 0.057,-9.197 2.78,0.017 z" />
  </g>
</svg>
