<?xml version="1.0" encoding="UTF-8" standalone="no"?>
<!-- Generated by IcoMoon.io -->

<svg
   xmlns:dc="http://purl.org/dc/elements/1.1/"
   xmlns:cc="http://creativecommons.org/ns#"
   xmlns:rdf="http://www.w3.org/1999/02/22-rdf-syntax-ns#"
   xmlns:svg="http://www.w3.org/2000/svg"
   xmlns="http://www.w3.org/2000/svg"
   xmlns:sodipodi="http://sodipodi.sourceforge.net/DTD/sodipodi-0.dtd"
   xmlns:inkscape="http://www.inkscape.org/namespaces/inkscape"
   version="1.1"
   width="512"
   height="512"
   viewBox="0 0 512 512"
   id="svg2"
   inkscape:version="0.91 r13725"
   sodipodi:docname="comment-alt.svg">
  <metadata
     id="metadata11">
    <rdf:RDF>
      <cc:Work
         rdf:about="">
        <dc:format>image/svg+xml</dc:format>
        <dc:type
           rdf:resource="http://purl.org/dc/dcmitype/StillImage" />
        <dc:title></dc:title>
      </cc:Work>
    </rdf:RDF>
  </metadata>
  <defs
     id="defs9" />
  <sodipodi:namedview
     pagecolor="#ffffff"
     bordercolor="#666666"
     borderopacity="1"
     objecttolerance="10"
     gridtolerance="10"
     guidetolerance="10"
     inkscape:pageopacity="0"
     inkscape:pageshadow="2"
     inkscape:window-width="1920"
     inkscape:window-height="1027"
     id="namedview7"
     showgrid="false"
     inkscape:zoom="0.23046875"
     inkscape:cx="512"
     inkscape:cy="512"
     inkscape:window-x="-8"
     inkscape:window-y="-8"
     inkscape:window-maximized="1"
     inkscape:current-layer="svg2" />
  <g
     id="icomoon-ignore"
     transform="translate(0,-512)" />
  <path
     d="m 506,220.24229 q 0,48.54922 -33.48187,89.70392 -33.48187,41.15471 -90.95978,65.01111 -57.47792,23.8564 -125.55786,23.85591 -19.53121,0 -40.45744,-2.23193 -55.2455,48.82803 -128.347896,67.52233 -13.671848,3.90624 -31.808043,6.13817 -4.743155,0.5581 -8.510238,-2.51123 -3.767082,-3.06933 -4.882803,-8.09129 l 0,-0.27881 q -0.836912,-1.11621 -0.139648,-3.34813 0.697264,-2.23193 0.558105,-2.79004 -0.13916,-0.5581 1.255368,-2.65087 l 1.674313,-2.51123 q 0,0 1.953121,-2.37157 1.953122,-2.37158 2.23193,-2.51123 1.953121,-2.23193 8.649397,-9.62596 6.696276,-7.39403 9.625958,-10.60252 2.929681,-3.20849 8.649397,-11.02097 5.719715,-7.81249 9.067853,-14.22995 3.348138,-6.41747 7.533677,-16.46189 Q 97.23908,371.1917 100.30792,360.03059 56.502343,335.19812 31.250927,298.64692 5.9995117,262.09572 6,220.24326 6,183.97087 25.81002,150.90746 45.62004,117.84405 79.102396,93.848494 112.58475,69.852934 158.90156,55.762633 q 46.3168,-14.090304 97.09795,-14.090304 68.08044,0 125.55786,23.855905 57.47743,23.85592 90.95979,65.011106 33.48235,41.15519 33.48186,89.70392 z"
     id="path5"
     inkscape:connector-curvature="0" />
</svg>
