<?xml version="1.0" encoding="utf-8"?>
<!-- Generator: Adobe Illustrator 16.2.1, SVG Export Plug-In . SVG Version: 6.00 Build 0)  -->
<!DOCTYPE svg PUBLIC "-//W3C//DTD SVG 1.1//EN" "http://www.w3.org/Graphics/SVG/1.1/DTD/svg11.dtd">
<svg version="1.1" id="Layer_1" xmlns="http://www.w3.org/2000/svg" xmlns:xlink="http://www.w3.org/1999/xlink" x="0px" y="0px"
	 width="659px" height="660px" viewBox="0 0 659 660" enable-background="new 0 0 659 660" xml:space="preserve">
<g>
	<path fill-rule="evenodd" clip-rule="evenodd" fill="#2E9C91" d="M169.025,110.299c2.905,1.767,5.628,2.977,7.809,4.825
		c10.165,8.612,20.13,17.461,30.267,26.107c5.931,5.059,8.816,5.041,14.547,1.358c16.758-10.771,35.003-18.472,54.21-23.668
		c5.229-1.415,6.949-4.178,7.029-9.132c0.214-13.149,0.631-26.296,0.956-39.443c0.189-7.669,1.393-8.848,9.126-8.848
		c24.996-0.001,49.992-0.008,74.987,0.005c6.227,0.003,6.68,0.66,6.93,6.854c0.558,13.804,1.299,27.601,1.978,41.399
		c0.193,3.924,1.896,6.344,6.041,7.312c21.386,4.989,41.409,13.375,60.269,24.606c6.356,3.786,6.89,3.683,12.556-1.426
		c8.533-7.694,17.007-15.456,25.52-23.174c6.131-5.56,10.062-5.552,15.82,0.338c15.952,16.315,31.858,32.676,47.72,49.081
		c5.613,5.807,5.678,9.32,0.354,15.488c-8.595,9.958-17.193,19.918-26.024,29.665c-2.202,2.43-2.475,4.396-0.936,7.053
		c10.67,18.426,17.991,38.131,23.075,58.787c0.594,2.409,4.409,5.428,7,5.712c15.368,1.682,30.808,2.754,46.239,3.771
		c4.407,0.291,6.51,1.437,6.46,6.462c-0.236,24.161-0.098,48.325-0.111,72.487c-0.004,7.351-2.687,10.203-10.04,10.683
		c-15.444,1.007-30.886,2.082-46.34,2.904c-3.948,0.21-6.053,1.831-7.127,5.555c-5.386,18.662-13.375,36.177-23.79,52.554
		c-2.16,3.396-1.958,5.874,0.766,8.805c10.881,11.711,21.544,23.623,32.407,35.351c6.161,6.65,6.239,11.571-0.202,18.025
		c-15.771,15.799-31.557,31.581-47.353,47.354c-5.753,5.745-9.648,6.246-16.114,0.982c-13.688-11.142-27.239-22.462-40.55-34.049
		c-3.585-3.12-6.37-2.76-10.311-1.147c-14.742,6.03-29.558,11.9-44.503,17.399c-7.098,2.611-8.257,3.623-8.71,11.295
		c-1.059,17.945-2.211,35.886-3.413,53.823c-0.379,5.657-1.884,7.025-7.448,7.032c-24.662,0.031-49.325,0.04-73.987-0.005
		c-6.328-0.012-8.8-2.119-9.308-8.399c-1.396-17.25-2.689-34.51-3.814-51.779c-0.667-10.235-1.366-10.752-11.061-14.402
		c-12.421-4.678-24.68-9.844-36.769-15.327c-8.428-3.823-9.719-3.959-16.885,1.996c-13.449,11.179-26.964,22.278-40.5,33.353
		c-5.873,4.806-9.254,4.583-14.671-0.908c-16.146-16.365-32.261-32.762-48.367-49.166c-4.321-4.4-4.567-7.948-0.153-13.146
		c9.702-11.424,19.498-22.777,29.558-33.887c12.413-13.706,9.21-13.325,3.207-25.36c-5.697-11.421-10.711-23.256-15.014-35.271
		c-2.483-6.935-6.826-10.025-13.458-10.504c-16.765-1.211-33.542-2.319-50.332-3.08c-4.748-0.215-6.603-1.938-6.592-6.531
		c0.06-24.996-0.001-49.992,0.053-74.988c0.011-5.239,2.229-7.181,7.729-7.601c15.434-1.179,30.87-2.347,46.289-3.698
		c6.656-0.583,9.936-4.367,12.036-10.587c4.831-14.306,10.201-28.431,15.393-42.614c0.798-2.18,1.87-4.257,2.719-6.42
		c1.612-4.101,0.853-7.533-2.196-10.947c-10.206-11.428-20.179-23.065-30.21-34.649c-4.586-5.295-4.585-8.31,0.372-13.362
		c16.569-16.888,33.187-33.729,49.901-50.473C163.816,112.968,166.341,111.971,169.025,110.299z M333.031,164.289
		c-87.621-0.004-158.947,70.705-158.806,158.326c0.146,90.661,72.96,157.191,155.203,159.022
		c86.391,1.924,162.213-66.838,162.335-158.902C491.88,234.974,420.635,164.294,333.031,164.289z"/>
	<path fill-rule="evenodd" clip-rule="evenodd" fill="#2E9C91" d="M432.896,291.2c-14.187,4.075-28.365,8.164-42.555,12.212
		c-3.994,1.14-8.577,3.832-11.87,2.74c-2.988-0.992-4.588-6.166-6.803-9.494c-10.729-16.122-30.662-23.957-49.285-19.376
		c-19.501,4.798-33.333,20.293-35.522,39.794c-2.402,21.398,9.458,41.185,29.296,48.876c19.824,7.687,42.113,1.165,54.599-16.328
		c2.183-3.058,4.008-3.409,7.394-2.497c17.483,4.713,35.045,9.138,53.195,13.822c-5.958,16.412-15.449,29.979-28.184,41.256
		c-21.153,18.733-45.947,27.326-74.22,26.68c-51.8-1.185-96.714-43.546-100.872-95.51c-4.474-55.924,33.114-104.79,88.155-113.587
		C372.348,210.817,419.217,246.548,432.896,291.2z"/>
</g>
<path fill="none" enable-background="new    " d="z"/>
</svg>
