<?xml version="1.0" encoding="UTF-8" standalone="no"?>
<!-- Generated by IcoMoon.io -->

<svg
   xmlns:dc="http://purl.org/dc/elements/1.1/"
   xmlns:cc="http://creativecommons.org/ns#"
   xmlns:rdf="http://www.w3.org/1999/02/22-rdf-syntax-ns#"
   xmlns:svg="http://www.w3.org/2000/svg"
   xmlns="http://www.w3.org/2000/svg"
   xmlns:sodipodi="http://sodipodi.sourceforge.net/DTD/sodipodi-0.dtd"
   xmlns:inkscape="http://www.inkscape.org/namespaces/inkscape"
   version="1.1"
   width="512"
   height="512"
   viewBox="0 0 512 512"
   id="svg2"
   inkscape:version="0.91 r13725"
   sodipodi:docname="facebook.svg">
  <metadata
     id="metadata10">
    <rdf:RDF>
      <cc:Work
         rdf:about="">
        <dc:format>image/svg+xml</dc:format>
        <dc:type
           rdf:resource="http://purl.org/dc/dcmitype/StillImage" />
        <dc:title />
      </cc:Work>
    </rdf:RDF>
  </metadata>
  <defs
     id="defs8" />
  <sodipodi:namedview
     pagecolor="#ffffff"
     bordercolor="#666666"
     borderopacity="1"
     objecttolerance="10"
     gridtolerance="10"
     guidetolerance="10"
     inkscape:pageopacity="0"
     inkscape:pageshadow="2"
     inkscape:window-width="1920"
     inkscape:window-height="1027"
     id="namedview6"
     showgrid="false"
     inkscape:zoom="1.3037281"
     inkscape:cx="63.739377"
     inkscape:cy="232.0056"
     inkscape:window-x="-8"
     inkscape:window-y="1072"
     inkscape:window-maximized="1"
     inkscape:current-layer="svg2" />
  <path
     d="m 469.56618,15.952027 -427.132421,0 C 27.87279,15.952027 16,27.824817 16,42.481792 l 0,427.068418 c 0,14.59297 11.87279,26.49776 26.433759,26.49776 l 233.583541,0 0,-186.79643 -66.66043,0 0,-66.66044 66.69243,0 0,-61.47609 c 0,-62.02012 36.61044,-98.566551 91.91012,-98.566551 26.49776,0 48.0992,2.816187 54.75564,3.744249 l 0,69.604632 -44.57896,0 c -30.05,0 -35.71438,14.91299 -35.71438,35.93839 l 0,50.78738 77.06113,0 -10.84872,66.59643 -66.21241,0 0,186.79643 127.08046,0 c 14.59297,0 26.49776,-11.87279 26.49776,-26.49777 l 0,-427.036408 c 0.032,-14.688977 -11.84079,-26.529765 -26.43376,-26.529765 z"
     id="path4"
     inkscape:connector-curvature="0" />
</svg>
