<?xml version="1.0" encoding="utf-8"?>
<!-- Generator: Adobe Illustrator 16.0.0, SVG Export Plug-In . SVG Version: 6.00 Build 0)  -->
<!DOCTYPE svg PUBLIC "-//W3C//DTD SVG 1.1//EN" "http://www.w3.org/Graphics/SVG/1.1/DTD/svg11.dtd">
<svg version="1.1" id="Layer_1" xmlns="http://www.w3.org/2000/svg" xmlns:xlink="http://www.w3.org/1999/xlink" x="0px" y="0px"
	 width="1014.931px" height="94.21px" viewBox="0 0 1014.931 94.21" enable-background="new 0 0 1014.931 94.21"
	 xml:space="preserve">
<g>
	<path fill="#231F20" d="M0.192,66.767l4.572-1.168c2.339-0.684,2.631-0.586,2.631-1.943V16.154c0-1.357-0.393-1.357-2.532-1.943
		L0,13.041V9.736h36.403c4.076,0,8.464-0.494,10.308-1.074l1.762,19.367h-2.629c-0.977-4.568-3.508-9.344-5.556-11.775
		c-2.134-1.652-7.49-3.018-12.255-3.018h-1.167c-1.569,0-3.514,0.389-5.158,0.877v22.965h9.624c2.049-1.551,4.483-5.936,4.876-8.951
		h2.425v23.656h-2.425c-0.791-3.213-2.921-8.474-4.876-10.22h-9.624v21.021c0,1.943,0.479,2.041,2.241,2.43l7.58,1.561v3.5H0.192
		V66.767z"/>
	<path fill="#231F20" d="M52.027,66.767l4.575-1.168c2.336-0.684,2.636-0.586,2.636-1.943V16.254c0-1.359-0.399-1.559-2.545-2.141
		l-4.666-1.17V9.736h30.27c18.884,0,33.387,10.994,33.387,29.684c0,15.667-11.39,30.654-30.569,30.654H52.027V66.767z
		 M81.914,66.859c11.481,0,18.882-9.729,18.882-27.054c0-12.166-4.286-27.053-19.767-27.053h-1.451
		c-1.958,0-4.583,0.484-6.042,1.264v51.777c1.66,0.582,4.274,1.066,7.302,1.066H81.914z"/>
	<path fill="#231F20" d="M137.972,66.767l4.565-1.168c2.335-0.684,2.634-0.586,2.634-1.943V16.154c0-1.357-0.389-1.357-2.535-1.943
		l-4.664-1.17V9.736h30.066c11.292,0,22.772,4.18,22.772,16.441c0,11.195-7.293,20.051-21.797,20.051
		c-3.99,0-6.716-0.189-9.535-0.676v17.615c0,1.648,0.39,2.041,1.848,2.232l7.392,1.074v3.6h-30.746V66.767z M161.129,42.922
		c11.972,0,15.382-6.232,15.382-16.453c0-7.492-3.016-13.33-11.976-13.33h-0.577c-1.853,0-3.417,0.387-4.479,0.686v29.098H161.129z"
		/>
	<path fill="#231F20" d="M191.851,47.687c-0.196-15.083,9.552-24.425,22.588-24.425c9.632,0,18.491,4.768,18.491,15.275
		c0,1.754-0.287,4.186-0.689,5.941l-27.05-0.682c0,0.586,0,1.068,0,1.658c0.387,10.119,5.359,17.226,14.415,17.226
		c5.433,0,8.948-1.658,11.768-4.676l0.971,0.977c-3.02,6.324-8.565,12.262-19.073,12.262
		C200.521,71.244,192.05,62.392,191.851,47.687z M220.174,39.42c0.399-1.365,0.591-2.533,0.591-4.189
		c0-5.744-2.242-8.277-6.232-8.277c-5.45,0-8.563,5.65-9.243,13.438L220.174,39.42z"/>
	<path fill="#231F20" d="M236.19,67.158l2.327-0.684c2.537-0.875,3.115-1.074,3.115-2.334V34.455c0-2.336-0.87-2.826-3.497-4.184
		l-1.856-0.977v-2.727l15.875-3.307h2.917v10.32c1.746-4.77,6.424-10.32,11.094-10.32c2.43,0,5.361,1.072,5.361,6.033
		c0,4.479-4.001,8.367-4.001,8.367c-1.557-2.52-3.603-3.592-6.62-3.592c-2.43,0-4.966,0.875-5.834,2.133v27.062
		c0,1.359-0.098,1.943,2.627,2.623l5.653,1.27v2.916h-27.16V67.158z"/>
	<path fill="#231F20" d="M273.033,54.314h3.315c0.867,3.209,3.207,8.752,4.475,10.502c2.337,2.242,4.956,3.113,6.616,3.113
		c4.473,0,8.08-2.916,8.08-7.293c0-4.771-3.793-6.322-5.647-7.105l-6.809-2.918c-4.581-2.043-9.253-5.841-9.253-13.14
		c0-9.443,8.949-14.211,18.784-14.211c4.285,0,7.981,0.877,10.129,2.242l1.646-2.242h2.348v14.4h-3.218
		c-0.499-3.889-1.663-6.322-2.436-8.076c-1.357-1.656-4.283-3.408-7.211-3.408c-3.788,0-7.384,2.336-7.384,6.523
		c0,4.279,1.749,6.23,5.056,7.59l5.355,2.047c4.573,1.943,11.776,5.835,11.776,14.21c0,10.311-7.883,14.695-19.86,14.695
		c-4.765,0-9.14-0.971-11.378-2.242l-1.667,2.242h-2.228L273.033,54.314z"/>
	<path fill="#231F20" d="M312.153,47.205c0-13.234,8.951-23.943,24.143-23.943c15.178,0,24.04,9.834,24.04,23.846
		c0,13.232-8.862,24.136-24.04,24.136C321.104,71.244,312.153,61.41,312.153,47.205z M345.738,47.012
		c0-12.557-3.119-19.859-9.442-19.859c-5.345,0-9.439,5.361-9.439,19.955c0,12.357,3.106,20.537,9.439,20.537
		C341.546,67.644,345.738,61.609,345.738,47.012z"/>
	<path fill="#231F20" d="M363.699,47.205c0-13.234,8.952-23.943,24.146-23.943c15.175,0,24.034,9.834,24.034,23.846
		c0,13.232-8.859,24.136-24.034,24.136C372.65,71.244,363.699,61.41,363.699,47.205z M397.276,47.012
		c0-12.557-3.118-19.859-9.432-19.859c-5.355,0-9.441,5.361-9.441,19.955c0,12.357,3.106,20.537,9.441,20.537
		C393.088,67.644,397.276,61.609,397.276,47.012z"/>
	<path fill="#231F20" d="M414.3,67.158l2.339-0.684c2.523-0.875,3.113-1.074,3.113-2.334V34.455c0-2.336-0.877-2.826-3.506-4.184
		l-1.85-0.977v-2.727l15.866-3.307h2.93v9.635c2.717-5.061,7.19-9.635,14.984-9.635c9.82,0,14.405,7.107,14.405,16.348V64.14
		c0,1.26,0.38,1.459,3.006,2.334l2.34,0.684v2.916h-23.94v-2.916l2.241-0.684c2.816-0.975,3.115-1.074,3.115-2.334V41.074
		c0-5.07-0.878-10.803-7.4-10.803c-4.278,0-7.394,3.215-8.751,5.834V64.14c0,1.26,0.467,1.459,3.006,2.334l2.336,0.684v2.916H414.3
		V67.158z"/>
	<path fill="#231F20" d="M471.058,67.158l2.34-0.684c2.723-0.975,3.117-1.074,3.117-2.334V12.166c0-1.855-0.394-2.727-2.638-3.6
		l-3.017-1.271V4.574l16.938-3.314h2.921c-0.298,2.047-0.782,9.051-0.782,14.707V64.14c0,1.26,0.582,1.459,3.028,2.334l2.332,0.684
		v2.916h-24.239V67.158z"/>
	<path fill="#231F20" d="M498.56,67.158l2.236-0.684c2.631-0.875,3.117-1.074,3.117-2.334V34.455c0-2.336-0.875-2.826-3.502-4.184
		l-1.75-0.977v-2.727l15.853-3.307h2.93V64.14c0,1.26,0.486,1.459,3.016,2.334l2.24,0.684v2.916H498.56V67.158z M503.229,6.908
		c0-3.791,3.605-6.908,7.79-6.908c4.182,0,7.59,3.117,7.59,6.908c0,3.801-3.408,6.818-7.59,6.818
		C506.834,13.727,503.229,10.709,503.229,6.908z"/>
	<path fill="#231F20" d="M511.154,86.619c0-3.5,2.228-6.125,5.834-6.125c5.543,0,6.522,5.834,4.764,9.727
		c3.598-0.484,6.913-3.209,6.913-13.238V34.744c0-2.432-0.68-3.016-3.499-4.473l-1.857-0.977v-2.727l15.866-3.307h2.917v48.371
		c0,13.627-8.559,21.992-22.387,21.992C515.718,93.625,511.154,91.205,511.154,86.619z M527.886,6.908
		c0-3.791,3.605-6.908,7.69-6.908c4.184,0,7.593,3.117,7.593,6.908c0,3.801-3.409,6.818-7.593,6.818
		C531.492,13.727,527.886,10.709,527.886,6.908z"/>
	<path fill="#231F20" d="M548.242,67.158l2.236-0.684c2.737-0.975,3.118-1.074,3.118-2.334V12.166c0-1.855-0.381-2.727-2.627-3.6
		l-3.015-1.271V4.574l16.938-3.314h2.917c-0.294,2.047-0.786,9.051-0.786,14.707V63.75c0,1.75,0.59,1.75,2.639,2.533l1.938,0.576
		v3.215h-23.357V67.158z M577.537,61.125l-6.91-12.17c-0.285-0.484-1.359-1.847-1.847-2.341c-0.479-0.482-0.771-0.674-1.265-0.873
		v-1.062c1.752-0.396,3.211-1.271,4.771-2.24l10.122-10.318c1.258-1.367,0.776-2.141-1.46-2.824l-3.888-1.072v-2.529h21.117v2.529
		l-3.113,0.779c-1.759,0.484-3.804,2.045-4.771,2.824l-10.513,8.465l8.661,14.988c3.793,7.014,6.719,9.445,9.342,11.488l2.621,0.775
		v2.531h-16.248C582.601,68.615,580.076,65.5,577.537,61.125z"/>
	<path fill="#E57C30" d="M620.781,66.474l6.135-0.975c1.654-0.291,2.236-0.486,2.438-2.041c0.291-2.236,0.576-5.936,0.576-9.928
		V16.936c0-1.65-0.679-1.75-2.625-2.24l-4.862-1.359v-3.6h21.019l19.371,39.32l21.312-39.32h18.684v3.6l-4.965,1.359
		c-1.258,0.291-1.844,0.59-1.844,1.658v47.302c0,1.357,0.295,1.357,2.525,1.943l4.678,1.168v3.307h-28.615v-3.307l4.285-1.168
		c2.236-0.586,2.623-0.586,2.623-1.943V27.738l-23.26,42.238h-0.579l-22.001-45.158v28.613c0,3.699,0.291,7.492,0.483,9.635
		c0.197,1.85,0.688,2.143,2.245,2.434l6.326,0.975v3.6h-23.949V66.474z"/>
	<path fill="#E57C30" d="M706.57,59.367c0-8.754,9.827-12.068,17.522-13.912l7.878-1.848v-5.264c0-8.174-3.894-10.414-8.961-10.414
		c-1.834,0-3.981,0.682-5.448,1.557l0.877,1.754c0.687,1.461,1.267,3.314,1.267,4.674c0,3.506-1.848,6.232-5.934,6.232
		c-3.498,0-5.166-2.727-5.166-5.943c0-3.107,3.418-6.422,5.938-7.98l2.826-1.754c2.537-1.65,6.823-3.207,11.387-3.207
		c9.25,0,16.752,3.791,16.752,14.01v20.835c0,3.701,0.083,5.258,0.669,7.293c1.562,0.684,4.187,0.975,5.937,0.975v2.24
		c-2.619,1.559-8.652,2.629-10.697,2.629c-5.744,0-7.986-2.826-9.35-7.004c-2.139,3.113-6.13,7.004-12.451,7.004
		C711.431,71.244,706.57,67.158,706.57,59.367z M731.97,61.318v-14.21l-3.797,0.972c-4.482,1.363-9.735,3.311-9.735,9.727
		c0,4.387,2.337,7.01,6.323,7.01C728.077,64.816,730.607,62.968,731.97,61.318z"/>
	<path fill="#E57C30" d="M750.686,84.386c0-6.133,8.069-9.936,13.72-11.006c-0.391-0.09-0.881-0.289-1.357-0.477
		c-3.507-1.172-6.237-3.703-6.237-7.695c0-5.645,6.524-8.66,10.319-10.027c-8.469-1.264-14.604-6.91-14.604-16.056
		c0-9.83,8.375-15.863,19.184-15.863c7.981,0,14.99,3.602,17.807,10.025c0.58-5.258,3.499-10.025,7.883-10.025
		c2.916,0,5.256,1.756,5.256,4.865c0,3.412-2.236,5.844-5.256,5.844c-2.146,0-3.893-1.367-4.285-1.758l-1.267-1.166
		c-0.868,1.166-1.169,3.898-1.169,7.688v0.297c0,10.025-7.006,16.542-18.969,16.542c-2.14,0-5.459,1.75-5.459,4.377
		c0,2.146,1.07,2.633,4.189,2.924l11.876,1.166c8.071,0.875,13.339,4.961,13.339,11.191c0,13.045-13.441,18.979-29.01,18.979
		C755.452,94.21,750.686,89.25,750.686,84.386z M784.354,80.494c0-3.699-2.819-5.068-6.515-5.455l-11.096-1.262
		c-2.049,1.357-5.354,3.598-5.354,7.982c0,4.668,3.306,7.885,10.796,7.885C780.27,89.644,784.354,84.968,784.354,80.494z
		 M778.324,39.031c0-6.619-1.854-12.078-6.613-12.078c-4.678,0-6.527,4.287-6.527,12.078c0,6.809,1.65,13.041,6.527,13.041
		C776.47,52.072,778.324,47.687,778.324,39.031z"/>
	<path fill="#E57C30" d="M801.432,59.367c0-8.754,9.829-12.068,17.511-13.912l7.889-1.848v-5.264c0-8.174-3.895-10.414-8.949-10.414
		c-1.857,0-3.996,0.682-5.455,1.557l0.871,1.754c0.686,1.461,1.27,3.314,1.27,4.674c0,3.506-1.842,6.232-5.934,6.232
		c-3.5,0-5.154-2.727-5.154-5.943c0-3.107,3.397-6.422,5.934-7.98l2.817-1.754c2.532-1.65,6.81-3.207,11.387-3.207
		c9.251,0,16.746,3.791,16.746,14.01v20.835c0,3.701,0.09,5.258,0.687,7.293c1.549,0.684,4.176,0.975,5.935,0.975v2.24
		c-2.631,1.559-8.662,2.629-10.712,2.629c-5.744,0-7.988-2.826-9.342-7.004c-2.141,3.113-6.129,7.004-12.463,7.004
		C806.294,71.244,801.432,67.158,801.432,59.367z M826.832,61.318v-14.21l-3.791,0.972c-4.479,1.363-9.742,3.311-9.742,9.727
		c0,4.387,2.347,7.01,6.331,7.01C822.937,64.816,825.466,62.968,826.832,61.318z"/>
	<path fill="#E57C30" d="M849.294,68.13l23.357-39.128h-10.32c-1.744,0-2.715,0.395-3.404,1.75l-6.035,10.512h-2.725l0.684-11.867
		l-0.586-3.703h37.273v1.945l-22.859,38.544h10.793c1.076,0,1.658-0.391,2.244-1.268l7.691-12.158h2.818
		c-1.557,7.193-1.848,17.316-1.848,17.316h-37.084V68.13z"/>
	<path fill="#E57C30" d="M891.193,67.158l2.228-0.684c2.64-0.875,3.118-1.074,3.118-2.334V34.455c0-2.336-0.875-2.826-3.492-4.184
		l-1.757-0.977v-2.727l15.857-3.307h2.917V64.14c0,1.26,0.5,1.459,3.02,2.334l2.25,0.684v2.916h-24.141V67.158z M895.863,6.908
		c0-3.791,3.605-6.908,7.781-6.908c4.184,0,7.601,3.117,7.601,6.908c0,3.801-3.417,6.818-7.601,6.818
		C899.468,13.727,895.863,10.709,895.863,6.908z"/>
	<path fill="#E57C30" d="M918.601,67.158l2.333-0.684c2.527-0.875,3.118-1.074,3.118-2.334V34.455c0-2.336-0.883-2.826-3.508-4.184
		l-1.851-0.977v-2.727l15.862-3.307h2.918v9.635c2.721-5.061,7.203-9.635,14.987-9.635c9.841,0,14.413,7.107,14.413,16.348V64.14
		c0,1.26,0.381,1.459,3.017,2.334l2.339,0.684v2.916h-23.956v-2.916l2.243-0.684c2.83-0.975,3.117-1.074,3.117-2.334V41.074
		c0-5.07-0.874-10.803-7.395-10.803c-4.279,0-7.396,3.215-8.766,5.834V64.14c0,1.26,0.492,1.459,3.02,2.334l2.348,0.684v2.916
		h-24.24V67.158z"/>
	<path fill="#E57C30" d="M973.857,47.687c-0.191-15.083,9.539-24.425,22.576-24.425c9.648,0,18.498,4.768,18.498,15.275
		c0,1.754-0.299,4.186-0.676,5.941l-27.066-0.682c0,0.586,0,1.068,0,1.658c0.395,10.119,5.354,17.226,14.406,17.226
		c5.457,0,8.953-1.658,11.771-4.676l0.979,0.977c-3.016,6.324-8.562,12.262-19.08,12.262
		C982.527,71.244,974.046,62.392,973.857,47.687z M1002.185,39.42c0.381-1.365,0.582-2.533,0.582-4.189
		c0-5.744-2.238-8.277-6.236-8.277c-5.445,0-8.562,5.65-9.252,13.438L1002.185,39.42z"/>
</g>
</svg>
