<?xml version="1.0" encoding="utf-8"?>
<!-- Generator: Adobe Illustrator 16.0.0, SVG Export Plug-In . SVG Version: 6.00 Build 0)  -->
<!DOCTYPE svg PUBLIC "-//W3C//DTD SVG 1.1//EN" "http://www.w3.org/Graphics/SVG/1.1/DTD/svg11.dtd">
<svg version="1.1" id="Laag_1" xmlns="http://www.w3.org/2000/svg" xmlns:xlink="http://www.w3.org/1999/xlink" x="0px" y="0px"
	 width="236.517px" height="18.505px" viewBox="0 0 236.517 18.505" enable-background="new 0 0 236.517 18.505"
	 xml:space="preserve">
<g>
	<defs>
		<rect id="SVGID_1_" x="-9.456" y="-9.415" width="270.66" height="33.649"/>
	</defs>
	<clipPath id="SVGID_2_">
		<use xlink:href="#SVGID_1_"  overflow="visible"/>
	</clipPath>
	<g clip-path="url(#SVGID_2_)">
		<path d="M0,0.216h6.841v3.12H3.192v3.889H5.88v3.216H3.192v7.633H0V0.216z"/>
		<path d="M7.68,0.216h3.288v13.825c0,0.697,0.24,1.104,0.792,1.104c0.552,0,0.768-0.406,0.768-1.104V0.216h3.289v13.706
			c0,2.928-1.44,4.416-3.696,4.416h-0.792c-2.329,0-3.648-1.488-3.648-4.416V0.216z"/>
		<path d="M24.36,0.216V3.36h-2.28v14.713h-3.192V3.36h-2.28V0.216H24.36z"/>
		<path d="M25.175,0.216h3.288v13.825c0,0.697,0.24,1.104,0.792,1.104c0.552,0,0.768-0.406,0.768-1.104V0.216h3.289v13.706
			c0,2.928-1.44,4.416-3.696,4.416h-0.792c-2.329,0-3.648-1.488-3.648-4.416V0.216z"/>
		<path d="M37.608,18.074h-3.192V0.216h5.041c1.944,0,2.928,1.08,2.928,2.977v2.855c0,1.44-0.816,2.16-1.416,2.401
			c0.528,0.191,1.368,0.768,1.368,2.111v6.072c0,0.77,0.144,1.105,0.264,1.32v0.121h-3.192c-0.144-0.193-0.288-0.576-0.288-1.369
			v-5.207c0-0.816-0.192-1.057-0.84-1.057h-0.672V18.074z M37.608,7.488h0.624c0.624,0,0.888-0.24,0.888-1.08V3.984
			c0-0.769-0.144-1.009-0.792-1.009h-0.72V7.488z"/>
		<path d="M50.087,0.216V3.36h-3.48v3.888h2.736v3.216h-2.736v4.393h3.648v3.217h-6.841V0.216H50.087z"/>
		<path d="M55.295,0c2.496,0,3.432,1.151,3.432,3.504v2.4h-3.072V3.672c0-0.576-0.12-0.936-0.696-0.936
			c-0.552,0-0.696,0.359-0.696,0.96v0.408c0,0.84,0.192,1.416,0.984,2.304l1.824,2.041c1.608,1.801,1.944,3.072,1.944,4.584v0.84
			c0,2.664-1.248,4.416-3.888,4.416h-0.624c-2.424,0-3.648-1.295-3.648-3.695v-3.217H54v2.857c0,0.719,0.24,1.08,0.816,1.08
			c0.552,0,0.792-0.434,0.792-1.297v-0.336c0-1.248-0.096-1.752-1.032-2.785l-1.848-2.039C51.407,7.416,51.023,6,51.023,4.32V3.552
			c0-2.28,1.392-3.552,3.625-3.552H55.295z"/>
	</g>
	<g clip-path="url(#SVGID_2_)">
		<path fill="#E98728" d="M65.833,18.074H62.64V0.216h3.192V18.074z"/>
		<path fill="#E98728" d="M69.984,0.216l2.184,9.122V0.216H75v17.858h-2.712L69.816,8.28v9.793h-2.832V0.216H69.984z"/>
		<path fill="#E98728" d="M79.128,0.216l2.185,9.122V0.216h2.832v17.858h-2.712L78.96,8.28v9.793h-2.832V0.216H79.128z"/>
		<path fill="#E98728" d="M93.576,13.994c0,2.615-1.392,4.344-3.792,4.344h-0.72c-2.521,0-3.865-1.561-3.865-4.344V4.561
			C85.199,1.8,86.28,0,89.04,0h0.72c2.808,0,3.816,1.8,3.816,4.536V13.994z M90.24,4.296c0-0.792-0.264-1.176-0.84-1.176
			c-0.624,0-0.864,0.384-0.864,1.176v9.793c0,0.551,0.216,1.055,0.888,1.055c0.648,0,0.816-0.504,0.816-1.055V4.296z"/>
		<path fill="#E98728" d="M93.983,0.216h3.312l1.176,11.977l1.176-11.977h3.048l-2.28,17.858h-4.056L93.983,0.216z"/>
		<path fill="#E98728" d="M107.112,15.074h-1.92l-0.288,3h-2.833l2.256-17.858h3.792l2.424,17.858h-3.097L107.112,15.074z
			 M105.504,12.001h1.296l-0.672-6.122L105.504,12.001z"/>
		<path fill="#E98728" d="M117.503,0.216V3.36h-2.28v14.713h-3.192V3.36h-2.28V0.216H117.503z"/>
		<path fill="#E98728" d="M121.535,18.074h-3.192V0.216h3.192V18.074z"/>
		<path fill="#E98728" d="M129.358,0.216V3.36h-3.479v3.888h2.736v3.216h-2.736v4.393h3.648v3.217h-6.841V0.216H129.358z"/>
		<path fill="#E98728" d="M135.19,8.017c-0.721-1.536-1.057-2.568-1.057-4.129V3.216c0-1.392,0.601-3.216,3.072-3.216h0.528
			c2.304,0,2.977,1.296,2.977,3.216v0.312c0,1.943-0.48,2.904-2.425,4.512l1.969,4.321c0.191-1.512,0.144-3.336,0.144-4.968h2.688
			c-0.048,3.457-0.312,5.904-1.104,7.896c0.455,0.361,0.912,0.48,1.463,0.576c0,0-0.551,2.281-0.672,2.641
			c-1.104-0.168-1.896-0.408-2.544-0.961c-0.479,0.434-1.248,0.793-2.424,0.793h-0.312c-2.904,0-4.609-1.729-4.609-4.92v-0.865
			C132.886,10.392,133.798,9.072,135.19,8.017z M138.839,15.529l-2.641-5.4c-0.168,0.457-0.312,1.057-0.312,1.824v0.625
			c0,2.16,0.816,3.119,2.113,3.119C138.311,15.697,138.599,15.65,138.839,15.529z M137.446,6.168
			c0.553-0.768,0.648-1.271,0.648-2.424v-0.36c0-0.792-0.12-1.032-0.6-1.032c-0.48,0-0.625,0.265-0.625,1.032v0.384
			C136.87,4.656,136.99,5.136,137.446,6.168z"/>
		<path fill="#E98728" d="M154.246,0.216V3.36h-2.28v14.713h-3.191V3.36h-2.281V0.216H154.246z"/>
		<path fill="#E98728" d="M161.759,0.216V3.36h-3.48v3.888h2.736v3.216h-2.736v4.393h3.648v3.217h-6.841V0.216H161.759z"/>
		<path fill="#E98728" d="M167.542,10.201h3.168v4.033c0,2.135-0.863,4.127-3.696,4.127h-0.647c-3.072,0-3.769-1.992-3.769-4.225
			V4.056c0-2.16,0.937-4.056,3.769-4.056h0.647c3.048,0,3.696,1.896,3.696,3.936v3.001h-3.168V4.056
			c0-0.672-0.217-1.031-0.816-1.031s-0.792,0.336-0.792,1.031v10.081c0,0.697,0.24,1.08,0.816,1.08c0.575,0,0.792-0.432,0.792-1.08
			V10.201z"/>
		<path fill="#E98728" d="M174.909,18.074h-3.191V0.216h3.191v6.816h1.681V0.216h3.192v17.858h-3.192v-7.537h-1.681V18.074z"/>
		<path fill="#E98728" d="M183.909,0.216l2.185,9.122V0.216h2.832v17.858h-2.712l-2.473-9.793v9.793h-2.832V0.216H183.909z"/>
		<path fill="#E98728" d="M198.382,13.994c0,2.615-1.393,4.344-3.793,4.344h-0.719c-2.521,0-3.865-1.561-3.865-4.344V4.561
			c0-2.761,1.08-4.561,3.841-4.561h0.72c2.809,0,3.816,1.8,3.816,4.536V13.994z M195.046,4.296c0-0.792-0.264-1.176-0.84-1.176
			c-0.625,0-0.865,0.384-0.865,1.176v9.793c0,0.551,0.217,1.055,0.889,1.055c0.648,0,0.816-0.504,0.816-1.055V4.296z"/>
		<path fill="#E98728" d="M202.63,0.216v14.641h3.384v3.217h-6.577V0.216H202.63z"/>
		<path fill="#E98728" d="M215.062,13.994c0,2.615-1.393,4.344-3.793,4.344h-0.719c-2.521,0-3.865-1.561-3.865-4.344V4.561
			c0-2.761,1.08-4.561,3.841-4.561h0.72c2.809,0,3.816,1.8,3.816,4.536V13.994z M211.726,4.296c0-0.792-0.264-1.176-0.84-1.176
			c-0.625,0-0.865,0.384-0.865,1.176v9.793c0,0.551,0.217,1.055,0.889,1.055c0.648,0,0.816-0.504,0.816-1.055V4.296z"/>
		<path fill="#E98728" d="M218.973,18.314c-1.872,0-2.904-1.609-2.904-3.506V4.176c0-2.208,0.912-4.176,3.721-4.176h0.647
			c3.145,0,3.697,2.016,3.697,4.152V6.12h-3.121V4.128c0-0.72-0.168-1.128-0.816-1.128c-0.551,0-0.791,0.384-0.791,1.128v9.936
			c0,0.77,0.312,1.152,0.863,1.152c0.601,0,0.937-0.383,0.937-1.104v-3.84h-1.177v-3h4.249v10.801h-1.944
			c-0.096-0.408-0.288-1.152-0.48-1.705c-0.287,0.6-1.056,1.945-2.64,1.945H218.973z"/>
		<path fill="#E98728" d="M228.524,18.074h-3.191V0.216h3.191V18.074z"/>
		<path fill="#E98728" d="M236.349,0.216V3.36h-3.48v3.888h2.736v3.216h-2.736v4.393h3.648v3.217h-6.84V0.216H236.349z"/>
	</g>
</g>
</svg>
