<?xml version="1.0" encoding="UTF-8" standalone="no"?>
<!-- Generated by IcoMoon.io -->

<svg
   xmlns:dc="http://purl.org/dc/elements/1.1/"
   xmlns:cc="http://creativecommons.org/ns#"
   xmlns:rdf="http://www.w3.org/1999/02/22-rdf-syntax-ns#"
   xmlns:svg="http://www.w3.org/2000/svg"
   xmlns="http://www.w3.org/2000/svg"
   xmlns:sodipodi="http://sodipodi.sourceforge.net/DTD/sodipodi-0.dtd"
   xmlns:inkscape="http://www.inkscape.org/namespaces/inkscape"
   version="1.1"
   width="512"
   height="512"
   viewBox="0 0 512 512"
   id="svg2"
   inkscape:version="0.91 r13725"
   sodipodi:docname="globe.svg">
  <metadata
     id="metadata11">
    <rdf:RDF>
      <cc:Work
         rdf:about="">
        <dc:format>image/svg+xml</dc:format>
        <dc:type
           rdf:resource="http://purl.org/dc/dcmitype/StillImage" />
        <dc:title></dc:title>
      </cc:Work>
    </rdf:RDF>
  </metadata>
  <defs
     id="defs9" />
  <sodipodi:namedview
     pagecolor="#ffffff"
     bordercolor="#666666"
     borderopacity="1"
     objecttolerance="10"
     gridtolerance="10"
     guidetolerance="10"
     inkscape:pageopacity="0"
     inkscape:pageshadow="2"
     inkscape:window-width="1920"
     inkscape:window-height="1027"
     id="namedview7"
     showgrid="false"
     showguides="false"
     inkscape:zoom="0.23046875"
     inkscape:cx="512"
     inkscape:cy="512"
     inkscape:window-x="-8"
     inkscape:window-y="-8"
     inkscape:window-maximized="1"
     inkscape:current-layer="svg2" />
  <g
     id="icomoon-ignore"
     transform="translate(0,-512)" />
  <path
     d="m 256,6 q 68.03412,0 125.48848,33.528575 57.45437,33.528576 90.98294,90.982945 Q 506,187.96588 506,256 q 0,68.03412 -33.52858,125.48848 -33.52857,57.45437 -90.98294,90.98294 Q 324.03412,506 256,506 187.96588,506 130.51152,472.47142 73.057151,438.94285 39.528575,381.48848 6,324.03412 6,256 6,187.96588 39.528575,130.51152 73.057151,73.057151 130.51152,39.528575 187.96588,6 256,6 Z m 89.19306,169.59625 q -0.65112,0.32527 -3.09269,3.09269 -2.44157,2.76742 -4.39437,3.09269 0.65112,0 1.4646,-1.62752 0.81348,-1.62752 1.62752,-3.58089 0.81405,-1.95337 1.13933,-2.27865 1.95337,-2.27865 7.16121,-4.88257 4.5573,-1.95337 16.92693,-3.90617 11.06796,-2.60392 16.60165,3.58089 -0.65112,-0.65112 3.09269,-4.23201 3.74382,-3.5809 4.72022,-3.90617 0.9764,-0.65113 4.88257,-1.4646 3.90617,-0.81348 4.88257,-2.44157 l 0.65112,-7.16122 q -3.90617,0.32528 -5.69662,-2.27865 -1.79044,-2.60392 -2.11572,-6.83594 0,0.65113 -1.95337,2.60393 0,-2.27865 -1.4646,-2.60393 -1.4646,-0.32527 -3.74325,0.32528 -2.27864,0.65055 -2.92977,0.32528 -3.25504,-0.9764 -4.88257,-2.44157 -1.62752,-1.46517 -2.60392,-5.37134 -0.9764,-3.90617 -1.30224,-4.88257 -0.65113,-1.62752 -3.0927,-3.58089 -2.44157,-1.95337 -3.09269,-3.25505 -0.32528,-0.65112 -0.81405,-1.79045 -0.48877,-1.13932 -0.9764,-2.11572 -0.48763,-0.9764 -1.30224,-1.79045 -0.81462,-0.81404 -1.79045,-0.81404 -0.97583,0 -2.27865,1.62752 -1.30281,1.62752 -2.44157,3.25505 -1.13875,1.62752 -1.4646,1.62752 -0.9764,-0.65112 -1.95337,-0.4882 -0.97697,0.16292 -1.4646,0.32528 -0.48763,0.16235 -1.4646,0.9764 -0.97697,0.81404 -1.62752,1.13932 -0.9764,0.65112 -2.76685,0.9764 -1.79044,0.32528 -2.76684,0.65112 4.88257,-1.62752 -0.32528,-3.58089 -3.25505,-1.30225 -5.20842,-0.9764 2.92977,-1.30225 2.44157,-3.90617 -0.4882,-2.60392 -2.76684,-4.55729 l 1.62752,0 q -0.32528,-1.30225 -2.76685,-2.76685 -2.44157,-1.4646 -5.69661,-2.76685 -3.25505,-1.30224 -4.23202,-1.95337 -2.60392,-1.62752 -11.06796,-3.09269 -8.46403,-1.46517 -10.74211,-0.16292 -1.62752,1.95337 -1.4646,3.41797 0.16293,1.4646 1.30225,4.55729 1.13932,3.09269 1.13932,4.06909 0.32528,1.95337 -1.79044,4.23202 -2.11573,2.27865 -2.11573,3.90617 0,2.27865 4.5573,5.04549 4.55729,2.76685 3.25504,6.99887 -0.9764,2.60392 -5.20841,5.20841 -4.23202,2.6045 -5.20842,3.90617 -1.62752,2.60393 -0.4882,6.0219 1.13932,3.41797 3.41797,5.37134 0.65112,0.65112 0.4882,1.30224 -0.16292,0.65112 -1.13932,1.4646 -0.9764,0.81348 -1.79045,1.30225 -0.81405,0.48877 -2.11572,1.13932 l -0.9764,0.65112 q -3.5809,1.62753 -6.67302,-1.95337 -3.09212,-3.58089 -4.39437,-8.46346 -2.27864,-8.13818 -5.20841,-9.76571 -7.48707,-2.60392 -9.43987,0.32528 -1.62752,-4.23202 -13.3466,-8.46346 -8.13819,-2.92977 -18.8803,-1.30225 1.95337,-0.32528 0,-4.88257 -2.27864,-4.88257 -6.18481,-3.90617 0.9764,-1.95337 1.30224,-5.69662 0.32585,-3.74324 0.32528,-4.39437 0.9764,-4.23201 3.90617,-7.48706 0.32528,-0.32528 2.27865,-2.76685 1.95337,-2.441567 3.09269,-4.394367 1.13932,-1.9528 0.16292,-1.953369 11.39324,1.302246 16.27581,-3.580894 1.62752,-1.627523 3.74324,-5.533693 2.11573,-3.90617 3.41797,-5.533693 2.92977,-1.95337 4.5573,-1.790446 1.62752,0.162923 4.72021,1.790446 3.0927,1.627523 4.72022,1.627523 4.55729,0.325277 5.04549,-3.580893 0.4882,-3.90617 -2.44157,-6.510663 3.90617,0.325277 0.9764,-5.533693 -1.30224,-2.278646 -2.60392,-2.92977 -3.90617,-1.302246 -8.78931,1.627524 -2.60392,1.302246 0.65112,2.603923 -0.32527,-0.325277 -3.09269,3.41797 -2.76742,3.743247 -5.37134,5.696616 -2.60392,1.95337 -5.20842,-1.627523 -0.32527,-0.325277 -1.79044,-4.39437 -1.46517,-4.069093 -3.0927,-4.39437 -2.60392,0 -5.20841,4.88257 0.9764,-2.603923 -3.5809,-4.88257 -4.55729,-2.278646 -7.81234,-2.603923 6.18482,-3.90617 -2.60392,-8.78931 -2.27865,-1.302246 -6.67302,-1.627523 -4.39437,-0.325277 -6.34774,1.302246 -1.62752,2.278647 -1.79044,3.743247 -0.16293,1.4646 1.62752,2.603924 1.79045,1.139323 3.41797,1.790446 1.62752,0.651123 3.74325,1.302247 2.11572,0.651123 2.76684,0.9764 4.5573,3.255046 2.60393,4.557293 -0.65113,0.325277 -2.76685,1.139323 -2.11572,0.814047 -3.74325,1.4646 -1.62752,0.650554 -1.95337,1.302247 -0.9764,1.302246 0,4.557293 0.97641,3.255046 -0.65112,4.557293 -1.62752,-1.627523 -2.92977,-5.696616 -1.30224,-4.069094 -2.27864,-5.37134 2.27864,2.92977 -8.13819,1.95337 l -3.25505,-0.325277 q -1.30224,0 -5.20841,0.651123 -3.90617,0.651123 -6.67302,0.325277 -2.76685,-0.325846 -4.39437,-2.603923 -1.30225,-2.603924 0,-6.510663 0.32528,-1.302247 1.30225,-0.651124 -1.30225,-0.9764 -3.5809,-3.092693 -2.27864,-2.116293 -3.25504,-2.766846 -14.97413,4.88257 -30.59881,13.346602 1.95337,0.325277 3.90617,-0.325276 1.62752,-0.651124 4.23202,-2.115724 2.60449,-1.4646 3.25504,-1.790446 11.06796,-4.557293 13.67188,-2.278647 l 1.62753,-1.627523 q 4.55729,5.208416 6.51066,8.138186 -2.27865,-1.302246 -9.76571,-0.325277 -6.51066,1.95337 -7.16122,3.90617 2.27865,3.90617 1.62753,5.85954 -1.30225,-0.9764 -3.74325,-3.255047 -2.441,-2.278646 -4.72022,-3.580893 -2.27921,-1.302246 -4.88257,-1.627523 -5.20841,0 -7.16121,0.325277 -47.5263,26.041512 -76.497586,72.265572 2.278646,2.27864 3.90617,2.60392 1.302246,0.32528 1.627523,2.92977 0.325277,2.60449 0.814046,3.58089 0.48877,0.9764 3.743247,-0.9764 2.92977,2.60392 0.9764,6.18482 0.325277,-0.32528 14.323,8.78931 6.18482,5.53369 6.83594,6.83594 0.9764,3.58089 -3.25504,5.85954 -0.32528,-0.65113 -2.92977,-2.92977 -2.6045,-2.27865 -2.92977,-1.30225 -0.9764,1.62752 0.16292,6.02189 1.13932,4.39437 3.41797,4.0691 -2.27865,0 -3.09269,5.20841 -0.81405,5.20842 -0.81405,11.55616 0,6.34774 -0.32528,7.64999 l 0.65113,0.32527 q -0.9764,3.90617 1.79044,11.23031 2.76685,7.32414 6.99887,6.34774 -4.23202,0.9764 6.51066,13.99716 1.95337,2.60392 2.60392,2.92977 0.9764,0.65112 3.90617,2.44157 2.92977,1.79044 4.88257,3.25504 1.9528,1.4646 3.25505,3.41797 1.30225,1.62753 3.25505,7.32414 1.9528,5.69662 4.55729,7.64999 -0.65112,1.95337 3.09269,6.51066 3.74382,4.5573 3.41797,7.48707 -0.32528,0 -0.81405,0.32527 -0.48876,0.32528 -0.81404,0.32528 0.9764,2.27865 5.04549,4.55729 4.06909,2.27865 5.04549,4.23202 0.32528,0.9764 0.65113,3.25505 0.32584,2.27864 0.9764,3.58089 0.65055,1.30224 2.60392,0.65112 0.65112,-6.51066 -7.81234,-20.18254 -4.88257,-8.13819 -5.53369,-9.43986 -0.9764,-1.62753 -1.79045,-5.0455 -0.81404,-3.41797 -1.4646,-4.72021 0.65112,0 1.95337,0.4882 1.30225,0.4882 2.76685,1.13932 1.4646,0.65112 2.44157,1.30225 0.97697,0.65112 0.65112,0.9764 -0.9764,2.27864 0.65112,5.69661 1.62753,3.41797 3.90617,6.0219 2.27865,2.60392 5.5337,6.18481 3.25504,3.5809 3.90617,4.23202 1.95337,1.95337 4.55729,6.34774 2.60392,4.39437 0,4.39437 2.92977,0 6.51066,3.41797 3.5809,3.41797 5.5337,6.34774 1.62752,2.60392 2.60392,8.46346 0.9764,5.85954 1.62752,7.81234 0.65113,2.27865 2.76685,4.39437 2.11572,2.11572 4.06909,3.09269 l 5.20842,2.60393 q 0,0 4.23202,2.27864 1.62752,0.65113 6.02189,3.41797 4.39437,2.76685 6.99886,3.74325 3.25505,1.30225 5.20842,1.30225 1.95337,0 4.72021,-0.81405 2.76685,-0.81405 4.39437,-1.13932 4.88257,-0.65113 9.43987,4.88257 4.55729,5.53369 6.83594,6.83594 11.71851,6.18481 17.90389,3.58089 -0.65112,0.32528 0.16293,2.44157 0.81404,2.11629 2.60392,5.04549 1.78988,2.9292 2.92977,4.72022 1.13989,1.79102 1.79045,2.76685 1.62752,1.95337 5.85954,4.88257 4.23201,2.9292 5.85954,4.88257 1.95337,-1.30225 2.27864,-2.92977 -0.9764,2.60392 2.27865,6.51066 3.25505,3.90674 5.85954,3.25505 4.55729,-0.9764 4.55729,-10.41684 -10.09098,4.88257 -15.95052,-5.85954 0,-0.32527 -0.81405,-1.79044 -0.81405,-1.46517 -1.30225,-2.76685 -0.4882,-1.30168 -0.81404,-2.76685 -0.32585,-1.46517 0,-2.44157 0.32584,-0.9764 1.62752,-0.9764 2.92977,0 3.25505,-1.13932 0.32527,-1.13932 -0.65113,-4.06909 -0.9764,-2.92977 -1.30224,-4.23202 -0.32528,-2.60392 -3.5809,-6.51066 -3.25561,-3.90674 -3.90617,-4.88257 -1.62752,2.92977 -5.20841,2.60392 -3.5809,-0.32585 -5.20842,-2.92977 0,0.32528 -0.4882,1.79045 -0.4882,1.46517 -0.4882,2.11572 -4.23202,0 -4.88257,-0.32528 0.32528,-0.9764 0.81405,-5.69661 0.48877,-4.72022 1.13932,-7.32414 0.32528,-1.30225 1.79045,-3.90617 1.46517,-2.60393 2.44157,-4.72022 0.9764,-2.11629 1.30224,-4.06909 0.32585,-1.9528 -1.4646,-3.09269 -1.79044,-1.1399 -5.69661,-0.81405 -6.18482,0.32528 -8.46347,6.51066 -0.32527,0.9764 -0.9764,3.41797 -0.65112,2.44157 -1.62752,3.74325 -0.9764,1.30168 -2.92977,2.27865 -2.27865,0.9764 -7.81234,0.65112 -5.53369,-0.32528 -7.81234,-1.62752 -4.23202,-2.60393 -7.32414,-9.43987 -3.09212,-6.83594 -3.09269,-12.04435 0,-3.25505 0.81404,-8.62639 0.81405,-5.37134 0.9764,-8.13819 0.16236,-2.76684 -1.79044,-7.97526 0.9764,-0.65112 2.92977,-3.09269 1.95337,-2.44157 3.25504,-3.41797 0.65113,-0.32528 1.4646,-0.4882 0.81348,-0.16293 1.4646,0 0.65113,0.16292 1.30225,-0.4882 0.65112,-0.65113 0.9764,-1.95337 -0.32528,-0.32528 -1.30225,-0.9764 -0.9764,-0.9764 -1.30224,-0.9764 2.27864,0.9764 9.27751,-0.4882 6.99886,-1.4646 8.95166,0.4882 4.88257,3.58089 7.16122,-0.65113 0,-0.32527 -0.81405,-3.09269 -0.81405,-2.76742 -0.16292,-4.39437 1.62752,8.78931 9.43986,2.92977 0.9764,0.9764 5.04549,1.62752 4.0691,0.65113 5.69662,1.62753 0.9764,0.65112 2.27865,1.79044 1.30224,1.13933 1.79044,1.4646 0.4882,0.32528 1.62753,-0.16292 1.13932,-0.4882 2.76684,-2.11572 3.25505,4.55729 3.90617,7.81234 3.5809,13.02075 6.18482,14.323 2.27865,0.9764 3.58089,0.65112 1.30225,-0.32527 1.4646,-3.09269 0.16236,-2.76742 0,-4.55729 -0.16235,-1.78988 -0.4882,-4.0691 l -0.32527,-2.60392 0,-5.85954 -0.32528,-2.60392 q -4.88257,-0.9764 -6.02189,-3.90617 -1.13933,-2.92977 0.4882,-6.0219 1.62752,-3.09212 4.88257,-6.02189 0.32527,-0.32528 2.60392,-1.13932 2.27865,-0.81405 5.04549,-2.11573 2.76685,-1.30167 4.0691,-2.60392 6.83594,-6.18482 4.88257,-11.39323 2.27864,0 3.58089,-2.92977 -0.32528,0 -1.62752,-0.9764 -1.30225,-0.9764 -2.44157,-1.62752 -1.13933,-0.65113 -1.4646,-0.65113 2.92977,-1.62752 0.65112,-5.20841 1.62752,-0.9764 2.44157,-3.5809 0.81404,-2.60449 2.44157,-3.25504 2.92977,3.90617 6.83594,0.65112 2.60392,-2.60392 0.32527,-5.20842 1.62753,-2.27864 6.67302,-3.41797 5.04549,-1.13932 6.02189,-3.09269 2.27865,0.65112 2.60393,-0.65112 0.32527,-1.30225 0.32527,-3.90617 0,-2.60393 0.9764,-3.90617 1.30225,-1.62753 4.88257,-2.92977 3.58033,-1.30225 4.23202,-1.62753 l 5.53369,-3.58089 q 0.9764,-1.30225 0,-1.30225 5.85954,0.65113 10.09099,-3.58089 3.25505,-3.58089 -1.95337,-6.51066 0.9764,-1.95337 -0.9764,-3.0927 -1.9528,-1.13932 -4.88257,-1.79044 0.9764,-0.32528 3.74325,-0.16292 2.76684,0.16235 3.41797,-0.4882 4.88257,-3.25505 -2.27865,-5.20842 -5.53369,-1.62752 -13.99716,3.90617 z m -53.05999,285.48194 q 67.05715,-11.71851 114.2576,-61.52346 -0.9764,-0.9764 -4.06909,-1.4646 -3.09269,-0.4882 -4.06909,-1.13932 -5.85954,-2.27865 -7.81234,-2.60392 0.32527,-2.27865 -0.81405,-4.23202 -1.13932,-1.95337 -2.60392,-2.92977 -1.4646,-0.9764 -4.0691,-2.60392 -2.60449,-1.62753 -3.58089,-2.27865 -0.65112,-0.65112 -2.27864,-1.95337 -1.62753,-1.30224 -2.27865,-1.79044 -0.65112,-0.48821 -2.44157,-1.46461 -1.79045,-0.9764 -2.76685,-0.65112 -0.9764,0.32528 -3.25504,0.32528 l -0.9764,0.32528 q -0.9764,0.32527 -1.79045,0.81404 -0.81405,0.48877 -1.79045,0.9764 -0.9764,0.48763 -1.30224,0.9764 -0.32585,0.48877 0,0.81405 -6.83594,-5.53369 -11.71851,-7.16122 -1.62753,-0.32527 -3.5809,-1.79044 -1.95337,-1.46517 -3.41797,-2.27865 -1.4646,-0.81348 -3.25504,-0.4882 -1.79045,0.32528 -3.74325,2.27865 -1.62752,1.62752 -1.95337,4.88257 -0.32585,3.25504 -0.65112,4.23201 -2.27865,-1.62752 0,-5.69661 2.27864,-4.0691 0.65112,-6.0219 -0.9764,-1.95337 -3.41797,-1.4646 -2.44157,0.48877 -3.90617,1.4646 -1.4646,0.97583 -3.74325,2.76685 -2.27864,1.79101 -2.92977,2.11572 -0.65112,0.32471 -2.76684,1.79045 -2.11573,1.46574 -2.76685,2.44157 -0.9764,1.30224 -1.95337,3.90617 -0.97697,2.60392 -1.62752,3.58089 -0.65113,-1.30225 -3.74325,-2.11572 -3.09212,-0.81348 -3.09269,-1.79045 0.65112,3.25505 1.30224,11.39323 0.65113,8.13819 1.62753,12.36964 2.27864,10.09098 -3.90617,15.62525 -8.78931,8.13818 -9.43987,13.02075 -1.30224,7.16122 3.90617,8.46347 0,2.27864 -2.60392,6.67301 -2.60392,4.39437 -2.27865,6.99887 0,1.95336 0.65113,5.20841 z"
     id="path5"
     inkscape:connector-curvature="0" />
</svg>
