<svg width="21" height="20" viewBox="0 0 21 20" fill="none" xmlns="http://www.w3.org/2000/svg">
    <path d="M15.2334 6.01667V7.18334C15.2334 7.75001 14.775 8.21667 14.1917 8.21667C13.6167 8.21667 13.15 7.75001 13.15 7.18334V6.01667C13.15 5.7404 13.2598 5.47545 13.4551 5.2801C13.6505 5.08475 13.9154 4.97501 14.1917 4.97501C14.775 4.97501 15.2334 5.44167 15.2334 6.01667ZM11.5417 6.96667V13.025C11.5417 13.3013 11.4319 13.5662 11.2366 13.7616C11.0412 13.9569 10.7763 14.0667 10.5 14.0667C10.2238 14.0667 9.9588 13.9569 9.76345 13.7616C9.5681 13.5662 9.45835 13.3013 9.45835 13.025V6.96667C9.45835 6.4 9.92502 5.92501 10.5 5.92501C11.075 5.92501 11.5417 6.4 11.5417 6.96667ZM18.8334 9.41667V10.5833C18.8334 11.15 18.3667 11.6167 17.7917 11.6167C17.2167 11.6167 16.75 11.15 16.75 10.5833V9.41667C16.75 8.84167 17.2167 8.38334 17.7917 8.38334C18.3667 8.38334 18.8334 8.84167 18.8334 9.41667ZM4.25002 9.41667V10.5833C4.25002 11.15 3.78335 11.6167 3.20835 11.6167C2.62502 11.6167 2.16669 11.15 2.16669 10.5833V9.41667C2.16669 8.84167 2.62502 8.38334 3.20835 8.38334C3.78335 8.38334 4.25002 8.84167 4.25002 9.41667ZM7.85002 12.8167V13.975C7.85002 14.5417 7.38335 15 6.80835 15C6.23335 15 5.76669 14.5417 5.76669 13.975V12.8167C5.76669 12.2333 6.23335 11.775 6.80835 11.775C7.08462 11.775 7.34957 11.8848 7.54492 12.0801C7.74027 12.2755 7.85002 12.5404 7.85002 12.8167ZM11.5417 16.1333V17.2917C11.5417 17.5679 11.4319 17.8329 11.2366 18.0282C11.0412 18.2236 10.7763 18.3333 10.5 18.3333C10.2238 18.3333 9.9588 18.2236 9.76345 18.0282C9.5681 17.8329 9.45835 17.5679 9.45835 17.2917V16.1333C9.45835 15.8571 9.5681 15.5921 9.76345 15.3968C9.9588 15.2014 10.2238 15.0917 10.5 15.0917C10.7763 15.0917 11.0412 15.2014 11.2366 15.3968C11.4319 15.5921 11.5417 15.8571 11.5417 16.1333ZM11.5417 2.70834V3.86667C11.5417 4.14294 11.4319 4.40789 11.2366 4.60324C11.0412 4.79859 10.7763 4.90834 10.5 4.90834C10.2238 4.90834 9.9588 4.79859 9.76345 4.60324C9.5681 4.40789 9.45835 4.14294 9.45835 3.86667V2.70834C9.45835 2.12501 9.92502 1.66667 10.5 1.66667C10.7763 1.66667 11.0412 1.77642 11.2366 1.97177C11.4319 2.16712 11.5417 2.43207 11.5417 2.70834ZM15.2334 10.2833V13.975C15.2334 14.55 14.775 15 14.1917 15C13.6167 15 13.15 14.55 13.15 13.975V10.2833C13.15 9.70001 13.6167 9.24167 14.1917 9.24167C14.775 9.24167 15.2334 9.70001 15.2334 10.2833ZM7.85002 6.01667V9.70834C7.85002 10.2917 7.38335 10.75 6.80835 10.75C6.67156 10.75 6.53611 10.7231 6.40973 10.6707C6.28334 10.6184 6.16851 10.5416 6.07178 10.4449C5.97506 10.3482 5.89833 10.2333 5.84598 10.107C5.79363 9.98059 5.76669 9.84513 5.76669 9.70834V6.01667C5.76669 5.7404 5.87643 5.47545 6.07178 5.2801C6.26713 5.08475 6.53209 4.97501 6.80835 4.97501C7.08462 4.97501 7.34957 5.08475 7.54492 5.2801C7.74027 5.47545 7.85002 5.7404 7.85002 6.01667Z" fill="#191919"/>
</svg>
