<?xml version="1.0" encoding="UTF-8" standalone="no"?>
<!-- Generated by IcoMoon.io -->

<svg
   xmlns:dc="http://purl.org/dc/elements/1.1/"
   xmlns:cc="http://creativecommons.org/ns#"
   xmlns:rdf="http://www.w3.org/1999/02/22-rdf-syntax-ns#"
   xmlns:svg="http://www.w3.org/2000/svg"
   xmlns="http://www.w3.org/2000/svg"
   xmlns:sodipodi="http://sodipodi.sourceforge.net/DTD/sodipodi-0.dtd"
   xmlns:inkscape="http://www.inkscape.org/namespaces/inkscape"
   version="1.1"
   width="512"
   height="512"
   viewBox="0 0 512 512"
   id="svg2"
   inkscape:version="0.91 r13725"
   sodipodi:docname="heart-normal.svg">
  <metadata
     id="metadata10">
    <rdf:RDF>
      <cc:Work
         rdf:about="">
        <dc:format>image/svg+xml</dc:format>
        <dc:type
           rdf:resource="http://purl.org/dc/dcmitype/StillImage" />
        <dc:title></dc:title>
      </cc:Work>
    </rdf:RDF>
  </metadata>
  <defs
     id="defs8" />
  <sodipodi:namedview
     pagecolor="#ffffff"
     bordercolor="#666666"
     borderopacity="1"
     objecttolerance="10"
     gridtolerance="10"
     guidetolerance="10"
     inkscape:pageopacity="0"
     inkscape:pageshadow="2"
     inkscape:window-width="989"
     inkscape:window-height="710"
     id="namedview6"
     showgrid="false"
     inkscape:zoom="0.65186407"
     inkscape:cx="176.97773"
     inkscape:cy="251.47999"
     inkscape:window-x="0"
     inkscape:window-y="0"
     inkscape:window-maximized="0"
     inkscape:current-layer="svg2" />
  <path
     d="m 129.53573,83.9944 c 25.8408,0.0148 51.7704,11.2036 71.2472,30.8432 l 54.982,54.9524 55.5592,-55.0264 c 19.462,-19.5212 45.4656,-30.6952 71.3508,-30.6952 21.9336,0 42.0616,8.0512 56.684,22.6884 33.0336,33.0632 29.3632,90.65 -8.1696,128.2864 L 255.46893,410.9116 80.695735,235.5612 c -37.4736,-37.74 -41.0108,-95.5192 -7.8292,-128.7748 14.5928,-14.6816 34.735595,-22.792 56.683995,-22.792 l 0,0 z m 0.0148,-41.1884 c -31.745995,0 -62.633595,11.5588 -85.913995,34.928 -49.1952001,49.3136 -45.7320001,132.8892 7.7996,186.8204 l 25.9296,25.9 178.014395,178.7396 204.9208,-205.0836 c 53.6648,-53.8276 57.4092,-137.196 8.1548,-186.4948 -23.2508,-23.2952 -54.094,-34.7652 -85.8104,-34.7652 -35.5644,0 -72.2092,14.4152 -100.5068,42.8164 L 255.88333,111.7 229.89453,85.7112 C 201.64133,57.2804 165.02613,42.8356 129.53573,42.8208 l 0,0 z"
     id="path4"
     inkscape:connector-curvature="0" />
</svg>
