<?xml version="1.0" encoding="UTF-8" standalone="no"?>
<!-- Generated by IcoMoon.io -->

<svg
   xmlns:dc="http://purl.org/dc/elements/1.1/"
   xmlns:cc="http://creativecommons.org/ns#"
   xmlns:rdf="http://www.w3.org/1999/02/22-rdf-syntax-ns#"
   xmlns:svg="http://www.w3.org/2000/svg"
   xmlns="http://www.w3.org/2000/svg"
   xmlns:sodipodi="http://sodipodi.sourceforge.net/DTD/sodipodi-0.dtd"
   xmlns:inkscape="http://www.inkscape.org/namespaces/inkscape"
   version="1.1"
   width="512"
   height="512"
   viewBox="0 0 512 512"
   id="svg2"
   inkscape:version="0.91 r13725"
   sodipodi:docname="heart-o-thin.svg">
  <metadata
     id="metadata11">
    <rdf:RDF>
      <cc:Work
         rdf:about="">
        <dc:format>image/svg+xml</dc:format>
        <dc:type
           rdf:resource="http://purl.org/dc/dcmitype/StillImage" />
        <dc:title></dc:title>
      </cc:Work>
    </rdf:RDF>
  </metadata>
  <defs
     id="defs9" />
  <sodipodi:namedview
     pagecolor="#ffffff"
     bordercolor="#666666"
     borderopacity="1"
     objecttolerance="10"
     gridtolerance="10"
     guidetolerance="10"
     inkscape:pageopacity="0"
     inkscape:pageshadow="2"
     inkscape:window-width="1920"
     inkscape:window-height="1027"
     id="namedview7"
     showgrid="false"
     inkscape:zoom="0.23046875"
     inkscape:cx="556.5"
     inkscape:cy="512"
     inkscape:window-x="-8"
     inkscape:window-y="-8"
     inkscape:window-maximized="1"
     inkscape:current-layer="svg2" />
  <g
     id="icomoon-ignore"
     transform="translate(0,-512)" />
  <path
     d="m 129.55486,67.522448 c 30.19819,0 60.37141,12.9244 82.88379,35.609952 l 43.36959,43.39402 43.83916,-43.44342 c 22.51238,-22.586752 52.80938,-35.560552 83.03199,-35.560552 26.31838,0 50.61025,9.786132 68.32864,27.504522 39.4648,39.53917 35.78258,107.54644 -8.15483,151.60763 L 255.4136,434.17301 68.986963,247.15302 C 25.147803,202.96806 21.638753,134.81259 61.177933,95.125215 78.921293,77.332448 103.1882,67.521893 129.55597,67.521893 Z m 0,-24.712053 c -31.754557,0 -62.644897,11.540654 -85.923257,34.893383 -49.176547,49.324752 -45.74188,132.925112 7.80904,186.846812 l 25.92262,25.92262 177.999827,178.7164 204.93597,-205.05919 C 513.9732,210.25867 517.70482,126.90531 468.45389,77.629401 445.22494,54.326072 414.384,42.834818 382.65441,42.834818 c -35.56055,0 -72.23288,14.431923 -100.5278,42.801217 L 255.85764,111.65746 229.88562,85.685434 C 201.6895,57.241763 165.06602,42.810395 129.55542,42.810395 l 0,0 z"
     id="path5"
     inkscape:connector-curvature="0" />
</svg>
