<svg width="28" height="28" viewBox="0 0 28 28" fill="none" xmlns="http://www.w3.org/2000/svg">
   <path fill-rule="evenodd" clip-rule="evenodd" d="M8.02911 5.52857C9.24916 5.5293 10.4734 6.08035 11.393 7.04762L13.9889 9.75408L16.6121 7.04398C17.5309 6.08254 18.7587 5.53221 19.9808 5.53221C21.0164 5.53221 21.9667 5.92874 22.6571 6.64964C24.2167 8.27803 24.0435 11.1142 22.2714 12.9679L13.9749 21.6295L5.72318 12.9934C3.9539 11.1346 3.7869 8.28896 5.35353 6.65109C6.04252 5.92801 6.99354 5.52857 8.02981 5.52857H8.02911ZM8.02981 3.5C6.53096 3.5 5.07263 4.06928 3.97347 5.22024C1.65077 7.64898 1.81428 11.7652 4.34172 14.4213L5.56596 15.6969L13.9707 24.5L23.6459 14.3994C26.1796 11.7484 26.3564 7.64242 24.0309 5.2144C22.9331 4.06709 21.4769 3.50219 19.9794 3.50219C18.3003 3.50219 16.5701 4.21215 15.2341 5.61093L13.9945 6.89309L12.7675 5.61312C11.4335 4.21288 9.70476 3.50146 8.02911 3.50073L8.02981 3.5Z" fill="#73655F"/>
</svg>
