<?xml version="1.0" encoding="utf-8"?>
<!-- Generator: Adobe Illustrator 16.0.0, SVG Export Plug-In . SVG Version: 6.00 Build 0)  -->
<!DOCTYPE svg PUBLIC "-//W3C//DTD SVG 1.1//EN" "http://www.w3.org/Graphics/SVG/1.1/DTD/svg11.dtd">
<svg version="1.1" id="Layer_1" focusable="false" xmlns="http://www.w3.org/2000/svg"
	 x="0px" y="0px" width="314.678px" height="314.678px" viewBox="9.301 132.606 314.678 314.678"
	 enable-background="new 9.301 132.606 314.678 314.678" xml:space="preserve">
<path fill="#24A6A2" d="M166.64,132.606c-86.889,0-157.339,70.475-157.339,157.339c0,86.914,70.45,157.339,157.339,157.339
	s157.339-70.425,157.339-157.339C323.979,203.082,253.529,132.606,166.64,132.606z M166.64,202.396
	c14.715,0,26.646,11.93,26.646,26.646s-11.93,26.646-26.646,26.646s-26.646-11.93-26.646-26.646S151.925,202.396,166.64,202.396z
	 M202.166,363.541c0,4.202-3.406,7.613-7.613,7.613h-55.825c-4.208,0-7.613-3.411-7.613-7.613v-15.226
	c0-4.207,3.406-7.613,7.613-7.613h7.613v-40.604h-7.613c-4.208,0-7.613-3.411-7.613-7.613v-15.226c0-4.207,3.406-7.613,7.613-7.613
	h40.599c4.208,0,7.613,3.406,7.613,7.613v63.443h7.613c4.208,0,7.613,3.406,7.613,7.613V363.541z"/>
</svg>
