<?xml version="1.0" encoding="utf-8"?>
<!-- Generator: Adobe Illustrator 16.2.1, SVG Export Plug-In . SVG Version: 6.00 Build 0)  -->
<!DOCTYPE svg PUBLIC "-//W3C//DTD SVG 1.1//EN" "http://www.w3.org/Graphics/SVG/1.1/DTD/svg11.dtd">
<svg version="1.1" id="Laag_1" xmlns="http://www.w3.org/2000/svg" xmlns:xlink="http://www.w3.org/1999/xlink" x="0px" y="0px"
	 width="24px" height="24px" viewBox="0 0 24 24" style="enable-background:new 0 0 24 24;" xml:space="preserve">
<style type="text/css">
<![CDATA[
	.st0{fill:#FFFFFF;}
	.st1{fill:#379596;}
]]>
</style>
<circle class="st1" cx="12" cy="12" r="10"/>
<g>
	<path class="st0" d="M9.3,15.6l1.3-4.4c0.2-0.6,0.1-0.7-0.5-0.8l-0.9-0.2V9.7l2.7-0.5h1.6C13.4,9.6,13,11,13,11l-1.2,4.4
		c-0.1,0.5-0.3,1-0.3,1.4c0,0.1,0,0.3,0,0.4c0.8-0.1,1.2-0.7,1.5-1.2l0.2,0.5c-0.5,0.8-1.6,1.6-2.8,1.6C9.2,18.1,8.9,16.9,9.3,15.6z
		 M11.6,6.5c0-0.8,0.7-1.5,1.6-1.5c0.8,0,1.1,0.4,1.1,1c0,0.8-0.6,1.5-1.7,1.5C11.9,7.5,11.6,7.1,11.6,6.5z"/>
</g>
</svg>
