<?xml version="1.0" encoding="UTF-8" standalone="no"?>
<!-- Generated by IcoMoon.io -->

<svg
   xmlns:dc="http://purl.org/dc/elements/1.1/"
   xmlns:cc="http://creativecommons.org/ns#"
   xmlns:rdf="http://www.w3.org/1999/02/22-rdf-syntax-ns#"
   xmlns:svg="http://www.w3.org/2000/svg"
   xmlns="http://www.w3.org/2000/svg"
   xmlns:sodipodi="http://sodipodi.sourceforge.net/DTD/sodipodi-0.dtd"
   xmlns:inkscape="http://www.inkscape.org/namespaces/inkscape"
   version="1.1"
   width="512"
   height="512"
   viewBox="0 0 512 512"
   id="svg2"
   inkscape:version="0.91 r13725"
   sodipodi:docname="info.svg">
  <metadata
     id="metadata11">
    <rdf:RDF>
      <cc:Work
         rdf:about="">
        <dc:format>image/svg+xml</dc:format>
        <dc:type
           rdf:resource="http://purl.org/dc/dcmitype/StillImage" />
        <dc:title></dc:title>
      </cc:Work>
    </rdf:RDF>
  </metadata>
  <defs
     id="defs9" />
  <sodipodi:namedview
     pagecolor="#ffffff"
     bordercolor="#666666"
     borderopacity="1"
     objecttolerance="10"
     gridtolerance="10"
     guidetolerance="10"
     inkscape:pageopacity="0"
     inkscape:pageshadow="2"
     inkscape:window-width="1920"
     inkscape:window-height="1027"
     id="namedview7"
     showgrid="false"
     inkscape:zoom="0.23046875"
     inkscape:cx="556.5"
     inkscape:cy="512"
     inkscape:window-x="-8"
     inkscape:window-y="-8"
     inkscape:window-maximized="1"
     inkscape:current-layer="svg2" />
  <g
     id="icomoon-ignore"
     transform="translate(0,-512)" />
  <path
     d="M 256,16 C 123.45289,16 16,123.43083 16,256 16,388.56917 123.45289,496 256,496 388.54711,496 496,388.56917 496,256 496,123.43083 388.54711,16 256,16 Z m -60.16736,379.02137 c -14.44486,0 -25.51795,-12.48016 -25.51795,-17.79356 0,-4.9338 2.21041,-10.29233 6.60815,-19.11088 l 57.71174,-110.93599 c 1.65229,-3.54978 1.65229,-6.20648 -1.09417,-6.20648 -9.4213,0 -40.47629,18.70871 -49.33948,25.33943 -6.67534,-0.84846 -11.11822,-6.63072 -8.88575,-10.67143 29.96083,-29.38064 82.09089,-51.21491 111.47154,-51.21491 12.23445,0 25.54051,9.77884 25.54051,19.55717 0,4.48751 -3.90682,12.9044 -7.25603,19.64644 L 247.44872,352.7584 c -2.21041,3.99608 -1.67435,6.65278 2.2104,6.65278 7.76952,0 38.2659,-17.32471 52.15264,-28.04076 6.63071,0 12.16726,4.93379 10.53754,10.69399 -21.70039,23.15159 -71.03987,52.95646 -116.51716,52.95646 z M 299.53466,169.22052 c -20.49489,0 -32.70678,-11.11822 -32.70678,-25.362 0,-19.62437 18.26242,-36.9937 43.80294,-36.9937 18.8426,0 31.05499,9.39924 31.05499,26.27715 0,19.62437 -16.6327,36.07805 -42.15065,36.07805 z"
     id="path5"
     inkscape:connector-curvature="0" />
</svg>
