<svg
   xmlns:dc="http://purl.org/dc/elements/1.1/"
   xmlns:cc="http://creativecommons.org/ns#"
   xmlns:rdf="http://www.w3.org/1999/02/22-rdf-syntax-ns#"
   xmlns:svg="http://www.w3.org/2000/svg"
   xmlns="http://www.w3.org/2000/svg"
   xmlns:sodipodi="http://sodipodi.sourceforge.net/DTD/sodipodi-0.dtd"
   xmlns:inkscape="http://www.inkscape.org/namespaces/inkscape"
   version="1.1"
   width="512"
   height="512"
   viewBox="0 0 512 512"
   id="svg2"
   inkscape:version="0.91 r13725"
   sodipodi:docname="linkedin.svg">
  <metadata
     id="metadata12">
    <rdf:RDF>
      <cc:Work
         rdf:about="">
        <dc:format>image/svg+xml</dc:format>
        <dc:type
           rdf:resource="http://purl.org/dc/dcmitype/StillImage" />
        <dc:title></dc:title>
      </cc:Work>
    </rdf:RDF>
  </metadata>
  <defs
     id="defs10" />
  <sodipodi:namedview
     pagecolor="#ffffff"
     bordercolor="#666666"
     borderopacity="1"
     objecttolerance="10"
     gridtolerance="10"
     guidetolerance="10"
     inkscape:pageopacity="0"
     inkscape:pageshadow="2"
     inkscape:window-width="1920"
     inkscape:window-height="1027"
     id="namedview8"
     showgrid="false"
     inkscape:zoom="0.4609375"
     inkscape:cx="-918.95401"
     inkscape:cy="-194.61343"
     inkscape:window-x="-8"
     inkscape:window-y="-8"
     inkscape:window-maximized="1"
     inkscape:current-layer="svg2" />
  <g
     id="g3340"
     transform="matrix(29.6,0,0,29.6,-258.7884,-14425.615)">
    <path
       inkscape:connector-curvature="0"
       id="path4"
       d="m 9.447,493.245 3.407,0 0,10.957 -3.407,0 0,-10.957 z m 1.706,-5.447 c 1.088,0 1.973,0.885 1.973,1.976 0,1.089 -0.885,1.974 -1.973,1.974 -1.094,0 -1.977,-0.885 -1.977,-1.974 0,-1.091 0.882,-1.976 1.977,-1.976 z" />
    <path
       inkscape:connector-curvature="0"
       id="path6"
       d="m 14.99,493.245 3.263,0 0,1.498 0.047,0 c 0.455,-0.861 1.565,-1.768 3.222,-1.768 3.446,0 4.085,2.268 4.085,5.219 l 0,6.008 -3.405,0 0,-5.327 c 0,-1.272 -0.022,-2.906 -1.768,-2.906 -1.771,0 -2.042,1.386 -2.042,2.815 l 0,5.419 -3.4,0 0,-10.957 z" />
  </g>
</svg>
