<?xml version="1.0" encoding="UTF-8"?>
<svg width="24px" height="24px" viewBox="0 0 24 24" version="1.1" xmlns="http://www.w3.org/2000/svg" xmlns:xlink="http://www.w3.org/1999/xlink">
    <title>v copy</title>
    <defs>
        <path d="M12,18 C13.1,18 14,17.1 14,16 C14,14.9 13.1,14 12,14 C10.9,14 10,14.9 10,16 C10,17.1 10.9,18 12,18 Z M18,9 L17,9 L17,7 C17,4.24 14.76,2 12,2 C9.24,2 7,4.24 7,7 L7,9 L6,9 C4.9,9 4,9.9 4,11 L4,21 C4,22.1 4.9,23 6,23 L18,23 C19.1,23 20,22.1 20,21 L20,11 C20,9.9 19.1,9 18,9 Z M8.9,7 C8.9,5.29 10.29,3.9 12,3.9 C13.71,3.9 15.1,5.29 15.1,7 L15.1,9 L8.9,9 L8.9,7 Z M18,21 L6,21 L6,11 L18,11 L18,21 Z" id="path-1"></path>
    </defs>
    <g id="v-copy" stroke="none" stroke-width="1" fill="none" fill-rule="evenodd">
        <g id="Basics/Icon/Lock">
            <polygon id="Shape" points="0 0 24 0 24 24 0 24"></polygon>
            <mask id="mask-2" fill="white">
                <use xlink:href="#path-1"></use>
            </mask>
            <use id="Shape" fill="#CDBEB4" xlink:href="#path-1"></use>
        </g>
    </g>
</svg>