<?xml version="1.0" encoding="UTF-8" standalone="no"?>
<!-- Generated by IcoMoon.io -->

<svg
   xmlns:dc="http://purl.org/dc/elements/1.1/"
   xmlns:cc="http://creativecommons.org/ns#"
   xmlns:rdf="http://www.w3.org/1999/02/22-rdf-syntax-ns#"
   xmlns:svg="http://www.w3.org/2000/svg"
   xmlns="http://www.w3.org/2000/svg"
   xmlns:sodipodi="http://sodipodi.sourceforge.net/DTD/sodipodi-0.dtd"
   xmlns:inkscape="http://www.inkscape.org/namespaces/inkscape"
   version="1.1"
   width="512"
   height="512"
   viewBox="0 0 512 512"
   id="svg2"
   inkscape:version="0.91 r13725"
   sodipodi:docname="logo-fd.svg">
  <metadata
     id="metadata11">
    <rdf:RDF>
      <cc:Work
         rdf:about="">
        <dc:format>image/svg+xml</dc:format>
        <dc:type
           rdf:resource="http://purl.org/dc/dcmitype/StillImage" />
        <dc:title></dc:title>
      </cc:Work>
    </rdf:RDF>
  </metadata>
  <defs
     id="defs9" />
  <sodipodi:namedview
     pagecolor="#ffffff"
     bordercolor="#666666"
     borderopacity="1"
     objecttolerance="10"
     gridtolerance="10"
     guidetolerance="10"
     inkscape:pageopacity="0"
     inkscape:pageshadow="2"
     inkscape:window-width="1920"
     inkscape:window-height="1027"
     id="namedview7"
     showgrid="false"
     inkscape:zoom="0.23046875"
     inkscape:cx="556.5"
     inkscape:cy="512"
     inkscape:window-x="-8"
     inkscape:window-y="-8"
     inkscape:window-maximized="1"
     inkscape:current-layer="svg2" />
  <g
     id="icomoon-ignore"
     transform="translate(0,-512)" />
  <path
     d="m 417.16439,399.41459 c -2.65895,0 -93.68631,1.49943 -96.74108,1.49943 -2.99822,0 -4.5256,-1.89525 -4.5256,-5.28993 l 0,-26.95731 -1.15952,0 c -10.94709,21.58287 -25.34478,36.82939 -63.16468,36.82939 -48.08781,0 -81.74933,-39.37524 -81.74933,-104.46376 0,-67.01174 39.23419,-104.83164 83.89872,-104.83164 34.05735,0 52.41582,10.40959 61.89208,35.04723 l 1.32979,0 0,-66.1915 c 0,-4.92206 -0.39583,-10.21136 -1.13156,-12.8703 -1.52739,-6.44945 -4.92207,-6.81732 -10.97506,-7.18518 -3.7905,0 -18.55605,-0.39583 -21.92214,-0.39583 -2.68754,0 -4.18633,-0.76369 -4.18633,-4.15837 l 0,-27.12694 c 0,-3.42264 1.13156,-5.31789 3.7905,-5.31789 2.65895,0 93.0643,-1.13156 96.06252,-1.13156 3.02681,0 4.5542,1.52738 4.5542,4.92206 l 0,226.1824 c 0,4.92206 0,9.84412 0.73573,12.47448 1.52739,6.42085 4.92207,6.78872 10.97506,7.18518 3.7905,0 18.55605,0.73574 21.95073,0.73574 2.65895,0 4.15838,0.76369 4.15838,4.15837 l 0,31.9645 c 0,3.42264 -1.13156,4.92207 -3.79051,4.92207 z M 278.78495,233.42725 c -22.14896,0 -37.22584,17.45309 -37.22584,67.60579 0,47.23898 12.3328,68.70876 37.22584,68.70876 27.86268,0 35.61333,-29.53175 35.61333,-68.70876 -0.0286,-36.06569 -2.40417,-67.60579 -35.61333,-67.60579 z M 496,375.22932 c 0,-18.13164 -13.40781,-29.89898 -29.89898,-29.89898 -16.49117,0 -29.87102,11.76734 -29.87102,29.89898 0,18.10369 13.37985,29.87103 29.87102,29.87103 16.49117,0 29.89898,-11.76734 29.89898,-29.87103 z M 184.87183,199.17167 c -16.80249,0 -31.14363,-11.22983 -31.14363,-29.75793 0,-17.9906 16.85903,-25.93884 21.38464,-27.80613 l 0,-0.79229 c -3.28159,-2.5738 -7.15659,-5.65716 -18.16024,-5.65716 -21.58287,0 -37.47998,9.36317 -37.47998,42.31755 l 0,24.75136 38.61154,0 c 2.65895,0 3.79051,1.92321 3.79051,5.31789 l 0,26.39184 c 0,3.42264 -1.15952,4.92207 -3.79051,4.92207 l -38.58359,0 0,98.35359 c 0,4.92207 0.39583,9.84413 1.13156,12.47448 1.52739,6.42086 4.92207,7.18519 11.00364,7.55242 3.79051,0 17.76442,0.39582 21.18705,0.39582 2.63099,0 4.15837,0.73574 4.15837,4.15838 l 0,31.93591 c 0,3.42264 -1.13156,4.92206 -3.7905,4.92206 l -133.03359,0 c -2.65894,0 -3.7905,-1.49942 -3.7905,-4.92206 l 0,-31.93591 c 0,-3.42264 1.52738,-4.15838 4.15837,-4.15838 3.39468,0 15.13342,-0.39582 18.89597,-0.39582 6.05362,-0.36787 9.47626,-1.13156 11.00364,-7.55242 0.73574,-2.65894 1.13156,-7.581 1.13156,-12.47448 l 0,-98.35359 -31.79423,0 C 17.13092,238.85887 16,237.35944 16,233.9368 l 0,-26.39184 c 0,-3.39468 1.13156,-5.31789 3.76191,-5.31789 l 31.82282,0 0,-15.10546 c 0,-41.24254 34.19904,-80.61778 93.51667,-80.61778 51.9914,0 73.60287,32.95438 73.60287,53.80152 0,25.93884 -15.44475,38.86632 -33.83117,38.86632 z"
     id="path5"
     inkscape:connector-curvature="0" />
</svg>
