<?xml version="1.0" encoding="utf-8"?>
<!-- Generator: Adobe Illustrator 16.2.1, SVG Export Plug-In . SVG Version: 6.00 Build 0)  -->
<!DOCTYPE svg PUBLIC "-//W3C//DTD SVG 1.1//EN" "http://www.w3.org/Graphics/SVG/1.1/DTD/svg11.dtd">
<svg version="1.1" id="Laag_1" xmlns="http://www.w3.org/2000/svg" xmlns:xlink="http://www.w3.org/1999/xlink" x="0px" y="0px" viewBox="0 0 288.7 185.7" style="enable-background:new 0 0 288.7 185.7;" xml:space="preserve">
<style type="text/css">
<![CDATA[
	.st0{fill:#379596;}
]]>
</style>
<g>
	<g>
		<g>
			<path class="st0" d="M236.2,174.9c-1.5,0-53.9,0.9-55.6,0.9c-1.7,0-2.6-1.1-2.6-3v-15.5h-0.7c-6.3,12.4-14.6,21.2-36.4,21.2
				c-27.7,0-47-22.6-47-60.1c0-38.5,22.6-60.3,48.3-60.3c19.6,0,30.1,6,35.6,20.2h0.8V40.1c0-2.8-0.2-5.9-0.7-7.4
				c-0.9-3.7-2.8-3.9-6.3-4.1c-2.2,0-10.7-0.2-12.6-0.2c-1.5,0-2.4-0.4-2.4-2.4V10.3c0-2,0.7-3,2.2-3c1.5,0,53.5-0.7,55.3-0.7
				c1.7,0,2.6,0.9,2.6,2.8v130.1c0,2.8,0,5.7,0.4,7.2c0.9,3.7,2.8,3.9,6.3,4.1c2.2,0,10.7,0.4,12.6,0.4c1.5,0,2.4,0.4,2.4,2.4v18.4
				C238.3,174,237.7,174.9,236.2,174.9 M156.6,79.4c-12.8,0-21.4,10-21.4,38.9c0,27.2,7.1,39.5,21.4,39.5c16,0,20.5-17,20.5-39.5
				C177,97.5,175.7,79.4,156.6,79.4"/>
			<path d="M102.5,59.7c-9.7,0-17.9-6.5-17.9-17.1c0-10.3,9.7-14.9,12.3-16v-0.4c-1.9-1.5-4.1-3.3-10.5-3.3
				c-12.4,0-21.6,5.4-21.6,24.3v14.3h22.2c1.5,0,2.2,1.1,2.2,3v15.2c0,2-0.7,2.8-2.2,2.8H64.9v56.6c0,2.8,0.2,5.7,0.7,7.2
				c0.9,3.7,2.8,4.1,6.3,4.4c2.2,0,10.2,0.2,12.2,0.2c1.5,0,2.4,0.4,2.4,2.4v18.4c0,2-0.7,2.8-2.2,2.8H7.8c-1.5,0-2.2-0.9-2.2-2.8
				v-18.4c0-2,0.9-2.4,2.4-2.4c2,0,8.7-0.2,10.9-0.2c3.5-0.2,5.4-0.7,6.3-4.4c0.4-1.5,0.7-4.4,0.7-7.2V82.5H7.6
				c-1.5,0-2.2-0.9-2.2-2.8V64.5c0-2,0.7-3,2.2-3h18.3v-8.7C25.8,29,45.5,6.4,79.7,6.4c29.9,0,42.3,19,42.3,30.9
				C122,52.2,113.1,59.7,102.5,59.7"/>
			<path d="M281.5,161c0-10.4-7.7-17.2-17.2-17.2s-17.2,6.8-17.2,17.2s7.7,17.2,17.2,17.2S281.5,171.4,281.5,161"/>
		</g>
	</g>
</g>
</svg>
