<?xml version="1.0" encoding="utf-8"?>
<!-- Generator: Adobe Illustrator 16.0.0, SVG Export Plug-In . SVG Version: 6.00 Build 0)  -->
<!DOCTYPE svg PUBLIC "-//W3C//DTD SVG 1.1//EN" "http://www.w3.org/Graphics/SVG/1.1/DTD/svg11.dtd">
<svg version="1.1" id="Layer_1" xmlns="http://www.w3.org/2000/svg" xmlns:xlink="http://www.w3.org/1999/xlink" x="0px" y="0px"
	 width="516.841px" height="516.85px" viewBox="0 0 516.841 516.85" enable-background="new 0 0 516.841 516.85"
	 xml:space="preserve">
<rect fill="#40466A" width="516.841" height="516.85"/>
<rect x="282.034" y="234.439" fill="#FFFFFF" width="189.064" height="47.264"/>
<rect x="282.034" y="139.91" fill="#FFFFFF" width="189.064" height="47.264"/>
<rect x="423.832" y="45.38" fill="#FFFFFF" width="47.259" height="47.265"/>
<rect x="45.707" y="45.379" fill="#FFFFFF" width="189.063" height="47.265"/>
<rect x="45.707" y="139.914" fill="#FFFFFF" width="189.063" height="47.265"/>
<rect x="45.712" y="234.443" fill="#FFFFFF" width="47.264" height="47.267"/>
<polygon fill="#FFFFFF" points="53.527,440.542 53.527,447.383 66.179,447.383 66.179,455.004 53.658,455.004 53.658,470.795 
	45.713,470.795 45.713,432.919 67.438,432.919 67.438,440.542 "/>
<g>
	<defs>
		<rect id="SVGID_1_" y="0.009" width="516.822" height="516.841"/>
	</defs>
	<clipPath id="SVGID_2_">
		<use xlink:href="#SVGID_1_"  overflow="visible"/>
	</clipPath>
	<path clip-path="url(#SVGID_2_)" fill="#FFFFFF" d="M88.571,463.198h-1.965v-22.656l0.797-0.026h1.26
		c2.844,0,5.094,0.4,6.751,2.343c1.154,1.347,2.518,3.953,2.498,8.921c0.02,1.771-0.2,7.726-3.425,10.097
		C92.812,463.198,90.667,463.198,88.571,463.198 M99.745,436.253c-3.777-3.245-8.103-3.284-12.303-3.33h-8.655v37.868h8.703
		c3.865,0,7.592-0.152,10.774-2.115c0.601-0.334,2.1-1.371,3.647-3.383c2.558-3.418,3.907-8.085,3.907-13.491
		C105.818,442.46,101.579,437.822,99.745,436.253"/>
</g>
<polygon fill="#FFFFFF" points="166.479,432.919 166.479,470.795 161.448,470.795 161.448,443.717 153.717,470.795 148.859,470.795 
	141.127,443.717 141.127,470.795 136.028,470.795 136.028,432.919 142.962,432.919 151.286,462.465 159.655,432.919 "/>
<polygon fill="#FFFFFF" points="200.93,465.603 200.93,470.795 181.411,470.795 181.411,432.919 200.618,432.919 200.618,438.068 
	186.645,438.068 186.645,448.623 199.625,448.623 199.625,453.814 186.645,453.814 186.645,465.603 "/>
<g>
	<defs>
		<rect id="SVGID_3_" y="0.009" width="516.822" height="516.841"/>
	</defs>
	<clipPath id="SVGID_4_">
		<use xlink:href="#SVGID_3_"  overflow="visible"/>
	</clipPath>
	<path clip-path="url(#SVGID_4_)" fill="#FFFFFF" d="M233.345,451.866c0,7.006-2.429,10.382-4.438,11.945
		c-2.274,1.66-4.571,1.792-7.573,1.792h-2.361v-27.534h2.451c1.789,0,3.839,0.068,5.691,0.86c1.551,0.641,2.877,1.765,3.847,3.285
		C232.064,443.832,233.345,446.811,233.345,451.866 M232.399,435.924c-3.713-3.005-8.326-3.005-12.037-3.005h-6.626v37.876h6.998
		c2.546,0,5.237-0.068,7.802-0.974c6.972-2.365,9.139-9.544,9.78-12.61c0.177-1.055,0.483-2.832,0.483-5.346
		C238.799,442.262,234.342,437.518,232.399,435.924"/>
</g>
<rect x="251.437" y="432.92" fill="#FFFFFF" width="5.364" height="37.872"/>
<path fill="#FFFFFF" d="M277.008,456.018l3.925-14.152l3.982,14.152H277.008z M283.12,432.659h-4.353l-11.517,38.133h5.424
	l2.896-9.581h10.752l2.854,9.581h5.427L283.12,432.659z"/>
<g>
	<defs>
		<rect id="SVGID_5_" y="0.009" width="516.822" height="516.841"/>
	</defs>
	<clipPath id="SVGID_6_">
		<use xlink:href="#SVGID_5_"  overflow="visible"/>
	</clipPath>
	<path clip-path="url(#SVGID_6_)" fill="#FFFFFF" d="M328.99,451.138v16.167l-0.602,0.461c-0.394,0.334-0.924,0.754-1.786,1.284
		c-1.258,0.728-4.618,2.43-8.963,2.43c-5.454,0-8.745-2.74-10.56-5.036c-1.52-2.012-4.068-6.555-4.068-14.729
		c0-4.244,0.779-11.989,5.902-16.386c1.568-1.392,4.308-3.068,8.258-3.068c5.041,0,8.881,2.694,10.598,7.416
		c0.402,1.194,0.64,2.454,0.825,3.935l0.08,0.925h-4.968l-0.108-0.685c-0.088-0.482-0.33-1.919-0.993-3.133
		c-0.944-1.789-2.124-2.364-2.67-2.631c-0.554-0.265-1.505-0.594-2.81-0.594c-3.6,0-5.535,2.455-6.354,3.909
		c-1.436,2.448-2.261,6.244-2.261,10.464c0,2.568,0.363,10.865,5.438,13.521c0.659,0.355,1.83,0.768,3.689,0.768
		c2.222,0,4.414-0.661,6.488-1.963v-7.864h-6.514v-5.189H328.99z"/>
	<path clip-path="url(#SVGID_6_)" fill="#FFFFFF" d="M347.976,438.068h2.81c1.967,0,4.149,0.108,5.516,0.944
		c1.859,1.111,2.274,3.295,2.321,4.908c0,0.766-0.106,1.962-0.669,3.177c-1.209,2.606-3.727,2.917-6.373,3.005h-3.604V438.068z
		 M357.806,454.232c0.596-0.245,0.944-0.421,1.407-0.752c2.194-1.436,4.82-4.243,4.82-9.477c0-4.813-2.189-8.479-5.986-10.047
		c-2.847-1.146-6.378-1.08-8.876-1.036h-6.468v37.875h5.272v-15.505h4.175l8.065,15.505h6.201L357.806,454.232z"/>
	<path clip-path="url(#SVGID_6_)" fill="#FFFFFF" d="M389.604,466.223c-2.36,0-3.798-1.17-4.657-2.075
		c-3.339-3.38-3.713-9.693-3.692-12.276c0-1.594,0.156-7.071,2.408-10.671c1.524-2.448,3.512-3.707,5.941-3.707
		c1.771,0,3.247,0.638,4.572,1.967c1.3,1.322,1.987,2.866,2.336,3.683c0.93,2.321,1.438,5.414,1.438,8.729
		c0,5.013-1.185,9.314-3.241,11.769C393.294,465.361,391.571,466.223,389.604,466.223 M400.208,438.594
		c-1.506-2.36-4.88-6.334-10.604-6.334c-1.594,0-4.702,0.373-7.637,2.917c-5.415,4.613-6.212,12.427-6.212,16.694
		c0,11.725,5.391,16.381,7.712,17.842c2.492,1.48,4.897,1.695,6.137,1.695c2.763,0,5.282-0.877,7.446-2.648
		c5.56-4.568,6.401-12.547,6.401-16.889C403.452,445.224,401.688,440.985,400.208,438.594"/>
</g>
<polygon fill="#FFFFFF" points="435.669,465.603 435.669,470.795 416.171,470.795 416.171,432.919 435.359,432.919 435.359,438.068 
	421.381,438.068 421.381,448.623 434.367,448.623 434.367,453.814 421.381,453.814 421.381,465.603 "/>
<g>
	<defs>
		<rect id="SVGID_7_" y="0.009" width="516.822" height="516.841"/>
	</defs>
	<clipPath id="SVGID_8_">
		<use xlink:href="#SVGID_7_"  overflow="visible"/>
	</clipPath>
	<path clip-path="url(#SVGID_8_)" fill="#FFFFFF" d="M455.188,450.83h-1.438v-12.762h1.021c4.172,0,6.292,0.152,7.792,1.393
		c1.684,1.386,1.928,3.839,1.928,5.162c0,1.657-0.442,2.79-0.755,3.449c-0.574,1.055-1.104,1.416-1.458,1.681
		C460.91,450.678,458.985,450.83,455.188,450.83 M463.667,433.892c-2.204-0.821-4.562-0.969-9.029-0.969h-6.117v37.872h5.369
		v-14.773h2.36c2.894-0.049,6.473-0.093,9.144-1.814c3.908-2.517,4.51-7.086,4.51-9.585
		C469.903,439.366,467.621,435.461,463.667,433.892"/>
</g>
</svg>
