<svg width="24" height="24" viewBox="0 0 24 24" fill="none" xmlns="http://www.w3.org/2000/svg">
    <path fill-rule="evenodd" clip-rule="evenodd" d="M15.5 14.51H14.71L14.43 14.24C15.41 13.1 16 11.62 16 10.01C16 6.42001 13.09 3.51001 9.5 3.51001C5.91 3.51001 3 6.42001 3 10.01C3 13.6 5.91 16.51 9.5 16.51C11.11 16.51 12.59 15.92 13.73 14.94L14 15.22V16.01L19 21L20.49 19.51L15.5 14.51ZM9.5 14.51C7.01 14.51 5 12.5 5 10.01C5 7.52001 7.01 5.51001 9.5 5.51001C11.99 5.51001 14 7.52001 14 10.01C14 12.5 11.99 14.51 9.5 14.51Z" fill="#73655F"/>
</svg>
