<?xml version="1.0" encoding="utf-8"?>
<!-- Generator: Adobe Illustrator 16.2.1, SVG Export Plug-In . SVG Version: 6.00 Build 0)  -->
<!DOCTYPE svg PUBLIC "-//W3C//DTD SVG 1.1//EN" "http://www.w3.org/Graphics/SVG/1.1/DTD/svg11.dtd">
<svg version="1.1" id="Laag_1" xmlns="http://www.w3.org/2000/svg" xmlns:xlink="http://www.w3.org/1999/xlink" x="0px" y="0px"
	 width="375px" height="198.5px" viewBox="0 138.512 375 198.5" enable-background="new 0 138.512 375 198.5" xml:space="preserve">
<g>
	<g id="design">
		<g id="Nieuw_symbool_2_">
		</g>
		<g id="Nieuw_symbool_15">
			<g id="Nieuw_symbool">
			</g>
		</g>
		<g id="Nieuw_symbool_4">
			<g id="Nieuw_symbool_7">
			</g>
		</g>
		<g id="Nieuw_symbool_9">
			<g id="Nieuw_symbool_8">
			</g>
		</g>
		<g id="Nieuw_symbool_51">
			<g id="Nieuw_symbool_13">
			</g>
		</g>
		<g id="Nieuw_symbool_14">
		</g>
		<g id="Nieuw_symbool_38">
		</g>
		<g id="Nieuw_symbool_14_1_">
			<g id="Nieuw_symbool_14_2_">
			</g>
		</g>
		<g id="Nieuw_symbool_38_1_">
			<g id="Nieuw_symbool_14_3_">
				<g id="Nieuw_symbool_1_">
				</g>
			</g>
			<g id="Nieuw_symbool_14_4_">
				<g id="Nieuw_symbool_15_1_">
					<g id="Nieuw_symbool_3_">
					</g>
				</g>
				<g id="Nieuw_symbool_5_">
				</g>
				<g id="Nieuw_symbool_8_">
				</g>
			</g>
			<g id="Nieuw_symbool_50">
			</g>
			<g id="Nieuw_symbool_14_5_">
			</g>
			<g id="Nieuw_symbool_15_3_">
				<g id="Nieuw_symbool_6_">
				</g>
			</g>
			<g id="Nieuw_symbool_15_4_">
				<g id="Nieuw_symbool_7_">
				</g>
			</g>
			<g id="Nieuw_symbool_14_6_">
			</g>
			<g id="Nieuw_symbool_14_8_">
			</g>
		</g>
		<g id="Nieuw_symbool_9_">
		</g>
		<g id="Nieuw_symbool_14_7_">
		</g>
		<g>
			<rect x="88.089" y="204.812" fill="#CC6500" width="198.513" height="21.123"/>
			<polygon fill="#E57E30" points="295.582,328.086 295.58,207.793 187.5,147 79.42,207.793 79.42,207.793 79.418,328.086 
				187.5,268.592 91.598,207.793 283.402,207.793 187.5,268.592 			"/>
			<polygon fill="#F1DED0" points="187.5,268.592 271.855,215.113 271.855,160.275 217.361,160.275 158.311,160.275 
				103.814,160.279 103.814,215.539 			"/>
			<rect x="123.671" y="176.017" fill="#677381" width="127.662" height="5.222"/>
			<rect x="123.671" y="188.535" fill="#677381" width="101.79" height="5.223"/>
			<rect x="123.671" y="201.054" fill="#677381" width="113.212" height="5.222"/>
			<g>
				<path fill="#DF8437" d="M206.822,233.801c0,1.1-0.9,2-2,2h-34.646c-1.1,0-2-0.9-2-2v-7.625c0-1.102,0.9-2,2-2h34.646
					c1.1,0,2,0.898,2,2V233.801z"/>
			</g>
			<polygon fill="#CC6500" points="79.418,328.086 295.582,328.086 187.5,268.592 			"/>
		</g>
	</g>
	<g id="flow">
	</g>
</g>
</svg>
