<?xml version="1.0" encoding="UTF-8" standalone="no"?>
<!-- Generated by IcoMoon.io -->

<svg
   xmlns:dc="http://purl.org/dc/elements/1.1/"
   xmlns:cc="http://creativecommons.org/ns#"
   xmlns:rdf="http://www.w3.org/1999/02/22-rdf-syntax-ns#"
   xmlns:svg="http://www.w3.org/2000/svg"
   xmlns="http://www.w3.org/2000/svg"
   xmlns:sodipodi="http://sodipodi.sourceforge.net/DTD/sodipodi-0.dtd"
   xmlns:inkscape="http://www.inkscape.org/namespaces/inkscape"
   version="1.1"
   width="512"
   height="512"
   viewBox="0 0 512 512"
   id="svg2"
   inkscape:version="0.91 r13725"
   sodipodi:docname="paperclip.svg">
  <metadata
     id="metadata11">
    <rdf:RDF>
      <cc:Work
         rdf:about="">
        <dc:format>image/svg+xml</dc:format>
        <dc:type
           rdf:resource="http://purl.org/dc/dcmitype/StillImage" />
        <dc:title></dc:title>
      </cc:Work>
    </rdf:RDF>
  </metadata>
  <defs
     id="defs9" />
  <sodipodi:namedview
     pagecolor="#ffffff"
     bordercolor="#666666"
     borderopacity="1"
     objecttolerance="10"
     gridtolerance="10"
     guidetolerance="10"
     inkscape:pageopacity="0"
     inkscape:pageshadow="2"
     inkscape:window-width="1920"
     inkscape:window-height="1027"
     id="namedview7"
     showgrid="false"
     inkscape:zoom="0.23046875"
     inkscape:cx="402.5"
     inkscape:cy="512"
     inkscape:window-x="-8"
     inkscape:window-y="-8"
     inkscape:window-maximized="1"
     inkscape:current-layer="svg2" />
  <g
     id="icomoon-ignore"
     transform="translate(0,-512)" />
  <path
     d="m 485.05729,416.01312 q 0,38.28521 -25.85083,64.13605 Q 433.35563,506 395.07042,506 350.895,506 318.17245,473.27745 L 63.918856,219.35083 Q 26.94271,181.72016 26.94271,130.67302 q 0,-52.028645 35.994635,-88.350833 Q 98.931981,6 150.96063,6 202.66229,6 240.29297,42.976146 L 438.26375,241.27448 q 3.27209,3.27208 3.27209,7.1987 0,5.23567 -9.9806,15.2157 -9.9806,9.98003 -15.21571,9.9806 -4.25416,0 -7.52625,-3.27208 L 210.51495,71.772083 q -25.85083,-25.196302 -59.22792,-25.196302 -34.68557,0 -58.573382,24.541771 -23.887812,24.541771 -23.88724,59.227918 0,34.35859 24.869323,59.22792 L 347.62235,443.82698 q 20.61515,20.61516 47.4475,20.61516 20.94213,0 34.68557,-13.74344 13.74344,-13.74344 13.74344,-34.68558 0,-26.83234 -20.61516,-47.4475 L 232.76615,178.44807 q -8.50776,-7.85323 -19.63365,-7.85323 -9.48927,0 -15.70703,6.21719 -6.21776,6.21719 -6.21719,15.70703 0,10.47136 8.18078,19.3061 l 134.1623,134.16229 q 3.27208,3.27208 3.27208,7.1987 0,5.23567 -10.1438,15.37947 -10.1438,10.14381 -15.37948,10.14381 -3.92662,0 -7.1987,-3.27209 L 169.93917,241.27505 q -20.61516,-19.96062 -20.61516,-48.75656 0,-26.83234 18.65157,-45.48448 18.65156,-18.65214 45.48447,-18.65156 28.79594,0 48.75657,20.61515 l 190.11755,190.11756 q 32.72255,32.06802 32.72255,76.89796 z"
     id="path5"
     inkscape:connector-curvature="0" />
</svg>
