<?xml version="1.0" encoding="UTF-8" standalone="no"?>
<!-- Generated by IcoMoon.io -->

<svg
   xmlns:dc="http://purl.org/dc/elements/1.1/"
   xmlns:cc="http://creativecommons.org/ns#"
   xmlns:rdf="http://www.w3.org/1999/02/22-rdf-syntax-ns#"
   xmlns:svg="http://www.w3.org/2000/svg"
   xmlns="http://www.w3.org/2000/svg"
   xmlns:sodipodi="http://sodipodi.sourceforge.net/DTD/sodipodi-0.dtd"
   xmlns:inkscape="http://www.inkscape.org/namespaces/inkscape"
   version="1.1"
   width="512"
   height="512"
   viewBox="0 0 512 512"
   id="svg2"
   inkscape:version="0.91 r13725"
   sodipodi:docname="pencil.svg">
  <metadata
     id="metadata11">
    <rdf:RDF>
      <cc:Work
         rdf:about="">
        <dc:format>image/svg+xml</dc:format>
        <dc:type
           rdf:resource="http://purl.org/dc/dcmitype/StillImage" />
        <dc:title></dc:title>
      </cc:Work>
    </rdf:RDF>
  </metadata>
  <defs
     id="defs9" />
  <sodipodi:namedview
     pagecolor="#ffffff"
     bordercolor="#666666"
     borderopacity="1"
     objecttolerance="10"
     gridtolerance="10"
     guidetolerance="10"
     inkscape:pageopacity="0"
     inkscape:pageshadow="2"
     inkscape:window-width="1920"
     inkscape:window-height="1027"
     id="namedview7"
     showgrid="false"
     inkscape:zoom="0.23046875"
     inkscape:cx="512"
     inkscape:cy="512"
     inkscape:window-x="-8"
     inkscape:window-y="-8"
     inkscape:window-maximized="1"
     inkscape:current-layer="svg2" />
  <g
     id="icomoon-ignore"
     transform="translate(0,-512)" />
  <path
     d="m 131.01004,455.44522 28.83166,-28.83166 -74.455539,-74.45554 -28.83166,28.83166 0,33.90104 40.554501,0 0,40.5545 33.901038,0 z M 296.7128,161.42606 q 0,-6.97006 -6.97006,-6.97006 -3.16815,0 -5.38597,2.21782 L 112.6343,328.39629 q -2.21782,2.21782 -2.21782,5.38598 0,6.97005 6.97005,6.97005 3.16816,0 5.38598,-2.21782 L 294.49498,166.81203 q 2.21782,-2.21782 2.21782,-5.38597 z M 279.60398,100.59403 411.40569,232.39574 147.80171,495.99972 16,495.99972 16,364.19801 Z m 216.39547,30.41574 q 0,16.79222 -11.72285,28.51506 L 431.68267,212.11877 299.88095,80.317056 352.47489,28.039713 q 11.40569,-12.039436 28.51507,-12.039436 16.79222,0 28.83166,12.039436 l 74.45554,74.138397 Q 496,114.53469 496,131.00977 Z"
     id="path5"
     inkscape:connector-curvature="0" />
</svg>
