<?xml version="1.0" encoding="UTF-8" standalone="no"?>
<!-- Generated by IcoMoon.io -->

<svg
   xmlns:dc="http://purl.org/dc/elements/1.1/"
   xmlns:cc="http://creativecommons.org/ns#"
   xmlns:rdf="http://www.w3.org/1999/02/22-rdf-syntax-ns#"
   xmlns:svg="http://www.w3.org/2000/svg"
   xmlns="http://www.w3.org/2000/svg"
   xmlns:sodipodi="http://sodipodi.sourceforge.net/DTD/sodipodi-0.dtd"
   xmlns:inkscape="http://www.inkscape.org/namespaces/inkscape"
   version="1.1"
   width="512"
   height="512"
   viewBox="0 0 512 512"
   id="svg2"
   inkscape:version="0.91 r13725"
   sodipodi:docname="phone.svg">
  <metadata
     id="metadata11">
    <rdf:RDF>
      <cc:Work
         rdf:about="">
        <dc:format>image/svg+xml</dc:format>
        <dc:type
           rdf:resource="http://purl.org/dc/dcmitype/StillImage" />
        <dc:title></dc:title>
      </cc:Work>
    </rdf:RDF>
  </metadata>
  <defs
     id="defs9" />
  <sodipodi:namedview
     pagecolor="#ffffff"
     bordercolor="#666666"
     borderopacity="1"
     objecttolerance="10"
     gridtolerance="10"
     guidetolerance="10"
     inkscape:pageopacity="0"
     inkscape:pageshadow="2"
     inkscape:window-width="1920"
     inkscape:window-height="1027"
     id="namedview7"
     showgrid="false"
     inkscape:zoom="0.65186406"
     inkscape:cx="366.6118"
     inkscape:cy="365.29385"
     inkscape:window-x="-8"
     inkscape:window-y="-8"
     inkscape:window-maximized="1"
     inkscape:current-layer="svg2" />
  <g
     id="icomoon-ignore"
     transform="translate(0,-512)" />
  <path
     d="m 506,400.88635 q 0,9.58833 -3.55096,25.03567 -3.55095,15.44734 -7.45738,24.32536 -7.45738,17.7554 -43.32365,37.64175 Q 418.28753,506 385.61674,506 q -9.58833,0 -18.64345,-1.2429 -9.05513,-1.24289 -20.41893,-4.439 -11.36381,-3.19611 -16.86798,-5.14932 -5.50417,-1.95322 -19.70861,-7.27965 -14.20445,-5.32644 -17.40056,-6.39222 Q 257.7761,469.06794 230.43237,452.02223 184.97777,423.96819 136.50479,375.49521 88.031813,327.02223 59.977767,281.56763 42.932058,254.2239 30.50309,219.42279 29.437927,216.22668 24.110871,202.02223 18.783815,187.81779 16.831225,182.31362 14.878634,176.80945 11.681903,165.44564 8.4851722,154.08184 7.2428968,145.02671 6.0006214,135.97159 6,126.38326 6,93.713095 24.110871,60.331993 43.997221,24.46572 61.752624,17.00834 70.630636,13.10191 86.077979,9.55096 101.52532,6 111.11365,6 q 4.97159,0 7.45738,1.06516 6.39222,2.13095 18.82119,26.98889 3.90642,6.747062 10.65349,19.17603 6.74706,12.428969 12.42897,22.549878 5.6819,10.120909 11.00833,18.998299 1.06517,1.420631 6.21449,8.878013 5.14932,7.45738 7.63511,12.6067 2.4858,5.14932 2.4858,10.12091 0,7.10254 -10.12091,17.7554 -10.12091,10.65287 -22.0173,19.53151 -11.89638,8.87863 -22.01729,18.82118 -10.12091,9.94256 -10.12091,16.3354 0,3.19611 1.77548,7.98996 1.77547,4.79385 3.01837,7.27965 1.2429,2.48579 4.97159,8.52254 3.72869,6.03675 4.08354,6.74707 26.98888,48.65071 61.78999,83.45182 34.80111,34.80111 83.45182,61.78999 0.71032,0.35485 6.74707,4.08354 6.03675,3.72869 8.52254,4.97159 2.4858,1.24289 7.27965,3.01837 4.79385,1.77548 7.98996,1.77548 6.39222,0 16.3354,-10.12091 9.94317,-10.12091 18.82118,-22.01729 8.87801,-11.89639 19.5315,-22.0173 10.65349,-10.12091 17.75541,-10.12091 4.97158,0 10.12091,2.48579 5.14932,2.4858 12.6067,7.63512 7.45738,5.14932 8.87801,6.21448 8.87801,5.32644 18.9983,11.00834 10.12029,5.6819 22.54988,12.42897 12.42959,6.74707 19.17603,10.65349 24.85794,12.42897 26.98889,18.82119 1.06516,2.48579 1.06516,7.45738 z"
     id="path5"
     inkscape:connector-curvature="0" />
</svg>
