<?xml version="1.0" encoding="UTF-8" standalone="no"?>
<!-- Generated by IcoMoon.io -->

<svg
   xmlns:dc="http://purl.org/dc/elements/1.1/"
   xmlns:cc="http://creativecommons.org/ns#"
   xmlns:rdf="http://www.w3.org/1999/02/22-rdf-syntax-ns#"
   xmlns:svg="http://www.w3.org/2000/svg"
   xmlns="http://www.w3.org/2000/svg"
   xmlns:sodipodi="http://sodipodi.sourceforge.net/DTD/sodipodi-0.dtd"
   xmlns:inkscape="http://www.inkscape.org/namespaces/inkscape"
   version="1.1"
   width="512"
   height="512"
   viewBox="0 0 512 512"
   id="svg2"
   inkscape:version="0.91 r13725"
   sodipodi:docname="pictures.svg">
  <metadata
     id="metadata11">
    <rdf:RDF>
      <cc:Work
         rdf:about="">
        <dc:format>image/svg+xml</dc:format>
        <dc:type
           rdf:resource="http://purl.org/dc/dcmitype/StillImage" />
        <dc:title></dc:title>
      </cc:Work>
    </rdf:RDF>
  </metadata>
  <defs
     id="defs9" />
  <sodipodi:namedview
     pagecolor="#ffffff"
     bordercolor="#666666"
     borderopacity="1"
     objecttolerance="10"
     gridtolerance="10"
     guidetolerance="10"
     inkscape:pageopacity="0"
     inkscape:pageshadow="2"
     inkscape:window-width="1920"
     inkscape:window-height="1027"
     id="namedview7"
     showgrid="false"
     inkscape:zoom="0.4609375"
     inkscape:cx="695.21563"
     inkscape:cy="353.95098"
     inkscape:window-x="-8"
     inkscape:window-y="-8"
     inkscape:window-maximized="1"
     inkscape:current-layer="svg2" />
  <g
     id="icomoon-ignore"
     transform="translate(0,-512)" />
  <path
     d="m 16,495.18651 0,-440.326577 23.58737,0 0,416.739207 416.83351,0 0,23.58737 z m 51.46711,-478.373015 0,428.509045 428.53289,0 0,-428.509045 -428.53289,0 z m 203.5342,45.547224 c 31.84258,0 57.67097,25.898852 57.67097,57.694291 0,31.86642 -25.8517,57.67097 -57.67097,57.67097 -31.88973,0 -57.71812,-25.82786 -57.71812,-57.67097 0,-31.81928 25.8517,-57.694291 57.71812,-57.694291 z M 91.05449,384.04317 l 85.716,-137.86762 93.54686,150.48672 156.7605,-252.17117 45.33478,72.9083 0,204.3363 -381.35814,0 0,-37.69253 z"
     id="path5"
     inkscape:connector-curvature="0" />
</svg>
