<?xml version="1.0" encoding="UTF-8" standalone="no"?>
<!-- Generated by IcoMoon.io -->

<svg
   xmlns:dc="http://purl.org/dc/elements/1.1/"
   xmlns:cc="http://creativecommons.org/ns#"
   xmlns:rdf="http://www.w3.org/1999/02/22-rdf-syntax-ns#"
   xmlns:svg="http://www.w3.org/2000/svg"
   xmlns="http://www.w3.org/2000/svg"
   xmlns:sodipodi="http://sodipodi.sourceforge.net/DTD/sodipodi-0.dtd"
   xmlns:inkscape="http://www.inkscape.org/namespaces/inkscape"
   version="1.1"
   width="512"
   height="512"
   viewBox="0 0 512 512"
   id="svg2"
   inkscape:version="0.91 r13725"
   sodipodi:docname="profile.svg">
  <metadata
     id="metadata11">
    <rdf:RDF>
      <cc:Work
         rdf:about="">
        <dc:format>image/svg+xml</dc:format>
        <dc:type
           rdf:resource="http://purl.org/dc/dcmitype/StillImage" />
        <dc:title></dc:title>
      </cc:Work>
    </rdf:RDF>
  </metadata>
  <defs
     id="defs9" />
  <sodipodi:namedview
     pagecolor="#ffffff"
     bordercolor="#666666"
     borderopacity="1"
     objecttolerance="10"
     gridtolerance="10"
     guidetolerance="10"
     inkscape:pageopacity="0"
     inkscape:pageshadow="2"
     inkscape:window-width="1920"
     inkscape:window-height="1027"
     id="namedview7"
     showgrid="false"
     inkscape:zoom="0.23046875"
     inkscape:cx="556.5"
     inkscape:cy="512"
     inkscape:window-x="-8"
     inkscape:window-y="-8"
     inkscape:window-maximized="1"
     inkscape:current-layer="svg2" />
  <g
     id="icomoon-ignore"
     transform="translate(0,-512)" />
  <path
     d="m 381.6952,141.69582 c 0,69.42017 -56.27564,125.69582 -125.69582,125.69582 -69.42017,0 -125.69582,-56.27565 -125.69582,-125.69582 C 130.30356,72.275645 186.57921,16 255.99938,16 325.41956,16 381.6952,72.275645 381.6952,141.69582 Z m -28.08202,153.28397 c -28.2189,18.00737 -61.65394,28.57589 -97.6138,28.57589 -35.95986,0 -69.36715,-10.56852 -97.61379,-28.57589 C 76.22597,319.52027 18.93731,373.95486 18.93731,437.33825 l 0,58.66175 C 88.22246,479.47485 169.17361,469.81206 256,469.81206 c 86.82639,0 167.7498,9.66279 237.06269,26.18794 l 0,-58.66175 c 0,-63.38339 -57.28928,-117.81736 -139.44828,-142.35846 z"
     id="path5"
     inkscape:connector-curvature="0" />
</svg>
