<svg xmlns="http://www.w3.org/2000/svg" width="13" height="12" viewBox="0 0 13 12">
    <g fill="none" fill-rule="evenodd">
        <path d="M0 0L12 0 12 12 0 12z" transform="translate(.778)"/>
        <path fill="#917F78" d="M6.049 2.237c2.508 0 4.549 2.078 4.549 4.631 0 2.554-2.04 4.632-4.549 4.632C3.541 11.5 1.5 9.422 1.5 6.868c0-2.553 2.04-4.631 4.549-4.631zm0 1.158c-1.882 0-3.412 1.558-3.412 3.473 0 1.916 1.53 3.474 3.412 3.474s3.412-1.558 3.412-3.474c0-1.915-1.53-3.473-3.412-3.473zm.569 1.158v2.894H5.48V4.553h1.138zm3.245-2.725L11 2.985l-.804.82-1.137-1.159.804-.818zM7.755.5v1.158H4.343V.5h3.412z" transform="translate(.778)"/>
        <path fill-rule="nonzero" d="M0 0H12V12H0z" transform="translate(.778)"/>
    </g>
</svg>
