<svg width="24" height="24" viewBox="0 0 24 24" fill="none" xmlns="http://www.w3.org/2000/svg">
    <path d="M17.9994 22C17.9994 13.2238 10.7762 6.00063 2 6.00063V2C12.97 2 22 11.03 22 22H17.9994ZM4.74063 16.5119C5.4689 16.5132 6.16697 16.8031 6.68194 17.3181C7.19691 17.833 7.4868 18.5311 7.48812 19.2594C7.48812 20.77 6.24813 22 4.73438 22C3.22375 22 2 20.7725 2 19.2594C2 17.7463 3.23063 16.5119 4.74063 16.5119ZM15.2588 22H11.3687C11.3687 16.86 7.14 12.6281 2 12.6281V8.74125C9.27188 8.74125 15.2588 14.7275 15.2588 22Z" fill="#4C4642"/>
</svg>
