<?xml version="1.0" encoding="UTF-8" standalone="no"?>
<!-- Generated by IcoMoon.io -->

<svg
   xmlns:dc="http://purl.org/dc/elements/1.1/"
   xmlns:cc="http://creativecommons.org/ns#"
   xmlns:rdf="http://www.w3.org/1999/02/22-rdf-syntax-ns#"
   xmlns:svg="http://www.w3.org/2000/svg"
   xmlns="http://www.w3.org/2000/svg"
   xmlns:sodipodi="http://sodipodi.sourceforge.net/DTD/sodipodi-0.dtd"
   xmlns:inkscape="http://www.inkscape.org/namespaces/inkscape"
   version="1.1"
   width="512"
   height="512"
   viewBox="0 0 512 512.00001"
   id="svg2"
   inkscape:version="0.91 r13725"
   sodipodi:docname="share-normal.svg">
  <metadata
     id="metadata10">
    <rdf:RDF>
      <cc:Work
         rdf:about="">
        <dc:format>image/svg+xml</dc:format>
        <dc:type
           rdf:resource="http://purl.org/dc/dcmitype/StillImage" />
        <dc:title></dc:title>
      </cc:Work>
    </rdf:RDF>
  </metadata>
  <defs
     id="defs8" />
  <sodipodi:namedview
     pagecolor="#ffffff"
     bordercolor="#666666"
     borderopacity="1"
     objecttolerance="10"
     gridtolerance="10"
     guidetolerance="10"
     inkscape:pageopacity="0"
     inkscape:pageshadow="2"
     inkscape:window-width="1920"
     inkscape:window-height="1027"
     id="namedview6"
     showgrid="false"
     units="px"
     inkscape:zoom="1.4142136"
     inkscape:cx="238.73207"
     inkscape:cy="267.10566"
     inkscape:window-x="-8"
     inkscape:window-y="-8"
     inkscape:window-maximized="1"
     inkscape:current-layer="svg2" />
  <path
     d="m 405.3324,366.2912 c -14.8656,0 -28.3328,5.244 -39.2312,13.7104 L 169.8236,267.6888 c 0.6992,-3.8304 1.1704,-7.7216 1.1704,-11.7344 0,-3.2528 -0.4864,-6.384 -0.9576,-9.5 L 364.3076,130.4176 c 11.1416,9.348 25.3536,15.2304 41.0552,15.2304 35.492,0 64.2656,-28.8192 64.2656,-64.4024 0,-35.4464 -28.7888,-64.22 -64.2656,-64.22 -35.5224,0 -64.3112,28.7888 -64.3112,64.22 0,4.4688 0.4408,8.816 1.3072,13.0112 L 150.3372,208.956 c -11.4608,-10.6552 -26.752,-17.2976 -43.6544,-17.2976 -35.5224,0 -64.3112,28.7888 -64.3112,64.3112 0,35.492 28.7888,64.3112 64.3112,64.3112 16.1576,0 30.6888,-6.156 41.952,-15.9448 l 194.332,111.1576 c -1.2008,4.864 -1.9912,9.9256 -1.9912,15.124 0,35.568 28.7888,64.3568 64.3112,64.3568 35.492,0 64.2656,-28.7888 64.2656,-64.3568 0.0456,-35.492 -28.7584,-64.3112 -64.22,-64.3112 z"
     id="path4"
     inkscape:connector-curvature="0" />
</svg>
