<?xml version="1.0" encoding="UTF-8" standalone="no"?>
<!-- Generated by IcoMoon.io -->

<svg
   xmlns:dc="http://purl.org/dc/elements/1.1/"
   xmlns:cc="http://creativecommons.org/ns#"
   xmlns:rdf="http://www.w3.org/1999/02/22-rdf-syntax-ns#"
   xmlns:svg="http://www.w3.org/2000/svg"
   xmlns="http://www.w3.org/2000/svg"
   xmlns:sodipodi="http://sodipodi.sourceforge.net/DTD/sodipodi-0.dtd"
   xmlns:inkscape="http://www.inkscape.org/namespaces/inkscape"
   version="1.1"
   width="512"
   height="512"
   viewBox="0 0 512 512"
   id="svg2"
   inkscape:version="0.91 r13725"
   sodipodi:docname="share-thin.svg">
  <metadata
     id="metadata11">
    <rdf:RDF>
      <cc:Work
         rdf:about="">
        <dc:format>image/svg+xml</dc:format>
        <dc:type
           rdf:resource="http://purl.org/dc/dcmitype/StillImage" />
        <dc:title></dc:title>
      </cc:Work>
    </rdf:RDF>
  </metadata>
  <defs
     id="defs9" />
  <sodipodi:namedview
     pagecolor="#ffffff"
     bordercolor="#666666"
     borderopacity="1"
     objecttolerance="10"
     gridtolerance="10"
     guidetolerance="10"
     inkscape:pageopacity="0"
     inkscape:pageshadow="2"
     inkscape:window-width="1920"
     inkscape:window-height="1027"
     id="namedview7"
     showgrid="false"
     inkscape:zoom="0.23046875"
     inkscape:cx="556.5"
     inkscape:cy="512"
     inkscape:window-x="-8"
     inkscape:window-y="-8"
     inkscape:window-maximized="1"
     inkscape:current-layer="svg2" />
  <g
     id="icomoon-ignore"
     transform="translate(0,-512)" />
  <path
     d="M 398.86132,70.494088 411.87509,92.310434 113.16262,270.5012 100.14885,248.68485 398.86132,70.494088 Z M 112.98307,244.97754 411.59123,415.81696 399.00154,437.82255 100.39338,266.98313 112.98307,244.97754 Z M 469.6285,81.28826 c 0,35.55402 -28.82911,64.38313 -64.30675,64.38313 -35.50329,0 -64.30675,-28.82911 -64.30675,-64.38313 0,-35.452559 28.80346,-64.230937 64.30675,-64.230937 35.47764,0 64.30675,28.778378 64.30675,64.230937 z m 0,349.34767 c 0,35.51583 -28.79092,64.30675 -64.30675,64.30675 -35.51583,0 -64.30675,-28.79092 -64.30675,-64.30675 0,-35.51583 28.79092,-64.30675 64.30675,-64.30675 35.51583,0 64.30675,28.79092 64.30675,64.30675 z M 170.985,255.98718 c 0,35.51583 -28.79092,64.30675 -64.30675,64.30675 -35.51583,0 -64.30675,-28.79092 -64.30675,-64.30675 0,-35.51583 28.79092,-64.30675 64.30675,-64.30675 35.51583,0 64.30675,28.79092 64.30675,64.30675 z"
     id="path5"
     inkscape:connector-curvature="0" />
</svg>
