<?xml version="1.0" encoding="utf-8"?>
<!-- Generator: Adobe Illustrator 21.0.2, SVG Export Plug-In . SVG Version: 6.00 Build 0)  -->
<svg version="1.1"
	 id="svg2" inkscape:version="0.91 r13725" sodipodi:docname="twitter.svg" xmlns:cc="http://creativecommons.org/ns#" xmlns:dc="http://purl.org/dc/elements/1.1/" xmlns:inkscape="http://www.inkscape.org/namespaces/inkscape" xmlns:rdf="http://www.w3.org/1999/02/22-rdf-syntax-ns#" xmlns:sodipodi="http://sodipodi.sourceforge.net/DTD/sodipodi-0.dtd" xmlns:svg="http://www.w3.org/2000/svg"
	 xmlns="http://www.w3.org/2000/svg" xmlns:xlink="http://www.w3.org/1999/xlink" x="0px" y="0px" viewBox="0 0 512 512"
	 style="enable-background:new 0 0 512 512;" xml:space="preserve">
<sodipodi:namedview  bordercolor="#666666" borderopacity="1" gridtolerance="10" guidetolerance="10" id="namedview6" inkscape:current-layer="svg2" inkscape:cx="228.25733" inkscape:cy="141.49792" inkscape:pageopacity="0" inkscape:pageshadow="2" inkscape:window-height="1027" inkscape:window-maximized="1" inkscape:window-width="1920" inkscape:window-x="-8" inkscape:window-y="-8" inkscape:zoom="0.921875" objecttolerance="10" pagecolor="#ffffff" showgrid="false">
	</sodipodi:namedview>
<path d="M14.9,277c-1,0-1.8,0.8-2,1.9l-3.6,27.4l3.6,26.9c0.1,1.1,0.9,1.9,2,1.9c1,0,1.8-0.8,2-1.9l0,0v0c0,0,0,0,0,0l4.3-26.9
	l-4.3-27.4C16.7,277.8,15.9,277,14.9,277z M35.2,262c-0.2-1.2-1-2-2.1-2c-1,0-1.9,0.8-2.1,2c0,0-4.9,44.3-4.9,44.3l4.9,43.3
	c0.1,1.2,1,2,2.1,2c1,0,1.9-0.8,2-2l5.5-43.3L35.2,262z M111.6,221.2c-2,0-3.6,1.6-3.7,3.7l-3.9,81.5l3.9,52.7
	c0.1,2.1,1.7,3.7,3.7,3.7c2,0,3.6-1.6,3.7-3.7v0l4.4-52.7l-4.4-81.5C115.2,222.8,113.6,221.2,111.6,221.2z M72,249.5
	c-1.5,0-2.8,1.2-2.9,2.8l-4.4,54l4.4,52.3c0.1,1.6,1.4,2.8,2.9,2.8c1.5,0,2.8-1.2,2.9-2.8l4.9-52.3l-4.9-54
	C74.8,250.7,73.5,249.5,72,249.5z M151.8,362.8c2.5,0,4.5-2,4.6-4.5l3.8-51.8l-3.8-108.5c-0.1-2.5-2.1-4.5-4.6-4.5
	c-2.5,0-4.5,2-4.6,4.5c0,0-3.4,108.5-3.4,108.5l3.4,51.8C147.3,360.8,149.3,362.8,151.8,362.8z M234.1,363c3.4,0,6.2-2.8,6.3-6.2v0
	v0l2.6-50.3l-2.6-125.4c-0.1-3.4-2.9-6.2-6.3-6.2c-3.4,0-6.2,2.8-6.3,6.2l-2.4,125.3c0,0.1,2.4,50.4,2.4,50.4
	C227.9,360.2,230.7,363,234.1,363z M192.6,362.8c3,0,5.3-2.4,5.4-5.4v0l3.2-51l-3.2-109.3c-0.1-3-2.5-5.4-5.4-5.4
	c-3,0-5.4,2.4-5.4,5.4l-2.9,109.3l2.9,51C187.3,360.4,189.7,362.8,192.6,362.8z M91.7,362.3c1.8,0,3.2-1.4,3.3-3.3l4.7-52.7
	l-4.7-50.1c-0.1-1.9-1.5-3.2-3.3-3.2c-1.8,0-3.2,1.4-3.3,3.3l-4.1,50.1l4.1,52.7C88.5,360.9,90,362.3,91.7,362.3z M52.5,359.4
	c1.3,0,2.3-1,2.5-2.4l5.2-50.7L55,253.8c-0.2-1.4-1.2-2.4-2.5-2.4c-1.3,0-2.3,1-2.5,2.4c0,0-4.6,52.6-4.6,52.6L50,357
	C50.1,358.4,51.2,359.4,52.5,359.4z M213.3,195.3c-3.2,0-5.8,2.6-5.8,5.8l-2.6,105.3l2.6,50.7c0.1,3.2,2.6,5.8,5.8,5.8
	c3.2,0,5.8-2.5,5.8-5.8v0l2.9-50.7l-2.9-105.4C219.1,197.8,216.5,195.3,213.3,195.3z M131.6,362.9c2.2,0,4-1.8,4.2-4.1l4.1-52.3
	l-4.1-100.2c-0.1-2.3-1.9-4.1-4.2-4.1c-2.2,0-4.1,1.8-4.2,4.1c0,0-3.6,100.2-3.6,100.2l3.6,52.4
	C127.6,361.1,129.4,362.9,131.6,362.9z M177.1,357.9L177.1,357.9l3.5-51.5l-3.5-112.2c-0.1-2.8-2.3-5-5-5c-2.7,0-4.9,2.2-5,5
	L164,306.4l3.1,51.5c0.1,2.8,2.3,4.9,5,4.9C174.9,362.9,177,360.7,177.1,357.9L177.1,357.9z M442,241.7c-8.3,0-16.2,1.7-23.5,4.7
	c-4.8-54.7-50.7-97.6-106.7-97.6c-13.7,0-27,2.7-38.8,7.3c-4.6,1.8-5.8,3.6-5.8,7.1v192.6c0,3.7,2.9,6.8,6.6,7.2
	c0.2,0,167.2,0.1,168.2,0.1c33.5,0,60.7-27.2,60.7-60.7S475.5,241.7,442,241.7z M254.8,163.1c-3.6,0-6.6,3-6.7,6.7l-2.7,136.7
	l2.7,49.6c0,3.6,3,6.6,6.7,6.6c3.6,0,6.6-3,6.7-6.7v0.1l3-49.6l-3-136.7C261.5,166.1,258.5,163.1,254.8,163.1z"/>
</svg>
