<svg width="21" height="20" viewBox="0 0 21 20" fill="none" xmlns="http://www.w3.org/2000/svg">
    <path d="M10.4965 1.66666C5.90349 1.66666 2.16669 5.40416 2.16669 9.99721C2.16669 14.5944 5.90349 18.3333 10.4965 18.3333C15.0938 18.3333 18.8334 14.5937 18.8334 9.99721C18.8334 5.40416 15.0938 1.66666 10.4965 1.66666ZM6.26946 13.0583C7.22323 12.7662 8.21501 12.6168 9.21252 12.6153C10.8889 12.6153 12.5438 13.0403 13.9986 13.8444C14.0854 13.8917 14.1639 14.0472 14.2 14.2417C14.2347 14.4361 14.2209 14.6354 14.1639 14.7389C14.1371 14.7881 14.1007 14.8315 14.057 14.8666C14.0133 14.9016 13.963 14.9277 13.9091 14.9432C13.8553 14.9587 13.7989 14.9633 13.7432 14.9569C13.6875 14.9504 13.6336 14.933 13.5847 14.9055C12.5161 14.3193 11.3407 13.9537 10.1281 13.8303C8.91549 13.707 7.69048 13.8285 6.52571 14.1875C6.47224 14.2048 6.41587 14.2113 6.35987 14.2065C6.30387 14.2018 6.24937 14.186 6.19954 14.16C6.14971 14.1341 6.10554 14.0984 6.06962 14.0552C6.0337 14.012 6.00673 13.9621 5.9903 13.9083C5.91599 13.6653 6.06946 13.1236 6.26946 13.0583ZM5.90627 9.98888C6.98373 9.69616 8.09531 9.54787 9.21183 9.54791C11.2215 9.54791 13.2167 10.034 14.9827 10.9549C15.107 11.0174 15.1979 11.1243 15.2396 11.2549C15.2607 11.3208 15.2683 11.3903 15.2621 11.4592C15.2559 11.5281 15.236 11.5951 15.2035 11.6562C15.0459 11.9646 14.8611 12.1722 14.7452 12.1722C14.6606 12.1718 14.5772 12.1514 14.5021 12.1125C12.8696 11.2602 11.0541 10.8183 9.21252 10.825C8.18817 10.8229 7.16825 10.9596 6.18058 11.2312C6.11469 11.2493 6.0459 11.2541 5.97813 11.2455C5.91036 11.237 5.84495 11.2151 5.78562 11.1813C5.7263 11.1474 5.67422 11.1022 5.63236 11.0482C5.59051 10.9942 5.5597 10.9325 5.54169 10.8667C5.46391 10.5736 5.64238 10.0611 5.90627 9.98888ZM5.81252 7.98471C5.73436 8.00477 5.65299 8.00915 5.57313 7.9976C5.49326 7.98605 5.41647 7.9588 5.34719 7.91741C5.27792 7.87603 5.21752 7.82133 5.1695 7.75648C5.12147 7.69163 5.08677 7.61791 5.06738 7.53957C4.98197 7.19374 5.19794 6.79235 5.51183 6.71318C6.7226 6.41497 7.96487 6.26365 9.21183 6.26249C11.6077 6.26249 13.9035 6.80138 16.034 7.86457C16.1804 7.93736 16.2919 8.0653 16.344 8.22026C16.3961 8.37523 16.3845 8.54453 16.3118 8.69096C16.2125 8.89096 15.9972 9.10624 15.7597 9.10624C15.6666 9.10589 15.5747 9.08528 15.4903 9.04582C13.5421 8.06849 11.3914 7.56276 9.21183 7.56943C8.07641 7.56943 6.93266 7.70902 5.81252 7.98471Z" fill="#191919"/>
</svg>
