<?xml version="1.0" encoding="UTF-8" standalone="no"?>
<!-- Generated by IcoMoon.io -->

<svg
   xmlns:dc="http://purl.org/dc/elements/1.1/"
   xmlns:cc="http://creativecommons.org/ns#"
   xmlns:rdf="http://www.w3.org/1999/02/22-rdf-syntax-ns#"
   xmlns:svg="http://www.w3.org/2000/svg"
   xmlns="http://www.w3.org/2000/svg"
   xmlns:sodipodi="http://sodipodi.sourceforge.net/DTD/sodipodi-0.dtd"
   xmlns:inkscape="http://www.inkscape.org/namespaces/inkscape"
   version="1.1"
   width="512"
   height="512"
   viewBox="0 0 512 512"
   id="svg2"
   inkscape:version="0.91 r13725"
   sodipodi:docname="spyglass.svg">
  <metadata
     id="metadata11">
    <rdf:RDF>
      <cc:Work
         rdf:about="">
        <dc:format>image/svg+xml</dc:format>
        <dc:type
           rdf:resource="http://purl.org/dc/dcmitype/StillImage" />
        <dc:title></dc:title>
      </cc:Work>
    </rdf:RDF>
  </metadata>
  <defs
     id="defs9" />
  <sodipodi:namedview
     pagecolor="#ffffff"
     bordercolor="#666666"
     borderopacity="1"
     objecttolerance="10"
     gridtolerance="10"
     guidetolerance="10"
     inkscape:pageopacity="0"
     inkscape:pageshadow="2"
     inkscape:window-width="1920"
     inkscape:window-height="1027"
     id="namedview7"
     showgrid="false"
     inkscape:zoom="0.65186406"
     inkscape:cx="506.84199"
     inkscape:cy="240.11427"
     inkscape:window-x="-8"
     inkscape:window-y="-8"
     inkscape:window-maximized="1"
     inkscape:current-layer="svg2" />
  <g
     id="icomoon-ignore"
     transform="translate(0,-512)" />
  <path
     d="m 193.88925,363.875 c -93.4065,0 -169.405,-75.9985 -169.405,-169.4275 0,-93.429 75.9985,-169.472 169.405,-169.472 93.4065,0 169.405,76.043 169.405,169.472 0,93.429 -75.9985,169.4275 -169.405,169.4275 z m 0,-294.4 c -68.875,0 -124.8835,56.053 -124.8835,124.9505 0,68.875 56.0305,124.9055 124.8835,124.9055 68.853,0 124.8835,-56.053 124.8835,-124.9055 0,-68.8975 -56.0085,-124.9505 -124.8835,-124.9505 z m 120.243,212.6845 173.3835,173.3835 -31.4815,31.4815 -173.3835,-173.3835 31.4815,-31.4815 z"
     id="path5"
     inkscape:connector-curvature="0" />
</svg>
