<?xml version="1.0" encoding="UTF-8" standalone="no"?>
<!-- Generated by IcoMoon.io -->

<svg
   xmlns:dc="http://purl.org/dc/elements/1.1/"
   xmlns:cc="http://creativecommons.org/ns#"
   xmlns:rdf="http://www.w3.org/1999/02/22-rdf-syntax-ns#"
   xmlns:svg="http://www.w3.org/2000/svg"
   xmlns="http://www.w3.org/2000/svg"
   xmlns:sodipodi="http://sodipodi.sourceforge.net/DTD/sodipodi-0.dtd"
   xmlns:inkscape="http://www.inkscape.org/namespaces/inkscape"
   version="1.1"
   width="512"
   height="512"
   viewBox="0 0 512 512"
   id="svg2"
   inkscape:version="0.91 r13725"
   sodipodi:docname="stitcher.svg">
  <metadata
     id="metadata13">
    <rdf:RDF>
      <cc:Work
         rdf:about="">
        <dc:format>image/svg+xml</dc:format>
        <dc:type
           rdf:resource="http://purl.org/dc/dcmitype/StillImage" />
        <dc:title></dc:title>
      </cc:Work>
    </rdf:RDF>
  </metadata>
  <defs
     id="defs11" />
  <sodipodi:namedview
     pagecolor="#ffffff"
     bordercolor="#666666"
     borderopacity="1"
     objecttolerance="10"
     gridtolerance="10"
     guidetolerance="10"
     inkscape:pageopacity="0"
     inkscape:pageshadow="2"
     inkscape:window-width="1920"
     inkscape:window-height="1027"
     id="namedview9"
     showgrid="false"
     inkscape:zoom="0.4609375"
     inkscape:cx="643.17823"
     inkscape:cy="-84.41309"
     inkscape:window-x="1912"
     inkscape:window-y="-5"
     inkscape:window-maximized="1"
     inkscape:current-layer="svg2" />
  <g
     id="g4240"
     transform="matrix(0.98039215,0,0,0.98039215,5.0196114,5.0196171)">
    <path
       inkscape:connector-curvature="0"
       id="rect4156"
       d="m 0.99999633,170.93855 0,161.36159 31.80024467,0 0,-161.36159 -31.80024467,0 z m 41.22473767,0 0,161.36159 4.710127,0 0,-161.36159 -4.710127,0 z m 10.009814,0 0,161.36159 21.200871,0 0,-161.36159 -21.200871,0 z m 30.035804,0 0,161.36159 110.714478,0 0,-161.36159 -110.714478,0 z m 118.372408,0 0,161.36159 9.42238,0 0,-161.36159 -9.42238,0 z m 17.07819,0 0,161.36159 128.38222,0 0,-161.36159 -128.38222,0 z m 148.99353,0 0,161.36159 4.12268,0 0,-161.36159 -4.12268,0 z m 30.62537,0 0,161.36159 5.29968,0 0,-161.36159 -5.29968,0 z m 19.4343,0 0,161.36159 94.22585,0 0,-161.36159 -94.22585,0 z"
       style="fill:#000000;fill-opacity:1" />
    <rect
       y="127.91119"
       x="375.849"
       height="256.17761"
       width="15.90068"
       id="rect4232"
       style="fill:#000000;fill-opacity:1" />
  </g>
</svg>
