<?xml version="1.0" encoding="UTF-8" standalone="no"?>
<!-- Generated by IcoMoon.io -->

<svg
   xmlns:dc="http://purl.org/dc/elements/1.1/"
   xmlns:cc="http://creativecommons.org/ns#"
   xmlns:rdf="http://www.w3.org/1999/02/22-rdf-syntax-ns#"
   xmlns:svg="http://www.w3.org/2000/svg"
   xmlns="http://www.w3.org/2000/svg"
   xmlns:sodipodi="http://sodipodi.sourceforge.net/DTD/sodipodi-0.dtd"
   xmlns:inkscape="http://www.inkscape.org/namespaces/inkscape"
   version="1.1"
   width="512"
   height="512"
   viewBox="0 0 512 512"
   id="svg2"
   inkscape:version="0.91 r13725"
   sodipodi:docname="tunein.svg">
  <metadata
     id="metadata13">
    <rdf:RDF>
      <cc:Work
         rdf:about="">
        <dc:format>image/svg+xml</dc:format>
        <dc:type
           rdf:resource="http://purl.org/dc/dcmitype/StillImage" />
        <dc:title />
      </cc:Work>
    </rdf:RDF>
  </metadata>
  <defs
     id="defs11" />
  <sodipodi:namedview
     pagecolor="#ffffff"
     bordercolor="#666666"
     borderopacity="1"
     objecttolerance="10"
     gridtolerance="10"
     guidetolerance="10"
     inkscape:pageopacity="0"
     inkscape:pageshadow="2"
     inkscape:window-width="1920"
     inkscape:window-height="1027"
     id="namedview9"
     showgrid="false"
     inkscape:zoom="0.921875"
     inkscape:cx="317.48472"
     inkscape:cy="150.46955"
     inkscape:window-x="1912"
     inkscape:window-y="-5"
     inkscape:window-maximized="1"
     inkscape:current-layer="svg2"
     showguides="true"
     inkscape:guide-bbox="true" />
  <g
     id="g4151"
     transform="translate(-1.9999963,-1.0000038)">
    <ellipse
       ry="83.342491"
       rx="84.224426"
       cy="85.342499"
       cx="249.22064"
       id="path4178"
       style="fill:#000000;fill-opacity:1" />
    <path
       id="rect4180"
       d="m 20.08297,190.26795 c -1.801676,0 -3.252121,1.45045 -3.252121,3.25213 l 0,66.72882 72.016691,0 c 1.801675,0 3.252121,1.45045 3.252121,3.25212 l 0,74.93217 227.508739,0 c 1.80168,0 3.25212,-1.45044 3.25212,-3.25212 l 0,-68.38347 -71.91507,0 c -1.80168,0 -3.25213,-1.45044 -3.25213,-3.25212 l 0,-73.27753 -227.61035,0 z"
       style="fill:#000000;fill-opacity:1"
       inkscape:connector-curvature="0" />
    <path
       id="rect4182"
       d="m 417.21802,190.26795 0,73.09967 -73.26799,0 0,71.81345 c 0,1.80168 1.45045,3.25212 3.25212,3.25212 l 79.06083,0 0,-69.00913 c 0,-1.80167 1.45045,-3.25212 3.25213,-3.25212 l 69.65383,0 0,-72.65186 c 0,-1.80168 -1.45045,-3.25213 -3.25213,-3.25213 l -78.69879,0 z"
       style="fill:#000000;fill-opacity:1"
       inkscape:connector-curvature="0" />
    <path
       id="rect4184"
       d="m 178.8303,362.07213 c -1.80168,0 -3.25212,1.45044 -3.25212,3.25212 l 0,143.42362 c 0,1.80168 1.45044,3.25213 3.25212,3.25213 l 71.97859,0 0,-71.00359 c 0,-1.80168 1.45045,-3.25213 3.25212,-3.25213 l 68.79951,0 0,-72.42003 c 0,-1.80168 -1.45044,-3.25212 -3.25212,-3.25212 l -140.7781,0 z"
       style="fill:#000000;fill-opacity:1"
       inkscape:connector-curvature="0" />
    <ellipse
       ry="74.082207"
       rx="74.082222"
       cy="264.35071"
       cx="90.913986"
       id="path4192"
       style="fill:#000000;fill-opacity:1" />
    <ellipse
       ry="74.082207"
       rx="73.641251"
       cy="264.35071"
       cx="249.2206"
       id="path4194"
       style="fill:#000000;fill-opacity:1" />
    <ellipse
       ry="74.964149"
       rx="73.641251"
       cy="437.03571"
       cx="249.2206"
       id="path4196"
       style="fill:#000000;fill-opacity:1" />
    <circle
       r="74.082207"
       cy="264.35071"
       cx="418.03149"
       id="path4204"
       style="fill:#000000;fill-opacity:1" />
    <circle
       r="72.759323"
       cy="265.67361"
       cx="426.40982"
       id="path4206"
       style="fill:#000000;fill-opacity:1" />
  </g>
</svg>
