<?xml version="1.0" encoding="UTF-8" standalone="no"?>
<!-- Generated by IcoMoon.io -->

<svg
   xmlns:dc="http://purl.org/dc/elements/1.1/"
   xmlns:cc="http://creativecommons.org/ns#"
   xmlns:rdf="http://www.w3.org/1999/02/22-rdf-syntax-ns#"
   xmlns:svg="http://www.w3.org/2000/svg"
   xmlns="http://www.w3.org/2000/svg"
   xmlns:sodipodi="http://sodipodi.sourceforge.net/DTD/sodipodi-0.dtd"
   xmlns:inkscape="http://www.inkscape.org/namespaces/inkscape"
   version="1.1"
   width="512"
   height="512"
   viewBox="0 0 512 512"
   id="svg2"
   inkscape:version="0.91 r13725"
   sodipodi:docname="twitter.svg">
  <metadata
     id="metadata10">
    <rdf:RDF>
      <cc:Work
         rdf:about="">
        <dc:format>image/svg+xml</dc:format>
        <dc:type
           rdf:resource="http://purl.org/dc/dcmitype/StillImage" />
        <dc:title></dc:title>
      </cc:Work>
    </rdf:RDF>
  </metadata>
  <defs
     id="defs8" />
  <sodipodi:namedview
     pagecolor="#ffffff"
     bordercolor="#666666"
     borderopacity="1"
     objecttolerance="10"
     gridtolerance="10"
     guidetolerance="10"
     inkscape:pageopacity="0"
     inkscape:pageshadow="2"
     inkscape:window-width="1920"
     inkscape:window-height="1027"
     id="namedview6"
     showgrid="false"
     inkscape:zoom="0.921875"
     inkscape:cx="228.25733"
     inkscape:cy="141.49792"
     inkscape:window-x="-8"
     inkscape:window-y="-8"
     inkscape:window-maximized="1"
     inkscape:current-layer="svg2" />
  <path
     d="m 502.84912,102.80114 c -11.89339,17.44545 -26.23622,33.50289 -43.46395,47.24697 -2.42223,2.0412 -6.2869,3.86467 -6.9673,5.74258 -1.33358,4.32734 0,13.28141 0,18.31637 0,41.72212 -9.55281,74.21803 -22.12661,104.91768 -14.20675,34.75483 -32.44147,62.97782 -56.41876,88.64251 -45.94061,48.85272 -108.78236,85.26773 -198.48629,89.35013 l -22.53485,0 C 94.500256,453.9964 45.701968,436.1427 9.15088,411.45779 c 57.01752,6.74957 110.95963,-12.41049 145.85054,-40.08917 0.51711,-0.21772 2.8849,-0.48988 2.09564,-1.93233 -50.21352,-3.86467 -79.525156,-31.08067 -92.806564,-70.43501 14.125104,2.42222 31.869936,2.42222 44.307644,-2.15006 -47.546348,-12.4105 -78.028268,-44.11714 -80.39606,-100.31818 12.356064,6.2869 27.460944,12.00226 44.307648,12.16555 C 55.608592,196.04315 39.714448,176.99195 32.55664,151.81715 25.099456,125.30877 29.83504,94.173662 42.544912,73.652798 90.962176,130.23486 155.35523,172.93677 251.83595,179.71355 239.12608,110.72099 283.65146,61.487246 342.5741,54.982622 l 15.21374,0 c 21.50064,2.150064 40.74235,9.66168 55.08518,20.874672 3.70138,2.884896 9.22623,10.723104 13.0909,10.968048 4.81723,0.27216 13.17254,-2.99376 17.77205,-4.35456 16.76505,-5.03496 32.03323,-12.65544 45.55958,-19.513872 -7.62048,23.106384 -22.18104,40.22525 -40.6607,53.2345 -0.78927,0.48989 -2.7216,0.87091 -2.23171,2.20449 21.0924,-2.91211 39.35433,-8.60025 56.44598,-15.67641 z"
     id="path4"
     inkscape:connector-curvature="0" />
</svg>
