<?xml version="1.0" encoding="UTF-8" standalone="no"?>
<!-- Generated by IcoMoon.io -->

<svg
   xmlns:dc="http://purl.org/dc/elements/1.1/"
   xmlns:cc="http://creativecommons.org/ns#"
   xmlns:rdf="http://www.w3.org/1999/02/22-rdf-syntax-ns#"
   xmlns:svg="http://www.w3.org/2000/svg"
   xmlns="http://www.w3.org/2000/svg"
   xmlns:sodipodi="http://sodipodi.sourceforge.net/DTD/sodipodi-0.dtd"
   xmlns:inkscape="http://www.inkscape.org/namespaces/inkscape"
   version="1.1"
   width="512"
   height="512"
   viewBox="0 0 512 512"
   id="svg2"
   inkscape:version="0.91 r13725"
   sodipodi:docname="video-camera.svg">
  <metadata
     id="metadata11">
    <rdf:RDF>
      <cc:Work
         rdf:about="">
        <dc:format>image/svg+xml</dc:format>
        <dc:type
           rdf:resource="http://purl.org/dc/dcmitype/StillImage" />
        <dc:title></dc:title>
      </cc:Work>
    </rdf:RDF>
  </metadata>
  <defs
     id="defs9" />
  <sodipodi:namedview
     pagecolor="#ffffff"
     bordercolor="#666666"
     borderopacity="1"
     objecttolerance="10"
     gridtolerance="10"
     guidetolerance="10"
     inkscape:pageopacity="0"
     inkscape:pageshadow="2"
     inkscape:window-width="1920"
     inkscape:window-height="1027"
     id="namedview7"
     showgrid="false"
     inkscape:zoom="0.23046875"
     inkscape:cx="512"
     inkscape:cy="512"
     inkscape:window-x="-8"
     inkscape:window-y="-8"
     inkscape:window-maximized="1"
     inkscape:current-layer="svg2" />
  <g
     id="icomoon-ignore"
     transform="translate(0,-512)" />
  <path
     d="m 506,104.21514 0,303.5707 q 0,11.71872 -10.88181,16.46188 -3.62744,1.39502 -6.97558,1.39502 -7.53367,0 -12.55564,-5.30126 l -112.44411,-112.44412 0,46.31681 q 0,33.20306 -23.57711,56.78016 -23.5771,23.5771 -56.78016,23.5771 l -196.428325,0 q -33.20306,0 -56.780163,-23.5771 Q 6,387.41723 6,354.21417 L 6,157.78584 Q 6,124.58278 29.577102,101.00567 53.154205,77.428571 86.357265,77.428571 l 196.428325,0 q 33.20306,0 56.78016,23.577099 23.57711,23.57711 23.57711,56.78017 l 0,46.03799 112.44411,-112.164817 q 5.02245,-5.301259 12.55564,-5.301259 3.34814,0 6.97558,1.395016 Q 506,92.495925 506,104.21465 Z"
     id="path5"
     inkscape:connector-curvature="0" />
</svg>
