<?xml version="1.0" encoding="UTF-8" standalone="no"?>
<!-- Generated by IcoMoon.io -->

<svg
   xmlns:dc="http://purl.org/dc/elements/1.1/"
   xmlns:cc="http://creativecommons.org/ns#"
   xmlns:rdf="http://www.w3.org/1999/02/22-rdf-syntax-ns#"
   xmlns:svg="http://www.w3.org/2000/svg"
   xmlns="http://www.w3.org/2000/svg"
   xmlns:sodipodi="http://sodipodi.sourceforge.net/DTD/sodipodi-0.dtd"
   xmlns:inkscape="http://www.inkscape.org/namespaces/inkscape"
   version="1.1"
   width="512"
   height="512"
   viewBox="0 0 512 512"
   id="svg2"
   inkscape:version="0.91 r13725"
   sodipodi:docname="whatsapp.svg">
  <metadata
     id="metadata10">
    <rdf:RDF>
      <cc:Work
         rdf:about="">
        <dc:format>image/svg+xml</dc:format>
        <dc:type
           rdf:resource="http://purl.org/dc/dcmitype/StillImage" />
        <dc:title></dc:title>
      </cc:Work>
    </rdf:RDF>
  </metadata>
  <defs
     id="defs8" />
  <sodipodi:namedview
     pagecolor="#ffffff"
     bordercolor="#666666"
     borderopacity="1"
     objecttolerance="10"
     gridtolerance="10"
     guidetolerance="10"
     inkscape:pageopacity="0"
     inkscape:pageshadow="2"
     inkscape:window-width="1920"
     inkscape:window-height="1027"
     id="namedview6"
     showgrid="false"
     inkscape:zoom="1.3037281"
     inkscape:cx="121.76279"
     inkscape:cy="246.13762"
     inkscape:window-x="-8"
     inkscape:window-y="-8"
     inkscape:window-maximized="1"
     inkscape:current-layer="svg2" />
  <path
     d="M 423.776,87.408 C 379.264,42.928 320.096,18.32 256.96,18.32 127.04,18.32 21.248,124.112 21.248,254.032 c 0,41.408 10.848,82.112 31.488,117.792 L 19.392,493.68 144.32,461.04 c 34.336,18.688 73.152,28.64 112.64,28.64 129.856,0 235.648,-105.728 235.648,-235.648 C 492.576,191.344 468.256,132.176 423.776,87.44 Z M 256.928,449.904 c -35.264,0 -69.76,-9.472 -99.872,-27.2 l -7.072,-4.224 -74.08,19.424 19.904,-72.16 -4.704,-7.36 C 71.456,327.184 60.992,290.928 61.28,254.032 c 0,-107.936 87.808,-195.68 195.904,-195.68 52.32,0 101.472,20.288 138.432,57.472 36.896,36.896 57.248,86.144 57.248,138.368 0.032,108 -88.032,195.712 -195.904,195.712 z M 364.384,303.248 c -5.92,-2.816 -34.816,-17.28 -40.192,-19.2 -5.536,-1.856 -9.312,-2.816 -13.312,2.848 -4,5.888 -15.136,19.136 -18.656,22.944 -3.296,4.064 -6.848,4.544 -12.768,1.44 -5.952,-2.848 -24.896,-9.216 -47.296,-29.088 -17.536,-15.616 -29.344,-34.816 -32.672,-40.704 -3.552,-5.952 -0.448,-8.992 2.624,-12.064 2.624,-2.624 5.92,-6.848 8.736,-10.368 2.848,-3.552 4.064,-5.92 5.92,-9.984 1.952,-4.064 0.928,-7.36 -0.448,-10.432 -1.44,-2.816 -13.312,-31.936 -18.208,-43.776 -4.768,-11.584 -9.696,-9.92 -13.312,-10.208 -3.296,-0.224 -7.264,-0.224 -11.296,-0.224 -4.032,0 -10.432,1.44 -15.616,7.36 -5.216,5.888 -20.608,20.128 -20.608,49.184 0,28.864 21.056,57.024 24.128,60.832 2.816,4 41.44,63.392 100.576,88.96 13.984,6.144 25.024,9.696 33.6,12.288 14.208,4.512 26.944,3.776 37.12,2.368 11.36,-1.632 34.784,-14.144 39.744,-27.904 4.96,-13.76 4.992,-25.568 3.296,-27.904 -1.472,-1.92 -5.536,-3.296 -11.36,-6.368 z"
     id="path4"
     inkscape:connector-curvature="0" />
</svg>
