<?xml version="1.0" encoding="UTF-8" standalone="no"?>
<!-- Generated by IcoMoon.io -->

<svg
   xmlns:dc="http://purl.org/dc/elements/1.1/"
   xmlns:cc="http://creativecommons.org/ns#"
   xmlns:rdf="http://www.w3.org/1999/02/22-rdf-syntax-ns#"
   xmlns:svg="http://www.w3.org/2000/svg"
   xmlns="http://www.w3.org/2000/svg"
   xmlns:sodipodi="http://sodipodi.sourceforge.net/DTD/sodipodi-0.dtd"
   xmlns:inkscape="http://www.inkscape.org/namespaces/inkscape"
   version="1.1"
   width="512"
   height="512"
   viewBox="0 0 512 512"
   id="svg2"
   inkscape:version="0.91 r13725"
   sodipodi:docname="youtube.svg">
  <metadata
     id="metadata11">
    <rdf:RDF>
      <cc:Work
         rdf:about="">
        <dc:format>image/svg+xml</dc:format>
        <dc:type
           rdf:resource="http://purl.org/dc/dcmitype/StillImage" />
        <dc:title />
      </cc:Work>
    </rdf:RDF>
  </metadata>
  <defs
     id="defs9" />
  <sodipodi:namedview
     pagecolor="#ffffff"
     bordercolor="#666666"
     borderopacity="1"
     objecttolerance="10"
     gridtolerance="10"
     guidetolerance="10"
     inkscape:pageopacity="0"
     inkscape:pageshadow="2"
     inkscape:window-width="1920"
     inkscape:window-height="1027"
     id="namedview7"
     showgrid="false"
     inkscape:zoom="0.4609375"
     inkscape:cx="220.3931"
     inkscape:cy="427.63887"
     inkscape:window-x="-8"
     inkscape:window-y="1072"
     inkscape:window-maximized="1"
     inkscape:current-layer="svg2" />
  <g
     id="icomoon-ignore"
     transform="translate(0,-512)" />
  <path
     d="m 313.77318,355.0401 0,60.05001 q 0,19.06823 -11.09948,19.06823 -6.54582,0 -12.80677,-6.26094 l 0,-85.66407 q 6.26095,-6.26094 12.80677,-6.26094 11.09948,0 11.09948,19.06821 z m 96.19426,0.28489 0,13.09166 -25.61403,0 0,-13.09166 q 0,-19.3526 12.80676,-19.3526 12.80679,0 12.80679,19.3526 z m -274.92187,-62.04269 30.45209,0 0,-26.7521 -88.794786,0 0,26.7521 29.882806,0 0,161.93645 28.45989,0 0,-161.93645 z m 81.96409,161.93645 25.32916,0 0,-140.59166 -25.32916,0 0,107.57813 q -8.53802,11.95312 -16.22189,11.95312 -5.12291,0 -5.97657,-5.97657 -0.28438,-0.85365 -0.28438,-9.96093 l 0,-103.59375 -25.32916,0 0,111.27811 q 0,13.94532 2.27657,20.77553 3.4151,10.5302 16.50676,10.5302 13.66093,0 29.02917,-17.36041 l 0,15.36823 z m 122.0927,-42.12032 0,-56.06563 q 0,-20.77554 -2.56145,-28.17502 -4.83805,-15.9375 -20.20627,-15.9375 -14.22971,0 -26.46771,15.36823 l 0,-61.75781 -25.32917,0 0,188.68855 25.32917,0 0,-13.66093 q 12.80677,15.65311 26.46771,15.65311 15.36822,0 20.20627,-15.65311 2.56145,-7.68437 2.56145,-28.45989 z m 96.19426,-2.84634 0,-3.69999 -25.89843,0 q 0,14.51458 -0.56927,17.36042 -1.99218,10.24532 -11.38385,10.24532 -13.09166,0 -13.09166,-19.63749 l 0,-24.7599 50.9432,0 0,-29.31354 q 0,-22.48333 -7.68435,-33.01355 -11.09947,-14.51458 -30.16719,-14.51458 -19.35262,0 -30.45208,14.51458 -7.96875,10.53022 -7.96875,33.01355 l 0,49.23542 q 0,22.48333 8.25313,33.01353 11.09947,14.51458 30.73647,14.51458 20.49114,0 30.73645,-15.08385 5.12292,-7.68436 5.97656,-15.36823 0.56927,-2.56145 0.56927,-16.50677 z m -173.03543,-259.83803 0,-59.765622 q 0,-19.63749 -12.2375,-19.63749 -12.23751,0 -12.23751,19.63749 l 0,59.765622 q 0,19.92187 12.23751,19.92187 12.2375,0 12.2375,-19.92187 z M 466.88724,364.1474 q 0,66.59583 -7.39948,99.60937 -3.98437,16.79115 -16.50677,28.175 -12.5224,11.38387 -29.02917,13.09166 Q 361.58568,511 255.99974,511 150.41381,511 98.047673,505.02343 81.540902,503.31564 68.876567,491.93177 q -12.664336,-11.38385 -16.364326,-28.175 -7.399483,-31.875 -7.399483,-99.60937 0,-66.59584 7.399483,-99.60938 3.984375,-16.79116 16.506767,-28.17501 12.522392,-11.38386 29.313555,-13.37604 52.081247,-5.69219 157.667177,-5.69219 105.58594,0 157.95208,5.69219 16.50677,1.99218 29.1711,13.37604 12.66434,11.38385 16.36433,28.17501 7.39949,31.875 7.39949,99.60938 z M 182.85807,1 l 29.02916,0 -34.43645,113.55469 0,77.12604 -28.45988,0 0,-77.12605 Q 145.00651,93.494273 131.63047,54.219795 121.10026,24.90625 113.13151,1 l 30.16719,0 20.20627,74.849473 z m 105.30155,94.771352 0,49.804678 q 0,23.05261 -7.96875,33.58281 -10.53019,14.51458 -30.16719,14.51458 -19.06823,0 -29.88282,-14.51458 -7.96875,-10.81459 -7.96875,-33.58281 l 0,-49.804678 q 0,-22.767719 7.96875,-33.297925 10.81459,-14.514579 29.88282,-14.514579 19.6375,0 30.16719,14.514579 7.96875,10.530206 7.96875,33.297925 z m 95.34012,-46.1052 0,142.014578 -25.89843,0 0,-15.65312 q -15.08386,17.64531 -29.31355,17.64531 -13.09166,0 -16.79116,-10.5302 -2.27657,-6.83022 -2.27657,-21.3448 l 0,-112.131768 25.89845,0 0,104.447408 q 0,9.39167 0.28437,9.96093 0.85366,6.26095 5.97657,6.26095 7.68436,0 16.22189,-12.23751 l 0,-108.431778 25.89843,0 z"
     id="path5"
     inkscape:connector-curvature="0" />
</svg>
