<?xml version="1.0" encoding="UTF-8" standalone="no"?>
<!-- Generated by IcoMoon.io -->

<svg
   xmlns:dc="http://purl.org/dc/elements/1.1/"
   xmlns:cc="http://creativecommons.org/ns#"
   xmlns:rdf="http://www.w3.org/1999/02/22-rdf-syntax-ns#"
   xmlns:svg="http://www.w3.org/2000/svg"
   xmlns="http://www.w3.org/2000/svg"
   xmlns:sodipodi="http://sodipodi.sourceforge.net/DTD/sodipodi-0.dtd"
   xmlns:inkscape="http://www.inkscape.org/namespaces/inkscape"
   version="1.1"
   width="512"
   height="512"
   viewBox="0 0 512 512"
   id="svg2"
   inkscape:version="0.91 r13725"
   sodipodi:docname="zoom-out.svg">
  <metadata
     id="metadata11">
    <rdf:RDF>
      <cc:Work
         rdf:about="">
        <dc:format>image/svg+xml</dc:format>
        <dc:type
           rdf:resource="http://purl.org/dc/dcmitype/StillImage" />
        <dc:title></dc:title>
      </cc:Work>
    </rdf:RDF>
  </metadata>
  <defs
     id="defs9" />
  <sodipodi:namedview
     pagecolor="#ffffff"
     bordercolor="#666666"
     borderopacity="1"
     objecttolerance="10"
     gridtolerance="10"
     guidetolerance="10"
     inkscape:pageopacity="0"
     inkscape:pageshadow="2"
     inkscape:window-width="1920"
     inkscape:window-height="1027"
     id="namedview7"
     showgrid="false"
     inkscape:zoom="0.89813523"
     inkscape:cx="556.523"
     inkscape:cy="512.0225"
     inkscape:window-x="-8"
     inkscape:window-y="-8"
     inkscape:window-maximized="1"
     inkscape:current-layer="svg2" />
  <g
     id="icomoon-ignore"
     transform="translate(0,-512)" />
  <path
     d="M 495.99948,462.89611 331.27646,298.21923 C 353.73049,268.7268 367.23038,232.03478 367.23038,192.18095 367.23038,95.304142 288.44587,16.4963 191.61519,16.4963 94.78452,16.4963 16,95.326949 16,192.18095 c 0,96.854 78.78452,175.63852 175.61519,175.63852 40.3846,0 77.49232,-13.84614 107.21541,-36.83094 L 463.39241,495.5037 496,462.89611 Z M 191.61467,321.68867 c -71.39987,0 -129.46158,-58.08452 -129.46158,-129.4844 0,-71.4232 58.08451,-129.531037 129.46158,-129.531037 71.37708,0 129.46159,58.107837 129.46159,129.531037 0,71.39988 -58.06171,129.4844 -129.46159,129.4844 z m -68.5615,-141.32304 137.6771,0 0,23.07706 -137.6771,0 0,-23.07706 z"
     id="path5"
     inkscape:connector-curvature="0" />
</svg>
