<?xml version="1.0" encoding="UTF-8" standalone="no"?>
<!-- Generated by IcoMoon.io -->

<svg
   xmlns:dc="http://purl.org/dc/elements/1.1/"
   xmlns:cc="http://creativecommons.org/ns#"
   xmlns:rdf="http://www.w3.org/1999/02/22-rdf-syntax-ns#"
   xmlns:svg="http://www.w3.org/2000/svg"
   xmlns="http://www.w3.org/2000/svg"
   xmlns:sodipodi="http://sodipodi.sourceforge.net/DTD/sodipodi-0.dtd"
   xmlns:inkscape="http://www.inkscape.org/namespaces/inkscape"
   version="1.1"
   width="512"
   height="512"
   viewBox="0 0 512 512"
   id="svg2"
   inkscape:version="0.91 r13725"
   sodipodi:docname="zoom-in.svg">
  <metadata
     id="metadata11">
    <rdf:RDF>
      <cc:Work
         rdf:about="">
        <dc:format>image/svg+xml</dc:format>
        <dc:type
           rdf:resource="http://purl.org/dc/dcmitype/StillImage" />
        <dc:title></dc:title>
      </cc:Work>
    </rdf:RDF>
  </metadata>
  <defs
     id="defs9" />
  <sodipodi:namedview
     pagecolor="#ffffff"
     bordercolor="#666666"
     borderopacity="1"
     objecttolerance="10"
     gridtolerance="10"
     guidetolerance="10"
     inkscape:pageopacity="0"
     inkscape:pageshadow="2"
     inkscape:window-width="1920"
     inkscape:window-height="1027"
     id="namedview7"
     showgrid="false"
     inkscape:zoom="0.23046875"
     inkscape:cx="556.5"
     inkscape:cy="512"
     inkscape:window-x="-8"
     inkscape:window-y="-8"
     inkscape:window-maximized="1"
     inkscape:current-layer="svg2" />
  <g
     id="icomoon-ignore"
     transform="translate(0,-512)" />
  <path
     d="m 203.3986,123.09513 -23.07594,0 0,57.29698 -57.27418,0 0,23.07594 57.29698,0 0,57.29698 23.07594,0 0,-57.3203 57.29698,0 0,-23.07595 -57.3203,0 z m 127.88587,175.12204 c 22.45294,-29.49099 35.95217,-66.18123 35.95217,-106.03312 0,-96.872099 -78.78069,-175.676112 -175.60666,-175.676112 C 94.80401,16.507938 16,95.334757 16,192.18405 c 0,96.84929 78.78069,175.62998 175.60666,175.62998 40.38264,0 77.48856,-13.84546 107.21019,-36.82914 L 463.37067,495.49206 496,462.86273 331.28499,298.21666 Z m -139.67781,23.4683 c -71.39641,0 -129.4553,-58.08169 -129.4553,-129.4781 0,-71.41973 58.0817,-129.524744 129.4553,-129.524744 71.3736,0 129.45529,58.105014 129.45529,129.524744 0,71.39641 -58.05888,129.4781 -129.45529,129.4781 z"
     id="path5"
     inkscape:connector-curvature="0" />
</svg>
